<svg width="257" height="256" viewBox="0 0 257 256" fill="none" xmlns="http://www.w3.org/2000/svg">
<path fill-rule="evenodd" clip-rule="evenodd" d="M114.353 0.203878C112.926 0.667276 111.331 1.63255 110.456 2.56305C109.964 3.08629 106.702 8.15603 103.206 13.8294L96.8517 24.1444L95.3783 23.4895C93.8422 22.8066 86.5769 19.4802 79.4623 16.2019C77.1815 15.1512 74.8152 14.1272 74.2038 13.9266C72.7358 13.4446 69.323 13.6715 68.0226 14.3372C64.4492 16.1669 63.516 17.9917 62.3363 25.4588C61.8655 28.437 61.0029 33.8706 60.4189 37.5336L59.3571 44.1936L56.3256 44.0206C49.7669 43.6464 35.6435 43.2041 34.3133 43.3315C31.5592 43.5954 28.5415 45.8469 27.4009 48.4893C26.4343 50.7279 26.5698 52.8383 28.0633 58.8029C31.0359 70.676 32.372 76.6298 32.1129 76.8504C31.9654 76.976 29.7212 77.8624 27.1258 78.8197C12.7504 84.1217 9.21326 85.4933 8.20971 86.1551C4.82185 88.3891 3.56035 93.4936 5.51883 97.0429C5.9358 97.7985 9.35827 102.649 13.1239 107.822C16.8899 112.994 19.9723 117.292 19.9737 117.371C19.9748 117.451 16.3576 120.85 11.935 124.924C2.08348 133.999 1.08108 135.054 0.444177 137.019C-0.535631 140.043 0.132166 143.316 2.18473 145.552C2.87111 146.299 6.88014 148.93 13.5412 153.003C19.2038 156.467 23.9207 159.388 24.0234 159.495C24.126 159.603 23.3773 161.486 22.3597 163.68C21.3422 165.875 19.8241 169.145 18.9862 170.947C13.5535 182.636 13.8952 181.779 13.7574 184.057C13.5761 187.057 14.3137 188.946 16.4128 190.858C18.3241 192.599 19.3703 192.957 25.2668 193.889C33.56 195.2 44.1409 196.945 44.219 197.014C44.261 197.051 44.0883 202.199 43.8354 208.453C43.5823 214.707 43.4353 220.611 43.5088 221.572C43.7513 224.751 46.16 227.934 49.0711 228.922C51.299 229.678 53.4482 229.488 59.6162 227.984C73.1891 224.677 76.9027 223.857 77.1372 224.116C77.2705 224.263 78.0941 226.307 78.9675 228.659C79.8407 231.01 81.4125 235.242 82.4603 238.063C83.5082 240.885 84.6811 244.038 85.0669 245.07C86.3853 248.598 88.6026 250.692 91.6976 251.332C94.8695 251.988 96.7253 251.345 101.353 247.984C111.3 240.76 117.344 236.428 117.63 236.319C117.808 236.25 121.777 240.293 126.45 245.302C136.251 255.807 136.546 256.034 140.379 255.998C142.793 255.975 144.459 255.344 146.214 253.789C146.822 253.251 149.803 248.718 153.559 242.623C157.035 236.98 159.975 232.263 160.091 232.141C160.274 231.947 163.383 233.325 179.692 240.829C182.035 241.907 183.273 242.307 184.593 242.412C187.051 242.609 189.209 241.893 191.004 240.284C193.392 238.145 193.617 237.396 195.561 225.096C196.515 219.061 197.376 213.643 197.474 213.055C197.689 211.76 196.352 211.82 211.384 212.429C219.542 212.759 222.633 212.792 223.569 212.558C227.32 211.619 229.826 208.814 230.334 204.984C230.495 203.77 230.223 202.293 228.628 195.722C227.585 191.423 226.258 185.954 225.679 183.57C225.101 181.186 224.686 179.19 224.758 179.135C224.83 179.08 229.715 177.262 235.614 175.094C241.512 172.926 246.864 170.909 247.507 170.613C249.043 169.904 250.882 168.063 251.693 166.422C252.614 164.56 252.617 161.089 251.7 159.263C251.346 158.557 247.903 153.645 244.05 148.346C240.197 143.047 237.044 138.674 237.044 138.627C237.044 138.581 241.179 134.72 246.232 130.048C254.328 122.563 255.507 121.364 256.153 119.96C257.579 116.857 257.19 113.519 255.099 110.91C254.182 109.765 252.266 108.473 243.795 103.287C238.185 99.8527 233.413 96.903 233.19 96.7323C232.855 96.4749 233.521 94.8382 237.088 87.1597C243.05 74.3211 243.324 73.6459 243.33 71.7507C243.339 69.3371 242.66 67.4741 241.174 65.8274C239.184 63.6216 237.8 63.1029 231.181 62.0826C222.458 60.738 212.887 59.1842 212.796 59.0982C212.752 59.0557 212.926 53.842 213.183 47.5124C213.44 41.1824 213.588 35.2902 213.511 34.4181C213.245 31.4194 211.11 28.5199 208.233 27.2517C206.123 26.3215 203.94 26.4953 197.291 28.1232C183.673 31.457 180.389 32.2063 180.018 32.0643C179.802 31.982 179.301 30.9748 178.904 29.8266C176.467 22.7781 171.16 9.16376 170.446 8.12981C168.952 5.96529 166.185 4.51183 163.56 4.51183C160.763 4.51183 159.866 5.02424 149.263 12.6811L139.13 19.9992L137.967 18.721C137.327 18.0179 133.464 13.8735 129.383 9.51088C122.97 2.65538 121.747 1.48007 120.375 0.847676C118.698 0.0753461 115.728 -0.242136 114.353 0.203878Z" fill="#ECF0CF"/>
<path fill-rule="evenodd" clip-rule="evenodd" d="M115.454 10.1881C114.138 10.6156 112.667 11.5062 111.86 12.3646C111.406 12.8473 108.398 17.5246 105.175 22.7587L99.3146 32.2751L97.9559 31.6709C96.5394 31.0409 89.8394 27.972 83.2785 24.9475C81.1752 23.9781 78.993 23.0334 78.4292 22.8483C77.0754 22.4037 73.9282 22.613 72.729 23.2272C69.4337 24.9152 68.5731 26.5987 67.4852 33.4877C67.0511 36.2353 66.2556 41.2483 65.7171 44.6277L64.7378 50.7721L61.9423 50.6125C55.894 50.2672 42.8697 49.8592 41.643 49.9767C39.1033 50.2202 36.3203 52.2973 35.2686 54.7352C34.3771 56.8005 34.5021 58.7474 35.8794 64.2503C38.6206 75.2041 39.8528 80.6969 39.6139 80.9004C39.4778 81.0164 37.4082 81.8341 35.0148 82.7173C21.7582 87.6088 18.4963 88.8743 17.5708 89.4848C14.4466 91.5459 13.2833 96.2552 15.0893 99.5297C15.4739 100.227 18.63 104.702 22.1026 109.474C25.5755 114.246 28.418 118.211 28.4193 118.284C28.4204 118.358 25.0847 121.493 21.0062 125.252C11.9213 133.625 10.9969 134.598 10.4096 136.411C9.50605 139.2 10.1219 142.22 12.0147 144.283C12.6477 144.972 16.3447 147.399 22.4874 151.158C27.7094 154.353 32.0592 157.048 32.1538 157.147C32.2485 157.246 31.5581 158.983 30.6197 161.008C29.6813 163.032 28.2814 166.049 27.5087 167.712C22.4987 178.496 22.8139 177.705 22.6868 179.807C22.5196 182.575 23.1997 184.318 25.1356 186.081C26.8981 187.687 27.8628 188.018 33.3005 188.878C40.9484 190.088 50.7058 191.697 50.7778 191.761C50.8166 191.795 50.6573 196.544 50.4241 202.314C50.1907 208.084 50.0551 213.53 50.1229 214.418C50.3466 217.351 52.5677 220.287 55.2523 221.198C57.3068 221.896 59.2888 221.72 64.9768 220.333C77.4934 217.282 80.918 216.526 81.1343 216.764C81.2572 216.9 82.0167 218.786 82.8222 220.955C83.6274 223.124 85.0769 227.029 86.0432 229.632C87.0095 232.235 88.0911 235.144 88.4469 236.096C89.6627 239.351 91.7075 241.283 94.5616 241.874C97.4867 242.479 99.1981 241.885 103.466 238.784C112.639 232.119 118.213 228.123 118.476 228.023C118.64 227.959 122.3 231.689 126.61 236.31C135.647 246.002 135.92 246.211 139.454 246.178C141.681 246.157 143.217 245.575 144.836 244.14C145.396 243.644 148.145 239.462 151.608 233.839C154.815 228.633 157.525 224.281 157.632 224.168C157.801 223.989 160.668 225.261 175.708 232.183C177.869 233.178 179.01 233.547 180.228 233.644C182.495 233.826 184.485 233.165 186.14 231.681C188.342 229.708 188.549 229.016 190.343 217.669C191.222 212.101 192.016 207.102 192.106 206.56C192.305 205.365 191.072 205.421 204.934 205.982C212.457 206.287 215.308 206.317 216.171 206.101C219.63 205.235 221.94 202.647 222.409 199.114C222.558 197.994 222.307 196.631 220.836 190.569C219.874 186.602 218.65 181.557 218.117 179.358C217.583 177.158 217.201 175.317 217.268 175.266C217.334 175.216 221.839 173.538 227.278 171.537C232.718 169.537 237.653 167.677 238.246 167.403C239.662 166.75 241.358 165.051 242.106 163.537C242.955 161.819 242.959 158.617 242.113 156.932C241.786 156.282 238.611 151.749 235.058 146.861C231.504 141.972 228.597 137.937 228.597 137.895C228.597 137.852 232.41 134.29 237.07 129.98C244.536 123.074 245.624 121.968 246.219 120.672C247.534 117.809 247.175 114.73 245.247 112.323C244.401 111.267 242.634 110.075 234.823 105.29C229.649 102.122 225.249 99.4006 225.043 99.2431C224.734 99.0056 225.348 97.4957 228.637 90.4116C234.136 78.567 234.388 77.9441 234.394 76.1956C234.402 73.9689 233.776 72.2501 232.406 70.7309C230.571 68.6958 229.294 68.2173 223.19 67.276C215.146 66.0355 206.32 64.6021 206.236 64.5227C206.195 64.4835 206.355 59.6735 206.593 53.8339C206.83 47.994 206.966 42.5579 206.895 41.7534C206.65 38.9868 204.681 36.3118 202.028 35.1418C200.082 34.2836 198.069 34.444 191.938 35.9458C179.38 39.0216 176.351 39.7128 176.009 39.5819C175.81 39.5059 175.348 38.5767 174.981 37.5173C172.734 31.0146 167.84 18.4543 167.182 17.5004C165.804 15.5034 163.252 14.1625 160.832 14.1625C158.252 14.1625 157.425 14.6353 147.648 21.6993L138.303 28.4508L137.23 27.2716C136.64 26.6229 133.078 22.7994 129.315 18.7745C123.4 12.4498 122.273 11.3655 121.007 10.782C119.46 10.0695 116.722 9.77661 115.454 10.1881Z" fill="#58B7B5"/>
<path d="M72.6146 144.143L72.3522 144.12C72.0398 144.092 71.8415 144.055 71.7574 144.01L71.3976 143.807L71.5473 132.672L70.743 132.581C70.2432 132.536 69.7967 132.528 69.4037 132.555C68.7836 132.588 68.311 132.589 67.9861 132.56C67.4738 132.514 66.9017 132.431 66.27 132.312L64.8351 132.088C64.7101 133.06 64.6066 133.932 64.5245 134.706C64.3558 136.303 64.0943 138.163 63.74 140.285C63.7106 140.471 63.6864 140.671 63.6674 140.883L63.5853 142.217C63.5494 142.617 63.4924 142.971 63.4144 143.279C63.094 143.2 62.7213 143.141 62.2965 143.103L61.6387 143.063C61.3104 143.071 61.0276 143.065 60.7902 143.044C60.6027 143.027 60.4243 142.979 60.255 142.901C60.0265 142.78 59.9516 142.282 60.0302 141.407C60.0694 140.97 60.1512 140.41 60.2754 139.728C60.5877 133.445 60.7752 129.884 60.8379 129.046C61.0034 126.642 61.1703 124.503 61.3387 122.629C61.5665 120.092 61.7569 118.673 61.9099 118.372L62.016 117.191C62.0552 116.754 62.143 116.478 62.2792 116.364C62.4278 116.252 63.0833 116.248 64.2454 116.352C64.9702 116.417 65.49 116.52 65.8048 116.662C66.1674 116.833 66.3245 117.187 66.2762 117.725L66.251 118.006C66.1652 118.54 66.0982 119.076 66.05 119.613C66.0107 120.05 65.9834 120.495 65.968 120.947L65.884 122.092C65.8245 122.754 65.7412 123.402 65.634 124.035C65.5368 124.555 65.4322 125.44 65.3199 126.69C65.2672 127.277 65.2433 127.754 65.2482 128.119C66.7513 128.355 68.2526 128.54 69.7522 128.675C70.427 128.736 71.1092 128.784 71.7987 128.821C71.8438 128.46 71.8876 128.042 71.9302 127.567L72.0596 125.916C72.0975 125.214 72.1484 124.507 72.2124 123.794C72.2965 122.857 72.4163 121.734 72.5716 120.425C72.7281 119.104 72.9774 118.081 73.3197 117.356C73.6705 117.236 74.1022 117.199 74.6145 117.245C75.3018 117.307 75.9068 117.443 76.4296 117.654L75.8951 125.92C75.8576 128.02 75.7553 130.002 75.5881 131.864C75.5117 132.713 75.4251 133.468 75.3281 134.127C75.492 134.406 75.5301 135.455 75.4423 137.274C75.3854 138.188 75.3367 138.87 75.2963 139.32C75.2705 139.607 75.2271 139.881 75.166 140.14C75.1175 140.4 75.074 140.673 75.0357 140.959C74.9942 141.422 74.984 141.956 75.0051 142.563C75.0123 142.904 75.0098 143.212 74.9976 143.488L75.0358 144.115C74.6622 144.207 73.8551 144.217 72.6146 144.143Z" fill="white"/>
<path d="M85.7456 134.061L90.0431 134.39C90.1931 134.403 90.2703 134.385 90.2748 134.335L90.2474 134.219C89.9386 132.327 89.778 130.889 89.7656 129.906C89.7119 128.54 89.5201 127.66 89.1902 127.265L88.6973 128.336C88.1475 129.408 87.7735 130.205 87.5753 130.729L86.9716 131.771C86.3196 132.859 85.9109 133.622 85.7456 134.061ZM80.7824 145.141L80.6699 145.131C80.4325 145.11 79.8059 145.003 78.7902 144.811C77.687 144.611 77.0763 144.468 76.958 144.382C76.9181 144.265 76.9049 144.132 76.9184 143.982C76.9622 143.494 77.3473 142.502 78.0738 141.006C78.3367 140.462 78.526 140.038 78.6415 139.734C78.7626 139.367 78.9461 138.867 79.1919 138.234C79.8274 136.628 80.3585 135.624 80.7852 135.221C80.8212 134.96 80.9463 134.549 81.1604 133.989C81.5852 132.906 82.018 131.943 82.459 131.101C83.181 129.654 84.2829 127.624 85.7647 125.011C87.5015 121.942 88.5471 120.329 88.9013 120.172C89.2458 119.422 89.6513 118.904 90.1179 118.619C90.5591 119.036 90.9521 120.06 91.2969 121.691C91.4294 122.32 91.4878 122.792 91.4723 123.105C91.6953 123.428 91.9437 124.168 92.2176 125.326C92.3774 126.071 92.5524 126.648 92.7426 127.055C92.8305 127.479 92.9806 128.122 93.1928 128.985L94.7045 135.508C96.1814 141.926 96.9002 145.354 96.8609 145.792L96.8592 145.81C96.6266 146.016 96.4023 146.128 96.1865 146.147C96.0593 146.161 95.9207 146.161 95.7708 146.147C95.6833 146.139 95.5777 146.124 95.4538 146.1C95.3436 146.065 95.2135 146.041 95.0635 146.027L94.3479 146.001C94.1457 146.008 93.9571 146.003 93.7822 145.988C93.4323 145.956 93.1062 145.87 92.8039 145.73C92.4523 145.156 92.0204 143.442 91.5084 140.587C91.2844 139.295 91.0709 138.305 90.8679 137.62C90.6044 137.608 90.3397 137.61 90.0739 137.624C89.8206 137.639 89.5315 137.632 89.2066 137.603L89.0004 137.584C88.7641 137.55 88.4523 137.516 88.0649 137.481C86.9902 137.385 85.6742 137.38 84.117 137.467C83.5115 138.458 82.6854 140.292 81.6387 142.97L80.7824 145.141Z" fill="white"/>
<path d="M121.077 150.415C119.473 150.126 117.963 149.702 116.548 149.141C113.932 148.163 112.339 147.174 111.769 146.174C111.156 146.098 110.533 145.567 109.899 144.582C109.286 143.598 108.774 142.52 108.363 141.348C107.973 140.178 107.808 139.255 107.869 138.58C107.679 138.397 107.621 137.897 107.694 137.078C107.797 135.931 108.002 134.691 108.307 133.356C108.553 132.223 108.758 131.436 108.922 130.997C109.594 129.489 110.577 128.194 111.871 127.113C112.315 126.761 112.62 126.469 112.785 126.236L114.551 125.187C114.897 125.012 115.294 124.841 115.743 124.675C114.083 123.164 113.072 121.205 112.71 118.8C112.371 116.375 112.263 114.467 112.388 113.075C112.499 111.846 112.753 110.744 113.15 109.769C113.655 108.741 114.053 107.982 114.345 107.492C114.638 106.982 114.953 106.577 115.29 106.277C115.492 106.089 116.319 105.503 117.769 104.518C119.194 103.594 121.716 103.088 125.335 103C128.9 103.754 131.291 104.701 132.51 105.842C133.685 107 134.394 107.724 134.636 108.014C134.914 108.37 135.152 108.824 135.35 109.379C135.549 109.913 135.806 110.73 136.12 111.832C136.371 112.948 136.427 114.274 136.289 115.809C136.113 117.775 135.681 119.253 134.993 120.243C134.721 121.437 134.217 122.568 133.481 123.637C132.745 124.706 131.879 125.505 130.882 126.035C131.705 126.521 132.449 127.083 133.114 127.721C133.247 127.857 133.39 127.983 133.545 128.1C133.666 128.359 133.904 128.7 134.258 129.124C135.32 130.396 136.067 131.845 136.498 133.473C136.581 133.935 136.652 134.746 136.713 135.907C136.759 137.232 136.734 138.437 136.636 139.522C136.553 140.444 136.402 140.977 136.183 141.122C136.102 141.796 135.765 142.674 135.172 143.756C134.58 144.838 133.884 145.807 133.085 146.664C132.306 147.523 131.609 147.935 130.993 147.9C130.253 148.783 128.519 149.473 125.792 149.971C124.279 150.269 122.707 150.417 121.077 150.415ZM123.606 122.255C124.609 122.345 125.635 122.189 126.682 121.788C128.797 120.987 130.037 119.128 130.402 116.209C130.546 113.23 129.932 111.224 128.559 110.193C127.836 109.736 126.747 109.339 125.292 109.002C124.65 109.027 123.94 109.118 123.162 109.275C122.386 109.411 121.784 109.564 121.357 109.732C120.451 110.166 119.703 110.904 119.115 111.945C118.526 112.986 118.153 114.036 117.996 115.095C117.764 119.511 119.634 121.898 123.606 122.255ZM122.544 143.736C123.506 143.822 124.48 143.776 125.466 143.596C128.672 142.831 130.418 140.852 130.705 137.658C130.824 136.328 130.713 135.152 130.372 134.13C130.03 133.109 129.095 132.148 127.566 131.247L126.94 130.974C125.021 130.059 123.651 129.564 122.833 129.491C121.727 129.392 120.518 129.52 119.207 129.877C117.746 130.283 116.61 131.099 115.798 132.326C115.009 133.535 114.538 134.875 114.385 136.348C114.32 137.064 114.314 137.703 114.367 138.265C114.412 138.682 114.426 139.106 114.408 139.538C114.669 139.851 114.899 140.16 115.098 140.467C115.406 140.949 115.758 141.393 116.155 141.8C116.572 142.209 117.178 142.583 117.973 142.923C118.912 143.276 119.862 143.495 120.824 143.582L121.687 143.628L122.544 143.736Z" fill="white"/>
<path d="M150.801 153.115C147.013 152.775 143.804 151.744 141.173 150.022C141.185 149.878 141.282 149.608 141.462 149.212C141.794 148.499 141.98 147.927 142.018 147.497C142.026 147.415 142.055 147.315 142.107 147.196L142.205 146.802C142.21 146.741 142.205 146.688 142.188 146.646C142.171 146.603 142.167 146.53 142.176 146.428C142.193 146.244 142.273 145.921 142.418 145.459C142.563 144.997 142.754 144.478 142.991 143.901C143.249 143.325 143.482 142.923 143.688 142.694C144.26 142.993 144.84 143.313 145.428 143.655C147.376 144.945 149.486 145.691 151.759 145.895C151.943 145.912 152.241 145.928 152.652 145.945C153.084 145.963 153.743 145.857 154.631 145.627C155.539 145.399 156.225 145.11 156.69 144.759C157.175 144.411 157.624 144.008 158.037 143.549L158.715 142.898C158.777 142.429 158.861 141.962 158.964 141.497C159.122 140.892 159.236 140.19 159.308 139.391C159.59 133.721 156.894 130.311 151.219 129.161L150.906 129.195C150.422 129.069 149.955 128.986 149.504 128.945C149.32 128.929 149.135 128.922 148.949 128.926C148.763 128.93 148.567 128.923 148.363 128.905C147.769 128.851 147.123 128.69 146.425 128.421C146.35 128.105 146.337 127.67 146.387 127.118L146.569 125.431L146.702 124.298C146.733 123.95 146.751 123.642 146.754 123.374C146.756 122.899 146.784 122.355 146.839 121.741C147.006 119.878 147.415 117.283 148.064 113.957C148.871 109.798 149.392 107.565 149.626 107.256C150.271 106.963 151.167 106.868 152.314 106.971L153.352 107.126C154.236 107.164 155.13 107.213 156.032 107.274L157.624 107.478L159.098 107.611L160.477 107.766C162.617 107.834 164.332 107.926 165.622 108.042C166.584 108.128 167.328 108.236 167.852 108.366L168.279 110.85C168.172 111.356 168.103 111.784 168.072 112.132L168.05 113.058C167.999 113.632 167.841 114.237 167.578 114.873C167.09 115.015 165.963 115.038 164.197 114.941C163.276 114.859 162.504 114.841 161.88 114.888C160.829 114.876 159.627 114.809 158.276 114.688L155.392 114.398C155.307 114.886 155.226 115.446 155.149 116.079C155.027 116.976 154.872 117.891 154.685 118.823C154.463 119.918 154.263 121.118 154.084 122.422C154.034 122.975 153.977 123.496 153.912 123.986L154.713 124.027C155.737 124.119 156.706 124.36 157.62 124.752C158.555 125.146 159.531 125.646 160.55 126.253C161.429 126.807 161.983 127.187 162.212 127.393C163.024 127.776 163.655 128.214 164.106 128.709C164.579 129.185 165.032 129.886 165.465 130.812C165.993 131.83 166.39 132.928 166.655 134.108C166.708 134.442 166.758 135.035 166.805 135.886C166.867 137.728 166.837 139.325 166.715 140.676C166.616 141.781 166.467 142.408 166.268 142.555C166.181 143.29 165.835 144.27 165.23 145.495C164.626 146.7 163.931 147.783 163.143 148.744C162.377 149.687 161.686 150.141 161.07 150.106C160.375 150.952 159.167 151.648 157.446 152.195C155.746 152.744 154.366 153.064 153.305 153.154C152.516 153.207 151.681 153.194 150.801 153.115Z" fill="white"/>
<path d="M184.327 145.879C182.935 145.754 181.807 145.447 180.943 144.956C180.825 142.593 180.869 140.255 181.077 137.941C181.151 137.122 181.245 136.305 181.359 135.49C180.397 135.404 179.805 135.33 179.584 135.269C178.407 135.039 176.939 134.845 175.178 134.687C173.417 134.529 172.268 134.343 171.73 134.13L171.485 132.034C171.587 131.589 171.655 131.172 171.69 130.783L171.756 129.705C171.809 129.112 171.959 128.475 172.206 127.796C172.667 127.713 173.164 127.696 173.697 127.744L174.738 127.868L175.726 127.895C176.778 127.907 177.979 127.973 179.33 128.095L181.935 128.391C182.07 127.35 182.142 126.779 182.151 126.676C182.182 126.555 182.281 125.914 182.447 124.753C182.579 123.98 182.687 123.123 182.771 122.182C182.922 120.503 183.085 119.372 183.262 118.789L185.388 118.547C185.833 118.649 186.25 118.717 186.639 118.752L187.72 118.787C188.313 118.841 188.949 119.001 189.627 119.268C189.729 119.731 189.756 120.239 189.706 120.792L189.587 121.772L189.558 122.791C189.535 123.738 189.469 124.816 189.36 126.024C189.274 126.986 189.161 128.018 189.02 129.12C190.228 129.228 191.545 129.388 192.971 129.598C194.398 129.789 195.65 129.984 196.726 130.183C197.802 130.383 198.418 130.531 198.574 130.628C198.826 131.27 198.906 132.102 198.814 133.126C198.693 134.477 198.408 135.587 197.958 136.454C195.45 136.58 192.978 136.533 190.541 136.315C189.825 136.25 189.11 136.165 188.397 136.06L188.305 136.052C188.197 137.26 188.036 138.587 187.824 140.033C187.634 141.461 187.439 142.712 187.239 143.788C187.059 144.866 186.912 145.472 186.797 145.606C186.133 145.876 185.309 145.968 184.327 145.879Z" fill="white"/>
</svg>
