<svg width="20" height="46" viewBox="0 0 20 46" fill="none" xmlns="http://www.w3.org/2000/svg">
<path fill-rule="evenodd" clip-rule="evenodd" d="M10.6632 0.0849141C10.2886 0.230162 10.0803 0.510636 9.49797 1.65405C6.35636 7.82314 3.96122 13.3056 2.37093 17.9677C1.38335 20.863 0.495604 24.0237 0.500016 24.6288C0.506774 25.5651 1.37066 26.3709 2.16718 26.184C2.41547 26.1257 3.49717 25.2844 4.47504 24.3888C5.6581 23.3055 7.04697 21.7274 8.27796 20.0677L8.4955 19.7744L8.46743 20.4002C8.45199 20.7444 8.40751 21.9379 8.36863 23.0525C8.32974 24.1671 8.1906 27.3672 8.05938 30.1638C7.51033 41.8646 7.44558 24.9642 7.49536 30.7428C7.53301 35.1143 7.56811 36.1345 7.78709 39.2214C8.10027 43.6367 8.09634 40.9803 8.92955 44.7938C9.08503 45.5053 9.22562 45.7394 9.60009 45.9099C10.0973 46.1363 10.7732 45.9171 10.9755 45.4638C11.086 45.2162 11.0827 45.1175 10.9068 43.4149C10.4705 39.1929 10.7943 41.52 10.7093 37.2685C10.6564 34.6198 10.6976 26.1337 10.7772 23.267C10.8598 20.2987 11.233 27.886 11.2975 26.295C11.3179 25.7883 11.3537 24.2463 11.3769 22.8683C11.4001 21.4902 11.429 20.2964 11.4411 20.2153C11.4534 20.1343 11.4656 19.8094 11.4685 19.4933L11.4736 18.9187L12.3527 19.7504C12.8362 20.2079 13.9873 21.3121 14.9107 22.2042C17.4311 24.6393 17.4464 24.6532 17.7182 24.7491C18.258 24.9395 18.9901 24.709 19.3206 24.2447C19.4954 23.999 19.5059 23.9403 19.4983 23.2417C19.4823 21.765 18.7732 17.8347 17.9818 14.8358C17.0389 11.2632 15.8378 7.92712 14.2672 4.51884C13.4771 2.80439 12.3855 0.655884 12.1746 0.400097C11.8787 0.0412882 11.1615 -0.108234 10.6632 0.0849141ZM11.7481 5.97427C13.8211 10.5846 15.1058 14.6143 15.9925 19.2879C16.0389 19.5325 16.0203 19.5201 15.3236 18.8458C14.9295 18.4642 14.22 17.7818 13.747 17.3295C13.2741 16.8771 12.6312 16.2222 12.3185 15.874C11.7505 15.2418 11.6645 15.191 11.2426 15.2385C11.1724 15.2464 11.0675 15.1804 11.0094 15.0917C10.8687 14.877 10.2577 14.5794 9.95664 14.579C9.13846 14.5779 8.51432 15.2003 8.51018 16.0212C8.50874 16.3152 8.46537 16.3695 6.64148 18.3601C5.61452 19.4809 4.68768 20.4638 4.58184 20.5444C4.39781 20.6845 4.41477 20.6179 4.97093 19.0161C6.02891 15.9691 7.06532 13.3765 8.57576 9.99781C9.54093 7.83899 11.0528 4.70308 11.1285 4.70308C11.1549 4.70308 11.4338 5.27515 11.7481 5.97427Z" fill="#404040"/>
</svg>
