<svg width="40" height="45" viewBox="0 0 40 45" fill="none" xmlns="http://www.w3.org/2000/svg">
<path fill-rule="evenodd" clip-rule="evenodd" d="M11.6131 0.04327C11.0449 0.156716 10.4694 0.611456 10.2113 1.15099C10.0054 1.58149 9.97318 1.83622 9.97318 3.03664V4.10527L7.52508 4.12362C4.81381 4.14393 4.81582 4.14374 3.92907 4.47867C1.98048 5.21467 0.635222 6.81134 0.101655 9.02128C0.0259861 9.33464 0.0196609 10.3326 0.00462096 24.2559C-0.00709242 35.0849 0.00288733 39.2763 0.0411667 39.5984C0.203608 40.965 0.807456 42.2239 1.77072 43.2046C2.64074 44.0904 3.68839 44.6557 4.93642 44.913C5.33838 44.9959 6.04236 45 19.9998 45C33.9573 45 34.6613 44.9959 35.0632 44.913C35.2952 44.8652 35.6683 44.7636 35.8924 44.6873C38.0828 43.9409 39.6797 41.9423 39.9585 39.5984C39.9968 39.2762 40.007 35.0882 39.9956 24.2559L39.98 9.35663L39.88 8.94942C39.3259 6.69464 37.8448 5.0365 35.7975 4.37897C35.034 4.13373 34.7379 4.11112 32.2872 4.11093L30.0265 4.11073V3.03932C30.0265 2.45011 30.0053 1.85184 29.9794 1.70989C29.7811 0.62372 28.735 -0.143618 27.6961 0.0351737C27.0184 0.151781 26.4688 0.580076 26.1705 1.22386L26.0205 1.54767L26.006 2.8292L25.9915 4.11073H19.9998H14.0082L13.9937 2.8292L13.9792 1.54767L13.8292 1.22386C13.5444 0.609348 13.0443 0.195856 12.4227 0.0611397C12.0695 -0.015369 11.9229 -0.0186268 11.6131 0.04327ZM9.97318 9.27826C9.97318 10.4798 10.0045 10.7119 10.2301 11.1823C10.8875 12.5531 12.8007 12.6867 13.6495 11.4212C13.97 10.9434 14.0026 10.7587 14.0026 9.42097V8.2308H19.9998H25.9971V9.42097C25.9971 10.49 26.0067 10.64 26.0918 10.8941C26.2088 11.244 26.454 11.616 26.7013 11.8193C27.7094 12.6476 29.1729 12.3569 29.7595 11.2118C29.9871 10.7677 30.0265 10.4816 30.0265 9.27423V8.22725L32.2663 8.241L34.5061 8.25475L34.863 8.43517C35.2421 8.62681 35.5761 8.95095 35.7466 9.29277C35.9725 9.74555 35.9769 9.81971 35.9769 13.1993V16.3751H19.9998H4.02278V13.1993C4.02278 9.8221 4.02732 9.74454 4.25203 9.29531C4.38538 9.02866 4.70712 8.67706 4.95217 8.53022C5.44895 8.23252 5.43424 8.23406 7.8062 8.23238L9.97318 8.2308V9.27826ZM35.9763 29.8013C35.9757 39.7704 35.9863 39.3151 35.7446 39.7985C35.599 40.0897 35.2286 40.4786 34.948 40.6347C34.4382 40.9184 35.3445 40.9022 19.9998 40.9022C4.84281 40.9022 5.57911 40.914 5.09708 40.6626C4.81643 40.5162 4.43711 40.1357 4.28272 39.8457C4.00915 39.3317 4.02395 39.9047 4.02334 29.8013L4.02278 20.4952H19.9998H35.9769L35.9763 29.8013Z" fill="#CE7174"/>
</svg>
