<svg width="33" height="32" viewBox="0 0 33 32" fill="none" xmlns="http://www.w3.org/2000/svg">
<path fill-rule="evenodd" clip-rule="evenodd" d="M16.7004 13.9109C12.7824 10.7243 8.30735 8.27849 1.91312 7.55863C1.10543 7.4677 0.524376 6.73922 0.615305 5.93153C0.706234 5.12383 1.43471 4.54278 2.24241 4.63371C9.31632 5.43009 14.306 8.16946 18.5576 11.6274C20.6643 13.3409 22.5917 15.2324 24.4804 17.121C24.7083 17.349 24.9357 17.5769 25.1627 17.8044C26.8308 19.4763 28.484 21.1332 30.2714 22.7192C30.8794 23.2587 30.935 24.1888 30.3955 24.7968C29.8561 25.4048 28.9259 25.4603 28.3179 24.9209C26.4587 23.2712 24.7387 21.5471 23.0765 19.8809C22.8497 19.6535 22.624 19.4272 22.3991 19.2023C20.512 17.3153 18.6784 15.5197 16.7004 13.9109Z" fill="#FF5353"/>
<path fill-rule="evenodd" clip-rule="evenodd" d="M24.7977 10.2472C18.3118 15.4086 12.3897 20.1212 8.28306 28.1251C7.91202 28.8483 7.02499 29.1338 6.30183 28.7627C5.57867 28.3917 5.29321 27.5047 5.66425 26.7815C10.0881 18.1593 16.6413 12.9539 23.2175 7.73034C25.0299 6.29072 26.844 4.84972 28.6158 3.33543C29.2336 2.80736 30.1626 2.88015 30.6907 3.49802C31.2188 4.11589 31.146 5.04487 30.5281 5.57295C28.591 7.22852 26.6709 8.75657 24.7977 10.2472Z" fill="#FF5353"/>
</svg>
