<svg width="85" height="67" viewBox="0 0 85 67" fill="none" xmlns="http://www.w3.org/2000/svg">
<path fill-rule="evenodd" clip-rule="evenodd" d="M35.1842 0.967911C34.3814 1.38715 33.7724 1.84567 33.2603 2.41651C32.7417 2.99464 32.0226 4.27326 31.8092 4.99699C31.4573 6.1901 31.611 7.72284 32.1752 8.64846C33.0571 10.0951 35.1469 11.4995 36.7625 11.7311C37.0556 11.7732 37.3162 11.8194 37.3415 11.8339C37.3667 11.8485 37.441 12.2502 37.5066 12.7266C37.5721 13.2032 37.6973 14.0631 37.7848 14.6376C38.112 16.7863 38.5152 20.3103 38.6999 22.6343C38.722 22.9117 38.767 23.4406 38.7999 23.8095C38.8834 24.7447 38.9718 26.0225 39.0178 26.9569C39.0392 27.3919 39.0701 28.0019 39.0865 28.3124C39.1029 28.6229 39.121 29.056 39.1269 29.2748C39.1326 29.4937 39.1432 29.8774 39.1502 30.1274C39.1894 31.5329 39.1933 32.1966 39.1696 33.4432C39.1551 34.203 39.1336 34.9561 39.1216 35.1168C39.1096 35.2775 39.06 35.9609 39.0115 36.6355C38.8309 39.1469 38.4564 40.832 37.8612 41.8112C37.2733 42.7786 35.525 42.7049 32.1603 41.5708C31.5572 41.3676 31.0313 41.21 30.9919 41.2207C30.6544 41.3125 25.5977 38.7031 21.889 36.5232C17.8768 34.165 11.8215 30.3351 11.4018 29.8902C11.21 29.6869 11.2216 29.6141 11.5589 28.9049C12.2515 27.4492 12.4515 26.192 12.1608 25.1227C12.0695 24.787 12.047 24.4507 12.106 24.3037C12.2657 23.9053 12.1125 23.5771 11.5619 23.1384C10.3432 22.1672 8.67156 21.5417 7.02523 21.4408C6.36438 21.4004 5.98912 21.4502 5.07293 21.7004C3.7785 22.0538 3.11943 22.3997 2.26036 23.1764C0.771636 24.5224 0.106276 26.6302 0.598539 28.4408C0.806183 29.2045 1.63237 30.4747 2.32676 31.0977C3.43027 32.0879 4.9208 32.661 6.24772 32.6054C6.55866 32.5925 7.31186 32.4291 7.92151 32.2425L9.03 31.9034L9.48237 32.3824C10.9212 33.906 14.4484 37.9995 15.338 39.1781C16.5669 40.8063 16.6518 40.9184 16.8656 41.1964C17.7486 42.3438 19.98 45.6756 20.7425 46.9849C21.4743 48.2414 21.9099 49.2041 22.1559 50.1091C22.3744 50.9125 22.428 51.0082 22.8813 51.4006C23.378 51.8308 23.5141 51.8471 24.0016 51.5351C24.1553 51.4368 24.2328 51.4384 24.261 51.5404C24.3581 51.8921 24.7534 52.422 24.8907 52.3847C25.1454 52.3154 25.3466 51.2929 25.2369 50.6253C25.1765 50.257 25.1876 49.9692 25.2643 49.913C25.4285 49.7928 25.301 49.33 24.7268 47.963C24.1129 46.5011 24.0972 46.4715 22.8168 44.3596C21.8893 42.8297 20.7759 41.1738 19.8545 39.9543C19.7755 39.8498 19.5402 39.5339 19.3314 39.2524L18.9518 38.7405L21.551 40.1949C25.5035 42.4066 28.3637 43.7699 30.4346 44.4292C32.5724 45.1099 34.8486 45.7385 35.3922 45.7984C36.0936 45.8755 37.4319 45.7688 38.1162 45.581C38.7281 45.4131 39.4859 45.0027 40.0032 44.5589C41.3363 43.4151 42.269 40.1003 42.4644 35.8112C42.4862 35.3329 42.519 34.6283 42.5373 34.2454C42.5684 33.5937 42.5645 31.3733 42.5305 30.3536C42.5221 30.1039 42.5107 29.7205 42.505 29.5016C42.484 28.6927 42.2285 24.4634 42.1136 23.0231C42.0891 22.7149 42.0505 22.1932 42.028 21.8639C42.0054 21.5345 41.9423 21.1008 41.8877 20.9C41.7193 20.2806 41.9484 20.4482 42.3816 21.2611C43.0899 22.5904 43.1509 22.7007 43.9635 24.1234C44.3995 24.8867 44.8498 25.6919 44.9642 25.9127C45.0786 26.1336 45.3004 26.5113 45.4573 26.7521C47.025 29.1598 47.9933 30.6252 48.1196 30.7808C48.3391 31.0515 49.5889 32.8225 49.6067 32.888C49.615 32.9185 49.851 33.2186 50.1311 33.555C50.4113 33.8915 50.6524 34.2106 50.667 34.2643C50.6816 34.3181 51.1116 34.8312 51.6225 35.4045C53.5489 37.5663 55.0633 38.6656 56.5187 38.9584C57.729 39.202 58.9022 38.8123 60.4505 37.6526C62.0746 36.4361 63.7583 34.6815 66.1435 31.7197C67.5573 29.9643 71.1223 25.024 71.9874 23.6214C72.2908 23.1296 72.3157 23.165 72.1984 23.9206C72.15 24.2322 72.0842 24.6625 72.052 24.8766C71.989 25.2972 71.8407 28.1472 71.8088 29.5509C71.798 30.0262 71.7809 30.5462 71.7709 30.7064C71.7504 31.033 71.7443 32.1368 71.759 32.8282C71.7644 33.0787 71.7641 33.4432 71.7584 33.6381C71.7351 34.4478 71.8251 34.5558 74.4989 36.927C74.8956 37.2787 75.2529 37.6158 75.293 37.6762C75.3331 37.7365 75.4067 37.7423 75.4564 37.6889C75.5432 37.5961 75.5009 36.9653 75.2907 35.2177C75.0163 32.9353 74.8773 30.8779 74.9545 30.2416C74.9703 30.1114 74.9846 29.7725 74.9864 29.4886C74.9881 29.2047 75.0202 28.3714 75.0578 27.6369C75.1174 26.4704 75.2135 25.6935 75.5996 23.2523C75.7215 22.4817 76.1214 20.4999 76.2719 19.9203C76.3423 19.6491 76.4839 19.0696 76.5865 18.6323C76.7638 17.8771 77.287 16.1221 77.5636 15.3547C77.6341 15.1592 77.6655 14.9626 77.6334 14.9178C77.5019 14.7342 74.9593 13.5715 74.7001 13.5765C74.4607 13.5811 74.3102 13.7687 73.6617 14.8707C71.9967 17.6997 69.506 21.5519 67.2057 24.8555C64.1248 29.2801 61.3019 32.6999 59.2055 34.5472C58.6844 35.0064 57.6198 35.699 57.3026 35.7852C56.331 36.0494 53.7209 33.224 50.6678 28.603C49.611 27.0038 48.591 25.3923 48.0681 24.4963C47.082 22.8066 46.7626 22.2499 45.908 20.7318C45.0829 19.2665 44.4636 18.1329 43.4834 16.2949C43.3513 16.0473 43.1553 15.6884 43.0477 15.4972C42.9401 15.306 42.775 14.9901 42.6808 14.7953C42.5866 14.6004 42.4143 14.2608 42.2978 14.0405C42.1813 13.8203 41.9736 13.4129 41.8361 13.1354C41.6987 12.8578 41.416 12.2905 41.2079 11.8747C40.9999 11.4588 40.8118 11.0461 40.7903 10.9575C40.7687 10.8689 40.9477 10.6285 41.1881 10.4233C42.1303 9.61888 43.0931 7.8955 43.3591 6.53723C43.7463 4.56082 43.2709 2.90574 41.9098 1.49159C41.2648 0.821447 41.1407 0.756934 40.9316 0.983039C40.8133 1.11095 40.6405 1.08977 40.0929 0.88022C38.0942 0.115246 36.7715 0.138858 35.1842 0.967911ZM38.1285 3.14905C38.3382 3.18742 38.9468 3.40767 39.4807 3.63846C40.5463 4.09919 40.5384 4.08783 40.5982 5.25949C40.6574 6.42156 40.1734 7.71245 39.4462 8.33171C38.5158 9.12405 36.9531 9.17992 35.9398 8.45705C35.4054 8.07589 34.7687 7.33364 34.6724 6.97939C34.4906 6.31056 34.8361 5.07313 35.3838 4.43201C36.2306 3.44069 37.2125 2.98168 38.1285 3.14905ZM76.0445 3.33721C74.6828 4.23788 73.6079 6.04717 73.5213 7.58373C73.4456 8.92783 73.559 9.7449 73.927 10.5087C74.256 11.1915 74.3073 11.2717 74.8232 11.9119C75.5481 12.8116 77.5986 13.698 78.9842 13.7106C80.1439 13.7213 80.4294 13.6938 81.1256 13.5045C82.1531 13.2252 82.6277 12.9079 83.4872 11.9266C84.3928 10.8923 84.7173 9.9206 84.6686 8.38829C84.6465 7.69354 84.243 6.20719 83.9544 5.75783C83.0655 4.37357 81.9411 3.34395 80.7728 2.84427C80.1578 2.58123 79.9128 2.5206 79.0228 2.41134C78.4782 2.34436 76.7181 2.8916 76.0445 3.33721ZM6.71745 24.1702C8.25255 24.1186 9.5162 24.7784 9.6047 25.6776C9.70723 26.7184 9.12629 28.1921 8.34492 28.873C6.98996 30.054 5.28373 30.0562 4.07495 28.8782C3.50543 28.3232 3.21083 27.2254 3.42183 26.4448C3.61319 25.7367 4.09747 25.1786 4.93973 24.6951C5.75181 24.2289 5.85239 24.1993 6.71745 24.1702ZM79.0205 5.53674C80.0458 5.61656 81.0117 6.3023 81.5351 7.32191C82.1285 8.47779 81.817 9.97725 80.8597 10.5734C79.3747 11.4982 77.84 11.0349 76.7351 9.32812C76.4549 8.89528 76.4122 8.75424 76.4031 8.23255C76.3749 6.60751 77.5276 5.42032 79.0205 5.53674ZM46.879 45.1469C44.9312 45.7992 42.0785 46.8885 40.715 47.5005C40.3787 47.6515 39.687 47.9464 39.1779 48.1558C38.6688 48.3652 38.0004 48.6515 37.6927 48.792C37.385 48.9323 36.8118 49.1902 36.4191 49.3649C35.0394 49.9785 33.9059 50.5111 32.059 51.4139C31.2669 51.801 29.4962 52.7505 28.8155 53.1531C28.6258 53.2653 28.0483 53.6016 27.5321 53.9006C27.0159 54.1995 26.2845 54.6325 25.9068 54.8625C25.5291 55.0926 25.0649 55.3723 24.8752 55.4841C24.6854 55.5958 24.2218 55.8781 23.845 56.1113C23.4681 56.3445 22.939 56.6696 22.6692 56.8338C19.9128 58.5106 18.7922 59.3005 18.507 59.7678C18.0305 60.5486 17.1457 62.4299 16.998 62.9759C16.8704 63.4482 16.8787 63.5399 17.0715 63.7896C17.3415 64.1391 17.4921 64.0978 18.1877 63.4832C18.4919 63.2144 18.8661 62.9592 19.0192 62.9161C19.3502 62.8231 20.2582 62.246 20.9096 61.7146C21.4831 61.2469 21.6627 61.1109 22.0942 60.8178C22.2801 60.6916 22.5172 60.523 22.6213 60.443C22.9417 60.1972 24.1099 59.3895 25.0759 58.7459C25.5817 58.409 26.081 58.0686 26.1853 57.9896C26.2896 57.9106 26.7487 57.6118 27.2055 57.3258C29.9821 55.5871 33.2351 53.8972 36.2736 52.6152C36.6685 52.4485 37.3372 52.1636 37.7596 51.9821C38.582 51.6287 39.1599 51.3948 41.9834 50.2731C47.5846 48.0475 52.7121 46.4851 58.1406 45.3496C61.5468 44.6371 62.6551 44.4558 66.1328 44.0422C69.8211 43.6036 71.352 43.5757 73.3895 43.9102C75.0532 44.1832 76.6532 44.8837 76.7937 45.4004C76.832 45.5411 76.6886 45.7305 76.31 46.0396C76.014 46.2811 75.7261 46.4998 75.6702 46.5254C75.6143 46.551 75.5286 46.6145 75.4799 46.6665C75.1889 46.9767 70.7567 49.5061 69.4413 50.1126C69.0501 50.2929 68.5497 50.5343 68.3293 50.6489C66.9632 51.3591 63.8285 52.7774 61.3542 53.8049C60.8739 54.0044 60.1574 54.303 59.7622 54.4684C59.3668 54.6337 58.5659 54.9529 57.9824 55.1776C57.3989 55.4023 56.4672 55.7609 55.912 55.9745C53.4913 56.9055 50.2805 58.0218 45.3338 59.652C42.7367 60.508 36.0243 62.3339 34.3723 62.6338C30.8725 63.2693 27.6286 63.5088 27.5282 63.1392C27.4724 62.9342 29.0946 61.6135 30.337 60.8524C30.8946 60.5107 34.336 58.5844 35.4482 57.9914C37.4997 56.8974 37.8453 56.7446 41.5216 55.3042C43.2391 54.6312 46.3404 53.6205 47.1769 53.461C47.9601 53.3117 48.0651 53.2637 48.5234 52.8456C48.7967 52.5962 49.2066 52.2727 49.4342 52.1267C49.6617 51.9807 49.832 51.8023 49.8123 51.7301C49.7927 51.658 49.5397 51.5938 49.25 51.5874C48.6391 51.5739 48.3488 51.4299 48.5845 51.2571C48.9375 50.9984 48.5327 50.7426 47.41 50.5151C46.8529 50.4021 46.8399 50.4049 43.6852 51.3255C40.7362 52.1861 40.0162 52.4325 37.9962 53.2728C35.9961 54.1049 35.4701 54.3462 33.8786 55.1622C32.9402 55.6433 31.9913 56.1278 31.7699 56.2388C30.6749 56.7881 28.0944 58.4069 27.2762 59.058C27.1728 59.1403 26.9189 59.3422 26.712 59.5065C24.7071 61.0996 23.9705 62.2326 24.0138 63.6574C24.0378 64.4469 24.3314 64.9801 25.1372 65.6971C25.832 66.3152 26.1501 66.4802 27.0192 66.6732C29.1133 67.1379 35.586 66.0902 41.4179 64.3427C48.6471 62.1764 55.3635 59.904 59.9424 58.0754C60.453 57.8715 61.2538 57.5522 61.722 57.3658C65.9718 55.6746 68.1921 54.6856 70.3154 53.5378C71.4621 52.9178 71.9867 52.6378 72.4623 52.3916C74.3281 51.4261 75.6828 50.626 76.4036 50.064C76.5074 49.9831 76.8504 49.7308 77.166 49.5034C78.0904 48.8369 79.3313 47.6483 79.723 47.0539C80.1893 46.3467 80.4087 45.2377 80.2199 44.543C80.1439 44.2636 80.0258 44.0184 79.9574 43.998C79.889 43.9777 79.8128 43.8868 79.7881 43.796C79.6926 43.4446 78.7319 42.4718 78.1025 42.0892C76.9405 41.3825 75.9096 41.0737 73.9548 40.8468C73.3218 40.7733 73.1804 40.7615 72.9601 40.7633C72.8346 40.7644 72.2901 40.7489 71.7501 40.7289C70.3398 40.6769 69.6462 40.6773 68.606 40.7312C64.4338 40.9469 63.3966 41.0644 59.9285 41.7136C58.0652 42.0625 48.8473 44.4876 46.879 45.1469Z" fill="#ECF0CF"/>
</svg>
