<svg width="376" height="76" viewBox="0 0 376 76" fill="none" xmlns="http://www.w3.org/2000/svg">
<path fill-rule="evenodd" clip-rule="evenodd" d="M153.756 0.0759451C115.063 0.561458 75.4516 4.64242 47.6267 11.0101C31.9672 14.5937 18.9227 19.1657 11.1066 23.8101C8.54601 25.3315 4.63914 28.4433 3.33131 30.0032C2.09383 31.4789 0.916 33.4292 0.465323 34.7484C0.0146451 36.0672 -0.142913 38.632 0.145647 39.9505C1.95787 48.2329 13.7708 55.644 34.8437 61.7189C62.6499 69.7351 103.172 74.7535 148.801 75.8323C157.759 76.044 179.96 76.059 184.376 75.8563C266.339 72.0935 330.94 61.753 361.852 47.4479C367.289 44.9318 372.613 41.6372 375.172 39.205L376 38.4178L375.381 38.0026C375.041 37.7744 373.999 37.066 373.066 36.4284L371.37 35.269L369.633 36.6751C367.49 38.4112 366.326 39.1877 363.537 40.742C349.23 48.7166 322.361 55.9696 287.037 61.3924C259.024 65.6928 226.869 68.7807 191.663 70.5513C167.283 71.7773 133.339 70.9951 105.795 68.5723C60.058 64.5494 24.6921 56.1109 11.6952 46.1197C7.36085 42.7877 5.54486 39.5948 6.30114 36.636C8.7539 27.0409 33.2706 17.591 71.3101 11.5784C93.245 8.11121 118.688 5.91141 145.63 5.15238C154.095 4.91389 177.989 4.91136 185.763 5.14797C231.499 6.54047 269.81 11.4424 296.55 19.3233C309.323 23.0877 319.011 27.7996 323.179 32.2743C324.33 33.5103 325.495 35.3615 325.685 36.2562C325.777 36.688 325.918 36.878 326.147 36.8784C326.678 36.8795 331.613 36.0472 331.79 35.9268C332.04 35.7561 331.378 33.9363 330.557 32.5367C328.491 29.0171 324.562 25.6902 318.747 22.5364C301.311 13.0812 265.69 5.58647 221.635 2.10381C200.185 0.408138 178.624 -0.236058 153.756 0.0759451Z" fill="#D35D87"/>
</svg>
