<svg width="53" height="122" viewBox="0 0 53 122" fill="none" xmlns="http://www.w3.org/2000/svg">
<path fill-rule="evenodd" clip-rule="evenodd" d="M37.0743 121.446C37.1808 121.221 36.1789 118.351 34.8481 115.069C31.8946 107.786 31.0702 105.437 29.7013 100.402C25.0179 83.1773 25.2432 65.8787 30.3701 49.0537C32.3082 42.6932 34.1915 38.0624 37.6326 31.1982C40.3979 25.6817 40.8252 24.5936 40.3903 24.1766C39.9643 23.7682 35.0684 29.5678 32.9633 32.974C20.8763 52.5322 17.842 76.7063 24.6499 99.2044C26.5097 105.351 30.1065 113.114 33.1465 117.543C34.9714 120.201 36.8019 122.02 37.0743 121.446ZM3.40305 29.6181C6.94985 28.7993 18.9898 24.247 23.7744 21.9153C34.1907 16.8393 43.5243 10.455 49.2315 4.50223L51.0549 2.60038L50.6093 11.9391C49.5472 34.202 49.7805 48.6837 51.2007 48.6538C52.1165 48.6345 52.665 41.5428 52.701 29.2434C52.7232 21.6638 52.1688 1.21629 51.9269 0.697182C51.8631 0.560474 51.0073 1.13145 50.0249 1.96645C44.4804 6.67798 34.1443 12.7213 22.324 18.1627C12.0483 22.8928 5.60612 26.2312 1.55518 28.9242C0.240968 29.7981 1.14794 30.1384 3.40305 29.6181Z" fill="#58B7B5"/>
</svg>
