<svg width="53" height="29" viewBox="0 0 53 29" fill="none" xmlns="http://www.w3.org/2000/svg">
<path fill-rule="evenodd" clip-rule="evenodd" d="M52.7535 3.10448C52.6678 3.18794 51.2082 3.1798 49.5098 3.08663C45.7413 2.87955 44.5456 2.87103 42.0452 3.03354C33.4906 3.58952 25.6674 6.38685 18.8229 11.3372C16.2354 13.2085 14.4252 14.7855 11.843 17.4181C9.76781 19.5337 9.34008 19.8974 9.08287 19.7648C8.83099 19.6349 10.7029 16.5073 11.9223 15.0203C18.924 6.48238 29.4331 1.33778 40.7141 0.925427C43.7959 0.812738 47.8828 1.23728 50.3686 1.92824C51.8606 2.34306 52.9721 2.89123 52.7535 3.10448ZM5.79244 2.11455C5.97307 3.85335 5.7808 10.032 5.46698 12.5689C4.78386 18.0915 3.33772 23.3262 1.52267 26.8463L0.94277 27.9709L5.1157 26.3136C15.0638 22.3627 21.6789 20.2125 21.8865 20.8623C22.0204 21.2814 18.8843 22.6354 13.3025 24.5679C9.86276 25.7588 0.487539 28.6926 0.214044 28.6636C0.142 28.6559 0.268046 28.1781 0.494313 27.6018C1.77087 24.349 2.90592 18.712 3.53628 12.4946C4.08418 7.08968 4.59707 3.64302 5.18936 1.38321C5.38161 0.650039 5.6775 1.00904 5.79244 2.11455Z" fill="#58B7B5"/>
</svg>
