<svg width="804" height="601" viewBox="0 0 804 601" fill="none" xmlns="http://www.w3.org/2000/svg">
<g clip-path="url(#clip0_68_178)">
<path fill-rule="evenodd" clip-rule="evenodd" d="M167.618 -72.261C153.603 -76.1562 141.063 -77.5015 125.621 -76.767C106.158 -75.8406 94.0099 -74.2647 89.4258 -72.0704C85.8329 -70.3504 81.3473 -66.7478 82.2787 -66.3295C84.0579 -65.5307 89.7537 -65.9841 102.374 -67.9279C120.553 -70.7283 128.297 -71.4261 138.022 -71.1393C165.409 -70.3334 191.488 -59.8184 217.967 -38.9058C228.343 -30.711 235.522 -23.9629 247.575 -11.0767C269.994 12.893 270.495 13.3717 306.063 44.8111C343.714 78.0911 353.435 88.1726 358.543 99.237C362.919 108.717 368.84 116.539 385.029 134.232C396.39 146.649 407.104 159.977 410.412 165.807C415.532 174.83 417.068 180.927 418.891 199.469C419.584 206.517 420.956 218.969 421.94 227.141C424.489 248.297 424.878 266.541 422.796 267.326C421.616 267.771 414.216 262.044 410.897 258.117C406.137 252.487 404.2 247.66 399.575 229.922C397.314 221.249 394.234 210.5 392.73 206.035C391.226 201.569 389.199 194.319 388.225 189.922C385.695 178.497 384.557 177.279 365.866 165.979C360.13 162.512 353.933 157.318 348.51 151.432C346.026 148.738 345.874 148.219 346.416 144.303C346.756 141.845 346.616 140.036 346.079 139.977C345.572 139.921 343.338 141.011 341.114 142.398C338.891 143.786 336.289 144.996 335.333 145.088C331.328 145.475 315.373 136.266 308.662 129.694C305.405 126.506 305.712 124.481 309.934 121.296C315.054 117.433 312.565 116.95 302.449 119.844C299.148 120.788 294.554 121.646 292.24 121.749C287.16 121.976 276.675 120.991 274.691 120.1C273.633 119.625 272.8 116.749 271.498 109.08C270.528 103.372 269.517 98.9387 269.25 99.2273C268.34 100.213 266.226 114.343 266.069 120.492C265.983 123.866 266.418 129.801 267.037 133.679C268.542 143.121 275.748 161.629 282.211 172.653C297.712 199.092 299.311 202.472 301.682 213.819C303.926 224.553 303.833 229.886 301.306 235.391C299.943 238.362 298.292 240.712 296.353 242.442C291.695 246.6 288.883 245.187 284.659 236.566C282.441 232.04 280.296 223.864 280.393 220.306C280.458 217.948 280.681 217.718 284.777 215.803C287.771 214.404 288.82 213.585 288.201 213.129C286.31 211.735 282.223 212.77 278.89 215.489C274.787 218.835 274.788 218.759 278.613 229.948C280.181 234.538 281.285 238.36 281.066 238.443C278.807 239.295 259.315 202.717 247.379 175.227C240.403 159.16 228.065 142.592 211.735 127.362L204.733 120.831L206.268 115.063C208.649 106.12 207.61 96.4587 204.488 98.4985C202.667 99.688 201.565 102.895 200.33 110.601C199.692 114.587 198.945 117.932 198.67 118.036C197.393 118.517 194.095 111.388 192.724 105.185C191.598 100.086 190.526 97.4757 188.569 95.0668C187.119 93.2814 185.767 91.7459 185.564 91.6546C183.883 90.9001 184.273 101.96 186.134 107.825C187.777 113.007 187.173 113.127 181.964 108.658C177.514 104.839 174.628 99.8204 169.472 86.9351C162.794 70.246 161.166 59.3709 162.168 38.1601C162.908 22.4937 162.259 14.4531 159.635 6.83423C157.061 -0.643661 153.11 -6.47948 146.612 -12.4028C142.548 -16.1086 140.692 -17.2495 133.254 -20.6158C127.999 -22.9944 123.716 -24.5406 122.319 -24.5634C120.1 -24.6002 120.028 -24.5193 120.163 -22.1703C120.36 -18.744 121.956 -16.6075 127.749 -12.0123C133.272 -7.63055 138.785 -1.46073 140.784 2.57499L142.058 5.14861L136.105 7.23247C126.012 10.7653 114.509 10.7961 74.525 7.39877C45.6971 4.94972 38.3388 4.47226 35.7298 4.88065C32.906 5.32318 28.5581 8.94131 27.1499 12.0201L26.1414 14.2253L29.6484 14.2854C31.5774 14.319 42.585 14.2732 54.1103 14.1837C65.6352 14.0949 81.0938 14.2513 88.4622 14.5324C104.954 15.1617 139.085 18.7016 142.217 20.1079C145.411 21.5419 147.525 24.4421 148.226 28.3517C148.78 31.4366 148.704 31.7176 147.134 32.4005C144.642 33.4842 137.656 33.4293 124.137 32.2191C110.473 30.9961 105.204 31.1211 82.0581 33.2152C73.0006 34.0349 59.2667 35.0375 51.5385 35.443C27.1942 36.7218 18.303 39.3192 11.3212 47.1921C6.48618 52.6434 4.33894 58.331 3.47486 67.9704C3.16903 71.3904 3.33957 71.8365 5.29657 72.7153C10.816 75.1936 24.0387 75.2165 36.3859 72.7687C47.9664 70.4727 55.8023 68.2107 70.8251 62.8266C92.887 54.9195 109.901 51.5928 133.284 50.614C141.669 50.2634 151.786 50.8514 153.888 51.8123C154.512 52.0976 155.241 55.0093 155.601 58.6539C156.555 68.3133 159.245 78.8277 163.245 88.5286C171.137 107.673 177.422 114.58 197.206 125.852C221.5 139.694 233.753 154.61 246.126 185.399C249.693 194.276 253.846 203.373 255.355 205.614C256.863 207.855 258.169 209.803 258.255 209.942C258.342 210.081 256.054 212.796 253.17 215.975C250.286 219.155 246.899 223.608 245.642 225.87C243.679 229.404 243.38 230.624 243.519 234.548C243.719 240.249 246.032 244.852 248.97 245.401C252.994 246.152 257.553 244.736 264.058 240.71L270.643 236.634L273.899 241.483C277.877 247.408 281.588 249.695 290.076 251.455C295.621 252.604 296.015 252.563 298.111 250.625C303.998 245.183 308.167 238.13 309.182 231.9C309.458 230.205 309.6 224.503 309.498 219.228C309.396 213.953 309.663 207.588 310.091 205.083C311.256 198.254 315.117 188.312 318.309 183.919L321.026 180.182L321.141 185.551C321.293 192.597 323.479 198.047 328.903 204.902L333.336 210.504L331.417 218.736C329.187 228.303 329.231 232.571 331.632 239.44L333.371 244.415L329.508 253.841C327.13 259.645 325.651 264.223 325.659 265.754C325.684 270.421 327.604 277.106 329.811 280.206C331.771 282.959 332.335 283.344 334.915 283.688C336.51 283.901 339.601 283.377 341.783 282.525C343.965 281.673 346.033 281.103 346.379 281.258C346.725 281.413 347.937 283.44 349.071 285.764C351.567 290.871 356.247 296.417 359.182 297.746C362.003 299.023 365.646 298.065 368.09 295.401C370.869 292.372 375.373 280.278 377.669 269.679C378.701 264.914 380.972 252.354 382.715 241.77C386.085 221.306 387.592 214.042 388.812 212.376C389.308 211.698 390.536 215.251 392.375 222.683C399.75 252.472 400.498 254.41 408.041 263.277C412.082 268.027 418.322 272.212 422.474 272.957C427.655 273.886 430.181 269.69 429.447 261.377C429.182 258.378 428.859 252.818 428.729 249.024C428.6 245.23 427.246 232.16 425.721 219.978C424.197 207.797 422.198 191.728 421.28 184.268C419.434 169.261 418.357 165.361 414.181 158.562C410.728 152.941 399.849 140.046 389.164 128.908C376.524 115.733 369.25 106.875 367.237 102.204C366.228 99.8612 364.833 94.8186 364.139 90.9983C361.412 75.999 358.462 69.5611 350.878 62.0561C344.502 55.7472 337.919 51.0662 319.547 39.7768C292.748 23.309 288.226 19.7212 260.293 -7.24033C232.021 -34.5282 220.601 -44.3905 205.767 -54.3284C197.412 -59.9252 176.308 -69.8451 167.618 -72.261ZM332.445 56.2909C344.468 64.5226 352.169 70.2201 353.193 71.6431C354.643 73.6573 356.058 81.003 355.068 81.3765C354.784 81.4836 315.961 46.8868 312.112 43.0969C310.296 41.3083 315.344 44.5838 332.445 56.2909ZM892.54 366.205C880.449 362.003 870.555 359.502 855.202 356.765C833.105 352.827 824.953 350.618 808.871 344.204C795.503 338.874 794.255 338.512 784.96 337.272C767.811 334.984 764.651 334.292 754.363 330.563C730.695 321.986 722.311 320.051 678.958 313.157C635.134 306.189 618.224 302.382 597.459 294.808C585.826 290.565 581.3 288.27 565.571 278.636C559.342 274.82 550.826 270.277 544.44 267.363C532.496 261.913 527.003 260.485 514.121 259.487C510.048 259.172 499.667 257.842 491.051 256.532C475.253 254.129 463.694 253.328 460.347 254.403C456.093 255.769 455.175 264.686 458.635 271.036C462.189 277.559 471.856 285.516 481.475 289.835C485.053 291.442 488.764 292.389 494.463 293.151C503.546 294.365 512.786 297.399 533.001 305.803C547.633 311.885 557.522 317.605 566.393 325.115C574.806 332.239 576.158 334.266 581.881 348.35L584.748 355.407L580.908 358.186C576.304 361.519 569.333 364.26 562.729 365.334C560.066 365.766 550.386 366.36 541.216 366.653C530.903 366.983 524.004 367.603 523.124 368.278C521.147 369.797 518.298 378.236 518.288 382.604C518.28 386.275 519.931 390.69 523.756 397.225C526.342 401.642 526.572 400.826 519.188 413.416C513.217 423.599 508.109 434.61 506.176 441.469C505.437 444.092 503.279 450.564 501.381 455.85C497.071 467.86 496.296 471.675 497.469 475.12C498.594 478.418 500.682 480.717 505.681 484.162L509.464 486.769L513.664 485.231L517.864 483.692L520.19 486.091C523.771 489.782 528.543 491.613 532.707 490.892C537.168 490.119 538.171 489.599 543.072 485.517C546.333 482.802 547.969 480.67 551.579 474.431C555.945 466.884 556.152 466.649 560.633 464.206C566.633 460.933 570.603 457.31 573.23 452.707C575.94 447.957 578.369 446.307 585.722 444.215C591.86 442.47 594.34 441.309 600.647 437.228C603.036 435.682 605.369 434.857 607.146 434.928L609.919 435.039L607.747 438.893C606.396 441.294 603.106 445.086 599.032 448.943C595.433 452.35 591.321 456.49 589.895 458.142C586.084 462.553 579.993 474.526 577.361 482.778C572.656 497.524 574.073 506.692 581.574 510.039C585.09 511.607 592.53 510.836 596.209 508.522C600.173 506.029 602.684 502.173 609.645 487.893L615.639 475.597L619.535 474.698C622.767 473.953 623.937 473.186 626.397 470.203C632.29 463.057 631.407 463.293 640.133 466.533C668.208 476.957 690.674 478.448 717.141 471.642C736.894 466.563 761.165 461.408 764.466 461.589C766.945 461.726 770.282 462.936 778.422 466.649C790.634 472.219 794.945 475.173 818.482 494.099C842.704 513.576 853.913 520.874 863.422 523.362C870.225 525.142 875.97 524.31 880.16 520.936C886.286 516.004 886.123 511.482 879.541 503.774C872.917 496.016 865.609 490.353 840.136 473.246C815.926 456.987 802.725 450.715 772.427 441.077C765.831 438.979 760.359 437.07 760.266 436.836C759.913 435.945 764.731 433.865 768.763 433.166C773.965 432.265 780.767 432.947 790.005 435.296C798.505 437.456 820.419 447.013 851.719 462.209C867.295 469.769 872.459 472.038 872.73 471.436C873.562 469.582 870.006 462.686 866.858 460.048C859.626 453.986 827.676 436.615 811.924 430.18C802.129 426.178 799.169 425.299 789.83 423.619C780.347 421.913 771.924 419.944 763.036 417.356L760.375 416.581L763.393 410.772C768.375 401.184 769.187 394.046 765.946 388.304C764.965 386.565 763.671 385.579 760.68 384.29C752.443 380.738 742.259 383.354 730.423 392.062C717.072 401.884 703.951 407.039 693.393 406.609C688.855 406.424 687.83 406.056 670.964 398.552C659.43 393.421 651.715 390.35 648.752 389.712C640.997 388.042 609.78 388.027 599.562 389.689C596.697 390.155 587.404 392.996 578.911 396.003C570.418 399.01 561.237 401.725 558.51 402.035C539.13 404.244 526.525 396.513 526.422 382.355C526.366 374.667 526.397 374.642 535.216 374.945C542.099 375.181 543.411 375.456 546.6 377.332C550.963 379.898 552.686 382.334 551.696 384.538C551.294 385.434 548.807 387.378 546.169 388.858C543.532 390.338 540.431 392.148 539.278 392.881L537.182 394.214L539.199 395.12C540.647 395.77 542.782 395.536 546.758 394.292C558.158 390.728 559.787 386.437 553.886 375.524L551.133 370.432L555.19 370.466C557.421 370.484 562.427 370.084 566.314 369.576C570.2 369.069 582.491 368.294 593.628 367.857C615.713 366.987 620.911 365.953 628.565 360.905C633.991 357.325 641.018 354.53 646.82 353.642C650.474 353.083 651.916 352.419 653.538 350.55C654.674 349.241 655.512 347.933 655.401 347.644C655.291 347.354 652.437 346.699 649.062 346.188C642.416 345.181 633.9 341.833 625.893 337.078L621.364 334.389L619.656 339.25C618.716 341.924 617.861 346.035 617.756 348.385C617.557 352.87 614.174 361.82 612.895 361.246C612.522 361.078 611.191 359.884 609.937 358.591C608.183 356.782 607.346 354.647 606.304 349.313C605.559 345.502 603.968 340.083 602.769 337.271L600.588 332.158L598.726 335.043C597.701 336.629 595.975 339.76 594.889 342C593.804 344.241 592.348 346.75 591.655 347.575C590.44 349.023 590.294 348.807 587.569 341.482C585.493 335.899 584.645 331.927 584.37 326.486C584.033 319.809 583.752 318.812 581.502 316.306C579.035 313.557 578.893 313.492 568.309 310.213C562.325 308.36 555.704 305.854 553.285 304.526C548.089 301.677 543.588 296.794 541.213 291.434L539.503 287.572L535.384 289.432C527.361 293.054 517.983 291.007 503.854 282.551L497.056 278.483L494.064 279.325C485.973 281.604 477.228 279.833 469.633 274.376C462.255 269.074 459.792 266.003 460.146 262.54C460.413 259.909 460.677 259.532 463.176 258.184C465.807 256.766 466.21 256.803 473.579 259.139C482.995 262.123 494.611 263.754 506.171 263.712C521.207 263.658 522.27 263.914 539.558 271.755C550.833 276.869 559.107 281.172 571.615 288.429C589.802 298.98 591.543 299.714 603.045 301.661C609.214 302.706 612.337 303.736 622.599 308.114L634.812 313.323L648.172 315.051C673.909 318.378 679.665 319.213 691.498 321.34C712.658 325.141 727.703 328.941 752.739 336.806C763.743 340.263 774.267 342.554 780.387 342.825C787.586 343.143 789.562 343.759 808.835 351.692C829.405 360.159 833.412 361.353 851.949 364.536C867.929 367.281 869.858 367.772 886.514 373.349C894.51 376.025 903.665 378.839 906.86 379.601C912.825 381.023 921.46 381.429 921.961 380.312C922.625 378.835 906.144 370.933 892.54 366.205ZM352.391 164.506C370.801 178.321 375.552 185.328 373.088 195.032C372.417 197.673 371.58 200.476 371.227 201.263C369.811 204.417 369.494 212.718 370.543 219.2C371.621 225.871 371.999 232.756 371.367 234.244C371.195 234.649 368.919 235.984 366.307 237.211C363.696 238.438 361.608 239.804 361.668 240.245C361.727 240.687 363.307 241.736 365.179 242.577C370.368 244.906 370.352 246.305 364.979 259.761C359.994 272.247 359.482 275.678 361.084 285.898C361.61 289.26 361.945 292.246 361.825 292.534C361.416 293.521 358.583 291.697 356.278 288.962C351.746 283.583 351.013 278.91 350.914 254.772C350.886 247.939 350.48 237.526 350.011 231.632C348.979 218.661 349.587 214.669 354.482 202.315C356.563 197.062 358.408 191.629 358.582 190.245C359.03 186.695 357.026 183.047 353.379 180.773C349.311 178.236 347.276 175.087 345.919 169.221C344.66 163.783 344.21 158.752 345.016 159.125C345.309 159.261 348.629 161.683 352.391 164.506ZM293.077 144.75L296.021 147.452L292.133 157.963L288.245 168.474L286.417 167.173C280.769 163.155 275.84 152.787 275.462 144.13C275.197 138.073 275.759 136.525 278.027 137.063C282.137 138.037 290.315 142.214 293.077 144.75ZM309.856 161.901C310.732 163.187 306.075 181.544 303.31 187.701L302.452 189.613L298.496 183.082C291.255 171.124 291.584 173.462 295.635 162.723C297.59 157.545 299.326 153.257 299.492 153.193C299.847 153.059 309.167 160.89 309.856 161.901ZM337.48 184.318C343.53 189.939 345.507 199.764 343.845 215.941C343.282 221.419 343.437 225.887 344.365 230.953C345.092 234.92 345.534 239.26 345.347 240.596C344.985 243.188 335.14 271.216 334.508 271.454C334.302 271.532 333.485 269.843 332.693 267.701C331.128 263.474 331.6 260.203 334.847 252.765C338.049 245.429 338.386 241.642 336.391 235.403C334.368 229.075 334.656 224.5 337.627 215.738C339.636 209.811 339.375 208.592 334.36 200.515C332.438 197.419 330.24 193.257 329.476 191.264C328.108 187.697 326.669 180.125 327.154 179.044C327.586 178.082 334.654 181.693 337.48 184.318ZM266.315 227.891C267.292 229.497 267.922 231.219 267.716 231.717C266.756 234.033 256.852 240.098 253.057 240.692C251.137 240.992 250.884 240.859 250.121 239.134C248.793 236.136 248.78 229.513 250.096 226.582C251.437 223.597 254.752 219.863 257.755 217.954L259.72 216.706L262.13 220.838C263.455 223.112 265.339 226.285 266.315 227.891ZM724.52 433.792C719.197 438.003 708.364 439.726 698.193 437.981C688.478 436.314 671.014 428.942 674.526 427.989C675.31 427.777 682.147 428.729 689.718 430.106C705.038 432.893 707.778 433.105 714.913 432.065C720.221 431.29 724.272 431.182 725.709 431.775C726.381 432.053 726.085 432.555 724.52 433.792ZM641.126 416.292C641.521 417.492 642.593 423.142 643.508 428.847C644.424 434.552 645.936 440.668 646.87 442.437C648.835 446.162 651.919 450.168 652.618 449.905C653.503 449.571 652.811 444.924 651.342 441.34C650.542 439.39 649.914 436.689 649.946 435.34C650.024 431.98 651.005 427.962 651.673 428.261C653.273 428.98 659.178 434.636 662.23 438.373C667.182 444.437 674.436 451.129 683.251 457.765C687.437 460.917 690.736 463.781 690.58 464.129C689.982 465.46 679.555 468.593 674.666 468.912C663.24 469.657 649.842 466.747 641.892 461.795C637.332 458.953 635.067 456.443 632.946 451.879C631.24 448.204 624.472 440.022 622.352 439.071C621.509 438.692 619.03 434.627 616.592 429.625C614.237 424.794 611.284 419.173 610.029 417.131C607.105 412.376 606.784 409.069 609.113 407.689C611.092 406.516 616.103 405.798 620.071 406.119C621.835 406.262 626.396 407.876 631.691 410.231C639.868 413.869 640.451 414.244 641.126 416.292ZM601.427 414.587C602.717 419.626 596.554 427.002 585.864 433.211C580.032 436.598 577.852 436.797 570.906 434.574L566.269 433.089L563.255 441.357C559.435 451.841 557.493 455.694 555.059 457.619C552.783 459.42 547.942 460.675 544.462 460.366L542.004 460.148L542.048 464.788C542.1 470.257 539.577 477.9 536.675 481.061C533.74 484.259 529.693 485.1 525.776 483.326C521.772 481.513 521.327 480.851 521.423 476.86C521.685 466.074 545.046 431.62 560.657 418.998C566.198 414.518 572.003 412.227 581.92 410.602C594.188 408.592 600.207 409.821 601.427 414.587ZM543.887 410.967L546.067 412.373L542.734 418.927C539.024 426.222 536.382 428.967 527.716 434.528C525.046 436.242 522.651 438.113 522.393 438.687C522.135 439.261 521.832 442.135 521.717 445.076C521.018 463.103 516.339 474.43 508.082 478.085L505.106 479.401L503.173 477.134C500.487 473.984 500.256 471.258 502.157 465.12C503.058 462.209 505.471 454.409 507.518 447.787C511.891 433.643 516.341 423.434 522.372 413.709C527.017 406.219 529.212 404.191 531.945 404.867C533.768 405.318 540.306 408.658 543.887 410.967ZM616.945 444.043C617.887 444.898 619.83 446.529 621.263 447.667L623.868 449.735L622.102 453.665C619.96 458.432 616.837 461.152 612.902 461.679C611.326 461.89 607.84 462.361 605.156 462.726C602.471 463.09 600.157 463.651 600.013 463.972C599.869 464.293 600.704 465.56 601.868 466.787C604.33 469.381 605.605 471.89 605.068 473.086C604.86 473.549 601.885 473.923 598.459 473.917C595.032 473.912 592.061 474.279 591.857 474.732C591.245 476.09 594.211 480.74 598.2 484.678L601.945 488.373L599.016 494.821C595.787 501.928 593.316 505.011 589.311 506.927C583.504 509.707 579.047 504.113 579.628 494.774C580.086 487.409 582.042 481.263 587.441 470.233C594.185 456.451 601.707 447.316 609.987 442.854C612.89 441.289 614.15 441.505 616.945 444.043Z" fill="#D35D87"/>
</g>
<defs>
<clipPath id="clip0_68_178">
<rect width="808.408" height="601" fill="white" transform="translate(0.379639)"/>
</clipPath>
</defs>
</svg>
