<svg width="173" height="59" viewBox="0 0 173 59" fill="none" xmlns="http://www.w3.org/2000/svg">
<path d="M1.61448 46.7644L8.26235 13.5251H38.5101L31.8623 46.7644H24.2647L29.8679 18.0361L31.245 19.7931H12.7259L14.8627 18.0361L9.21204 46.7644H1.61448ZM35.1636 46.7644L41.8114 13.5251H55.2496C59.3966 13.5251 62.5939 14.4431 64.8415 16.2792C67.1208 18.0836 68.2604 20.6161 68.2604 23.8768C68.2604 26.6625 67.6115 29.1001 66.3136 31.1894C65.0157 33.2471 63.1479 34.8299 60.7104 35.9379C58.3045 37.0459 55.4396 37.5998 52.1156 37.5998H41.3366L45.4203 34.086L42.9036 46.7644H35.1636ZM45.2303 34.9882L42.5237 31.3319H52.448C54.9805 31.3319 56.9432 30.762 58.3361 29.6224C59.7607 28.4511 60.4729 26.7575 60.4729 24.5415C60.4729 22.9271 59.9348 21.7399 58.8585 20.9802C57.7821 20.1888 56.2626 19.7931 54.2999 19.7931H44.9454L49.0291 16.0418L45.2303 34.9882ZM82.5259 47.3342C79.1703 47.3342 76.2737 46.7327 73.8362 45.5298C71.4303 44.2952 69.5784 42.6016 68.2805 40.4489C66.9826 38.2646 66.3336 35.7479 66.3336 32.8989C66.3336 30.0498 66.8243 27.4223 67.8056 25.0164C68.787 22.5788 70.1799 20.4737 71.9843 18.7009C73.8204 16.8965 75.9888 15.4878 78.4897 14.4748C81.0222 13.4618 83.8238 12.9553 86.8945 12.9553C90.2501 12.9553 93.1308 13.5726 95.5367 14.8072C97.9743 16.0101 99.842 17.7037 101.14 19.888C102.438 22.0407 103.087 24.5415 103.087 27.3906C103.087 30.2397 102.596 32.883 101.615 35.3206C100.633 37.7265 99.2247 39.8316 97.3886 41.6361C95.5842 43.4088 93.4157 44.8017 90.8832 45.8147C88.3824 46.8277 85.5966 47.3342 82.5259 47.3342ZM83.1907 40.7813C85.0584 40.7813 86.7362 40.4489 88.2241 39.7841C89.7436 39.0877 91.0257 38.138 92.0703 36.9351C93.115 35.7321 93.9064 34.3551 94.4446 32.8039C95.0144 31.2211 95.2993 29.5591 95.2993 27.818C95.2993 26.1718 94.9511 24.7315 94.2546 23.4969C93.5582 22.2306 92.5294 21.2493 91.1681 20.5528C89.8386 19.8564 88.1924 19.5082 86.2297 19.5082C84.362 19.5082 82.6842 19.8564 81.1963 20.5528C79.7085 21.2176 78.4264 22.1515 77.3501 23.3544C76.3054 24.5574 75.4982 25.9503 74.9283 27.5331C74.3902 29.0842 74.1211 30.7304 74.1211 32.4715C74.1211 34.1176 74.4693 35.5738 75.1658 36.8401C75.8939 38.0747 76.9227 39.0402 78.2523 39.7367C79.6135 40.4331 81.2596 40.7813 83.1907 40.7813ZM103.272 46.7644L109.302 16.5641L112.009 19.6981H102.037L103.272 13.5251H117.612L110.964 46.7644H103.272ZM126.9 47.3342C124.431 47.3342 122.294 46.8435 120.49 45.8622C118.717 44.8492 117.34 43.4088 116.358 41.5411C115.377 39.6417 114.886 37.3783 114.886 34.7508C114.886 31.7434 115.298 28.926 116.121 26.2985C116.976 23.671 118.163 21.3601 119.682 19.3657C121.202 17.3397 123.022 15.7727 125.143 14.6647C127.296 13.5251 129.654 12.9553 132.218 12.9553C134.688 12.9553 136.809 13.4618 138.581 14.4748C140.386 15.4561 141.779 16.8807 142.76 18.7484C143.741 20.6161 144.232 22.8796 144.232 25.5387C144.232 28.5461 143.805 31.3635 142.95 33.991C142.127 36.6185 140.956 38.9452 139.436 40.9713C137.917 42.9656 136.096 44.5326 133.975 45.6723C131.854 46.7802 129.496 47.3342 126.9 47.3342ZM127.612 40.8288C129.069 40.8288 130.351 40.354 131.459 39.4043C132.567 38.4229 133.485 37.1567 134.213 35.6055C134.972 34.0543 135.542 32.4082 135.922 30.6671C136.302 28.926 136.492 27.2798 136.492 25.7287C136.492 23.5444 136.049 21.9615 135.162 20.9802C134.276 19.9672 133.057 19.4607 131.506 19.4607C130.05 19.4607 128.768 19.9513 127.66 20.9327C126.552 21.8824 125.618 23.1328 124.858 24.684C124.13 26.2352 123.576 27.8813 123.196 29.6224C122.816 31.3635 122.626 33.0097 122.626 34.5608C122.626 36.7135 123.07 38.2963 123.956 39.3093C124.874 40.3223 126.093 40.8288 127.612 40.8288ZM154.334 47.3342C151.864 47.3342 149.728 46.8435 147.923 45.8622C146.15 44.8492 144.773 43.4088 143.792 41.5411C142.811 39.6417 142.32 37.3783 142.32 34.7508C142.32 31.7434 142.731 28.926 143.555 26.2985C144.409 23.671 145.596 21.3601 147.116 19.3657C148.635 17.3397 150.456 15.7727 152.577 14.6647C154.729 13.5251 157.088 12.9553 159.652 12.9553C162.121 12.9553 164.242 13.4618 166.015 14.4748C167.819 15.4561 169.212 16.8807 170.194 18.7484C171.175 20.6161 171.666 22.8796 171.666 25.5387C171.666 28.5461 171.238 31.3635 170.383 33.991C169.56 36.6185 168.389 38.9452 166.87 40.9713C165.35 42.9656 163.53 44.5326 161.409 45.6723C159.288 46.7802 156.929 47.3342 154.334 47.3342ZM155.046 40.8288C156.502 40.8288 157.784 40.354 158.892 39.4043C160 38.4229 160.918 37.1567 161.646 35.6055C162.406 34.0543 162.976 32.4082 163.356 30.6671C163.736 28.926 163.926 27.2798 163.926 25.7287C163.926 23.5444 163.482 21.9615 162.596 20.9802C161.71 19.9672 160.491 19.4607 158.94 19.4607C157.483 19.4607 156.201 19.9513 155.093 20.9327C153.985 21.8824 153.052 23.1328 152.292 24.684C151.564 26.2352 151.01 27.8813 150.63 29.6224C150.25 31.3635 150.06 33.0097 150.06 34.5608C150.06 36.7135 150.503 38.2963 151.39 39.3093C152.308 40.3223 153.526 40.8288 155.046 40.8288Z" fill="#CE7174"/>
</svg>
