<svg width="355" height="468" viewBox="0 0 355 468" fill="none" xmlns="http://www.w3.org/2000/svg">
<path fill-rule="evenodd" clip-rule="evenodd" d="M211.798 0.37929C209.155 1.24139 206.201 3.03715 204.58 4.76824C203.668 5.74168 197.626 15.1733 191.153 25.7279L179.383 44.9177L176.654 43.6994C173.809 42.429 160.353 36.2406 147.175 30.1418C142.951 28.1869 138.568 26.2819 137.436 25.9087C134.717 25.0121 128.396 25.4342 125.987 26.6727C119.369 30.0765 117.64 33.4714 115.455 47.363C114.584 52.9035 112.986 63.0122 111.904 69.8268L109.938 82.2169L104.323 81.8951C92.1753 81.1989 66.0167 80.3761 63.5531 80.6131C58.4521 81.104 52.8628 85.2926 50.7504 90.2085C48.96 94.3732 49.211 98.2993 51.9771 109.396C57.4828 131.484 59.9575 142.56 59.4776 142.971C59.2043 143.205 55.0478 144.854 50.2408 146.634C23.6156 156.498 17.0642 159.05 15.2055 160.281C8.93075 164.437 6.59427 173.934 10.2216 180.537C10.9939 181.942 17.3328 190.966 24.3073 200.589C31.2824 210.212 36.9914 218.207 36.9941 218.355C36.9962 218.504 30.2966 224.827 22.1054 232.406C3.85889 249.289 2.00231 251.252 0.822677 254.908C-0.992065 260.532 0.24479 266.622 4.04642 270.781C5.3177 272.171 12.743 277.065 25.0802 284.645C35.5682 291.088 44.3045 296.523 44.4946 296.722C44.6848 296.921 43.298 300.425 41.4134 304.507C39.5287 308.59 36.7171 314.674 35.1651 318.027C25.1029 339.772 25.7359 338.177 25.4806 342.416C25.1448 347.998 26.5109 351.512 30.3989 355.068C33.9388 358.307 35.8764 358.973 46.7977 360.707C62.1579 363.147 81.7551 366.393 81.8997 366.521C81.9776 366.59 81.6576 376.167 81.1894 387.801C80.7206 399.436 80.4483 410.419 80.5844 412.209C81.0336 418.123 85.4947 424.043 90.8865 425.882C95.0128 427.289 98.9936 426.934 110.418 424.138C135.556 417.985 142.435 416.459 142.869 416.941C143.116 417.215 144.641 421.018 146.259 425.392C147.876 429.766 150.787 437.639 152.728 442.888C154.669 448.137 156.841 454.003 157.556 455.924C159.998 462.487 164.104 466.382 169.837 467.573C175.712 468.794 179.149 467.597 187.72 461.344C206.143 447.904 217.338 439.845 217.867 439.643C218.197 439.516 225.548 447.036 234.203 456.355C252.355 475.898 252.902 460.378 260.001 460.311C264.472 460.269 267.558 459.096 270.809 456.202C271.935 455.201 277.456 462.71 284.412 451.371C290.851 440.873 296.296 432.098 296.51 431.87C296.85 431.51 302.608 434.074 332.814 448.033C337.154 450.038 339.447 450.783 341.892 450.979C346.445 451.345 350.442 450.012 353.766 447.02C358.189 443.041 358.605 441.647 362.207 418.764C363.974 407.537 365.568 397.457 365.749 396.363C366.148 393.954 363.671 394.066 391.513 395.199C406.623 395.813 412.348 395.874 414.081 395.438C421.028 393.692 425.669 388.473 426.611 381.349C426.91 379.09 426.406 376.341 423.452 364.118C421.519 356.119 419.061 345.945 417.99 341.51C416.918 337.074 416.151 333.362 416.284 333.26C416.417 333.157 425.465 329.774 436.39 325.741C447.315 321.707 457.228 317.956 458.418 317.404C461.262 316.087 464.668 312.661 466.172 309.608C467.877 306.143 467.883 299.687 466.184 296.289C465.528 294.977 459.152 285.838 452.015 275.98C444.878 266.122 439.038 257.985 439.038 257.9C439.038 257.813 446.697 250.631 456.056 241.939C471.052 228.014 473.236 225.784 474.431 223.171C477.072 217.398 476.352 211.189 472.479 206.334C470.78 204.205 467.231 201.801 451.543 192.153C441.152 185.764 432.314 180.276 431.901 179.959C431.279 179.48 432.514 176.435 439.119 162.15C450.164 138.265 450.671 137.009 450.682 133.484C450.697 128.993 449.441 125.527 446.689 122.464C443.003 118.36 440.439 117.395 428.18 115.497C412.024 112.996 394.297 110.105 394.129 109.945C394.046 109.866 394.368 100.167 394.845 88.391C395.321 76.6149 395.595 65.6531 395.452 64.0307C394.96 58.452 391.005 53.0578 385.677 50.6985C381.769 48.9679 377.725 49.2913 365.41 52.3198C340.189 58.522 334.106 59.9159 333.418 59.6519C333.019 59.4986 332.09 57.6249 331.355 55.4888C326.842 42.376 317.012 17.0481 315.69 15.1245C312.922 11.0977 307.798 8.39371 302.936 8.39371C297.756 8.39371 296.095 9.347 276.457 23.5917L257.688 37.2061L255.534 34.8281C254.349 33.5202 247.195 25.8101 239.636 17.6938C227.757 4.94002 225.493 2.7535 222.951 1.577C219.844 0.140172 214.344 -0.450464 211.798 0.37929Z" fill="#F2ACAE"/>
</svg>
