<svg width="432" height="454" viewBox="0 0 432 454" fill="none" xmlns="http://www.w3.org/2000/svg">
<path d="M210 23C210 10.2974 220.297 0 233 0H409C421.703 0 432 10.2975 432 23V59C432 71.7026 421.703 82 409 82H332.054C325.067 82 318.459 85.1761 314.094 90.632L297.728 111.091C295.312 114.11 290.713 114.09 288.324 111.049L272.407 90.7901C268.046 85.2404 261.379 82 254.321 82H233C220.297 82 210 71.7025 210 59V23Z" fill="#1A7674"/>
<path d="M257.014 22.4L254.494 35H252.172L252.874 31.49H249.76H249.634L246.592 35H243.982L247.492 31.094C246.832 30.806 246.328 30.386 245.98 29.834C245.632 29.282 245.458 28.622 245.458 27.854C245.458 26.762 245.722 25.808 246.25 24.992C246.79 24.164 247.534 23.528 248.482 23.084C249.43 22.628 250.516 22.4 251.74 22.4H257.014ZM251.434 24.38C250.306 24.38 249.43 24.662 248.806 25.226C248.182 25.778 247.87 26.552 247.87 27.548C247.87 28.196 248.074 28.7 248.482 29.06C248.89 29.408 249.496 29.582 250.3 29.582H253.27L254.296 24.38H251.434ZM274.253 24.38H270.059L267.971 35H265.649L267.737 24.38H263.615L264.011 22.4H274.667L274.253 24.38ZM280.308 35.18C279.06 35.18 277.98 34.958 277.068 34.514C276.168 34.058 275.478 33.428 274.998 32.624C274.518 31.808 274.278 30.866 274.278 29.798C274.278 28.382 274.596 27.098 275.232 25.946C275.88 24.794 276.792 23.888 277.968 23.228C279.144 22.556 280.488 22.22 282 22.22C283.248 22.22 284.322 22.448 285.222 22.904C286.134 23.348 286.83 23.978 287.31 24.794C287.79 25.598 288.03 26.534 288.03 27.602C288.03 29.018 287.706 30.302 287.058 31.454C286.422 32.606 285.516 33.518 284.34 34.19C283.164 34.85 281.82 35.18 280.308 35.18ZM280.506 33.128C281.526 33.128 282.426 32.888 283.206 32.408C283.998 31.916 284.604 31.262 285.024 30.446C285.456 29.618 285.672 28.718 285.672 27.746C285.672 26.69 285.33 25.85 284.646 25.226C283.974 24.59 283.02 24.272 281.784 24.272C280.764 24.272 279.858 24.518 279.066 25.01C278.286 25.49 277.686 26.144 277.266 26.972C276.846 27.788 276.636 28.682 276.636 29.654C276.636 30.71 276.972 31.556 277.644 32.192C278.316 32.816 279.27 33.128 280.506 33.128ZM301.367 22.4L298.847 35H296.543L297.479 30.302C296.291 30.71 295.175 30.914 294.131 30.914C292.715 30.914 291.629 30.614 290.873 30.014C290.117 29.414 289.739 28.562 289.739 27.458C289.739 27.17 289.781 26.798 289.865 26.342L290.657 22.4H292.961L292.187 26.234C292.127 26.534 292.097 26.786 292.097 26.99C292.097 28.262 292.895 28.898 294.491 28.898C295.631 28.898 296.771 28.646 297.911 28.142L299.063 22.4H301.367ZM316.094 22.4L313.574 35H311.252L312.314 29.654H305.798L304.736 35H302.396L304.916 22.4H307.256L306.23 27.566H312.746L313.772 22.4H316.094ZM323.444 35.18C322.196 35.18 321.116 34.958 320.204 34.514C319.304 34.058 318.614 33.428 318.134 32.624C317.654 31.808 317.414 30.866 317.414 29.798C317.414 28.382 317.732 27.098 318.368 25.946C319.016 24.794 319.928 23.888 321.104 23.228C322.28 22.556 323.624 22.22 325.136 22.22C326.384 22.22 327.458 22.448 328.358 22.904C329.27 23.348 329.966 23.978 330.446 24.794C330.926 25.598 331.166 26.534 331.166 27.602C331.166 29.018 330.842 30.302 330.194 31.454C329.558 32.606 328.652 33.518 327.476 34.19C326.3 34.85 324.956 35.18 323.444 35.18ZM323.642 33.128C324.662 33.128 325.562 32.888 326.342 32.408C327.134 31.916 327.74 31.262 328.16 30.446C328.592 29.618 328.808 28.718 328.808 27.746C328.808 26.69 328.466 25.85 327.782 25.226C327.11 24.59 326.156 24.272 324.92 24.272C323.9 24.272 322.994 24.518 322.202 25.01C321.422 25.49 320.822 26.144 320.402 26.972C319.982 27.788 319.772 28.682 319.772 29.654C319.772 30.71 320.108 31.556 320.78 32.192C321.452 32.816 322.406 33.128 323.642 33.128ZM341.372 22.4L343.478 26.612L347.312 22.4H350.102L344.648 28.448L347.87 35H345.17L342.83 30.41L338.618 35H335.846L341.732 28.538L338.744 22.4H341.372ZM355.718 35.18C354.47 35.18 353.39 34.958 352.478 34.514C351.578 34.058 350.888 33.428 350.408 32.624C349.928 31.808 349.688 30.866 349.688 29.798C349.688 28.382 350.006 27.098 350.642 25.946C351.29 24.794 352.202 23.888 353.378 23.228C354.554 22.556 355.898 22.22 357.41 22.22C358.658 22.22 359.732 22.448 360.632 22.904C361.544 23.348 362.24 23.978 362.72 24.794C363.2 25.598 363.44 26.534 363.44 27.602C363.44 29.018 363.116 30.302 362.468 31.454C361.832 32.606 360.926 33.518 359.75 34.19C358.574 34.85 357.23 35.18 355.718 35.18ZM355.916 33.128C356.936 33.128 357.836 32.888 358.616 32.408C359.408 31.916 360.014 31.262 360.434 30.446C360.866 29.618 361.082 28.718 361.082 27.746C361.082 26.69 360.74 25.85 360.056 25.226C359.384 24.59 358.43 24.272 357.194 24.272C356.174 24.272 355.268 24.518 354.476 25.01C353.696 25.49 353.096 26.144 352.676 26.972C352.256 27.788 352.046 28.682 352.046 29.654C352.046 30.71 352.382 31.556 353.054 32.192C353.726 32.816 354.68 33.128 355.916 33.128ZM376.777 22.4L374.257 35H371.953L372.889 30.302C371.701 30.71 370.585 30.914 369.541 30.914C368.125 30.914 367.039 30.614 366.283 30.014C365.527 29.414 365.149 28.562 365.149 27.458C365.149 27.17 365.191 26.798 365.275 26.342L366.067 22.4H368.371L367.597 26.234C367.537 26.534 367.507 26.786 367.507 26.99C367.507 28.262 368.305 28.898 369.901 28.898C371.041 28.898 372.181 28.646 373.321 28.142L374.473 22.4H376.777ZM391.162 22.4L383.638 32.66C383.002 33.536 382.318 34.19 381.586 34.622C380.866 35.042 380.122 35.252 379.354 35.252C378.73 35.252 378.106 35.114 377.482 34.838L378.274 33.056C378.67 33.188 379.036 33.254 379.372 33.254C380.2 33.254 380.944 32.84 381.604 32.012L381.928 31.67L378.796 22.4H381.226L383.494 29.744L388.804 22.4H391.162ZM258.508 47.4L255.988 60H253.666L254.728 54.654H248.212L247.15 60H244.81L247.33 47.4H249.67L248.644 52.566H255.16L256.186 47.4H258.508ZM268.594 57.084H262.258L260.44 60H257.938L266.128 47.4H268.45L271.582 60H269.26L268.594 57.084ZM268.162 55.248L266.884 49.704L263.41 55.248H268.162ZM284.789 47.22C285.845 47.22 286.775 47.448 287.579 47.904C288.383 48.348 289.001 48.972 289.433 49.776C289.865 50.58 290.081 51.498 290.081 52.53C290.081 53.934 289.721 55.224 289.001 56.4C288.281 57.564 287.315 58.488 286.103 59.172C284.891 59.844 283.595 60.18 282.215 60.18C281.171 60.18 280.247 60 279.443 59.64C278.639 59.28 278.009 58.758 277.553 58.074L279.317 56.634C280.049 57.63 281.111 58.128 282.503 58.128C283.619 58.128 284.627 57.798 285.527 57.138C286.427 56.466 287.051 55.596 287.399 54.528H281.711L282.071 52.674H287.669C287.633 51.654 287.309 50.832 286.697 50.208C286.085 49.584 285.269 49.272 284.249 49.272C282.881 49.272 281.627 49.77 280.487 50.766L279.299 49.326C280.019 48.642 280.847 48.12 281.783 47.76C282.731 47.4 283.733 47.22 284.789 47.22ZM302.396 49.38H298.202L296.114 60H293.792L295.88 49.38H291.758L292.154 47.4H302.81L302.396 49.38ZM308.45 60.18C307.202 60.18 306.122 59.958 305.21 59.514C304.31 59.058 303.62 58.428 303.14 57.624C302.66 56.808 302.42 55.866 302.42 54.798C302.42 53.382 302.738 52.098 303.374 50.946C304.022 49.794 304.934 48.888 306.11 48.228C307.286 47.556 308.63 47.22 310.142 47.22C311.39 47.22 312.464 47.448 313.364 47.904C314.276 48.348 314.972 48.978 315.452 49.794C315.932 50.598 316.172 51.534 316.172 52.602C316.172 54.018 315.848 55.302 315.2 56.454C314.564 57.606 313.658 58.518 312.482 59.19C311.306 59.85 309.962 60.18 308.45 60.18ZM308.648 58.128C309.668 58.128 310.568 57.888 311.348 57.408C312.14 56.916 312.746 56.262 313.166 55.446C313.598 54.618 313.814 53.718 313.814 52.746C313.814 51.69 313.472 50.85 312.788 50.226C312.116 49.59 311.162 49.272 309.926 49.272C308.906 49.272 308 49.518 307.208 50.01C306.428 50.49 305.828 51.144 305.408 51.972C304.988 52.788 304.778 53.682 304.778 54.654C304.778 55.71 305.114 56.556 305.786 57.192C306.458 57.816 307.412 58.128 308.648 58.128ZM328.517 49.38H324.323L322.235 60H319.913L322.001 49.38H317.879L318.275 47.4H328.931L328.517 49.38ZM341.198 53.538L344.402 60H341.9L339.272 54.672H336.806L335.744 60H333.404L335.924 47.4H338.264L337.202 52.674H339.488L344.168 47.4H346.796L341.198 53.538ZM359.521 47.4L351.997 57.66C351.361 58.536 350.677 59.19 349.945 59.622C349.225 60.042 348.481 60.252 347.713 60.252C347.089 60.252 346.465 60.114 345.841 59.838L346.633 58.056C347.029 58.188 347.395 58.254 347.731 58.254C348.559 58.254 349.303 57.84 349.963 57.012L350.287 56.67L347.155 47.4H349.585L351.853 54.744L357.163 47.4H359.521ZM365.954 47.4C367.478 47.4 368.654 47.736 369.482 48.408C370.322 49.068 370.742 49.998 370.742 51.198C370.742 52.266 370.496 53.19 370.004 53.97C369.524 54.738 368.828 55.332 367.916 55.752C367.016 56.16 365.954 56.364 364.73 56.364H361.652L360.914 60H358.574L361.094 47.4H365.954ZM364.82 54.384C365.96 54.384 366.836 54.132 367.448 53.628C368.072 53.112 368.384 52.374 368.384 51.414C368.384 50.742 368.15 50.238 367.682 49.902C367.226 49.554 366.566 49.38 365.702 49.38H363.038L362.048 54.384H364.82ZM378.114 60.18C376.854 60.18 375.762 59.958 374.838 59.514C373.926 59.058 373.224 58.422 372.732 57.606C372.24 56.79 371.994 55.854 371.994 54.798C371.994 53.382 372.318 52.098 372.966 50.946C373.614 49.794 374.526 48.888 375.702 48.228C376.878 47.556 378.228 47.22 379.752 47.22C380.844 47.22 381.804 47.4 382.632 47.76C383.472 48.12 384.108 48.642 384.54 49.326L382.848 50.748C382.14 49.764 381.054 49.272 379.59 49.272C378.546 49.272 377.628 49.512 376.836 49.992C376.044 50.472 375.432 51.126 375 51.954C374.568 52.77 374.352 53.67 374.352 54.654C374.352 55.722 374.694 56.568 375.378 57.192C376.062 57.816 377.034 58.128 378.294 58.128C379.746 58.128 380.94 57.642 381.876 56.67L383.244 58.146C382.644 58.83 381.906 59.34 381.03 59.676C380.154 60.012 379.182 60.18 378.114 60.18ZM386.886 47.4H389.568L387.444 55.824H385.662L386.886 47.4ZM385.896 60.126C385.5 60.126 385.17 60 384.906 59.748C384.654 59.496 384.528 59.19 384.528 58.83C384.528 58.398 384.672 58.044 384.96 57.768C385.248 57.48 385.602 57.336 386.022 57.336C386.418 57.336 386.742 57.462 386.994 57.714C387.258 57.954 387.39 58.26 387.39 58.632C387.39 59.052 387.246 59.406 386.958 59.694C386.67 59.982 386.316 60.126 385.896 60.126Z" fill="white"/>
<path fill-rule="evenodd" clip-rule="evenodd" d="M272.432 125.09C255.273 126.226 234.917 133.633 218.529 144.706C208.215 151.674 199.655 159.888 192.598 169.587C191.422 171.203 188.762 174.8 186.686 177.579C174.49 193.911 169.415 204.04 166.681 217.5C165.3 224.305 164.812 230.219 164.806 240.221C164.802 247.621 165.045 251.316 165.863 256.26C167.154 264.063 169.595 270.948 173.362 277.411C174.647 279.615 177.708 283.817 180.792 287.61C181.593 288.594 183.354 290.916 184.707 292.769C187.757 296.948 189.956 299.213 194.311 302.661C203.075 309.599 209.54 313.822 216.33 317.046C226.778 322.005 233.727 325.211 236.245 326.234L239.176 327.425L239.025 328.13C238.941 328.518 238.861 330.874 238.845 333.365L238.818 337.894L238.291 337.766C238.001 337.696 235.076 337.331 231.79 336.955C222.765 335.923 220.869 335.427 212.348 331.872C208.418 330.233 203.728 328.336 201.924 327.656C198.009 326.181 186.344 322.984 180.112 321.679C175.946 320.806 175.28 320.59 170.163 318.44C161.501 314.8 158.935 312.741 156.499 307.474C153.527 301.048 148.079 294.948 142.735 292.063C138.508 289.78 131.788 289.152 127.14 290.603C123.921 291.608 120.472 294.3 119.065 296.905C118.133 298.629 117.778 301.021 118.139 303.135C118.494 305.215 119.168 306.473 121.139 308.738C124.534 312.641 126.49 316.276 126.873 319.396C127.522 324.684 127.695 325.135 129.928 327.358C132.995 330.412 136.196 331.334 140.876 330.51C142.32 330.256 142.535 330.257 142.178 330.52C141.493 331.022 142.035 330.883 143.214 330.254C143.811 329.935 144.876 329.451 145.582 329.178L146.865 328.683L149.068 331.11C150.28 332.444 152.993 335.241 155.098 337.323C158.066 340.261 159.648 341.611 162.153 343.346C165.69 345.795 164.921 345.459 181.896 351.987C190.355 355.241 197.167 358.223 202.861 361.164C205.567 362.562 210.468 364.867 213.753 366.287C217.039 367.707 221.677 369.793 224.06 370.923C227.57 372.586 229.217 373.21 232.727 374.206C235.111 374.882 237.868 375.509 238.854 375.6L240.648 375.764L240.804 377.333C240.89 378.196 240.851 382.022 240.717 385.836C240.584 389.649 240.412 395.784 240.337 399.469C240.192 406.504 239.893 411.616 238.901 424.032C238.439 429.826 238.279 433.685 238.205 440.838C238.152 445.944 238.084 450.995 238.053 452.061L237.998 454L238.701 453.892C239.087 453.832 240.423 453.717 241.669 453.637L243.935 453.489L243.809 447.81C243.721 443.839 243.797 440.399 244.063 436.372C245.292 417.721 246.344 399.006 246.467 393.592C246.752 381.112 245.802 364.838 244.341 357.168C244.063 355.71 244.045 354.084 244.234 347.531C244.428 340.77 244.562 338.945 245.176 334.712C245.569 331.997 245.922 329.743 245.96 329.703C245.998 329.663 246.647 329.803 247.401 330.014C250.08 330.763 256.549 332.003 259.666 332.366C261.405 332.568 263.25 332.815 263.765 332.915L264.702 333.096L263.297 333.415C261.491 333.824 258.92 335.102 257.487 336.302C254.645 338.682 253.365 344.381 254.147 351.158C254.465 353.906 254.666 354.745 255.494 356.773C257.167 360.873 258.482 362.188 261.647 362.924C262.931 363.223 263.626 363.242 265.706 363.033C269.453 362.658 275.789 361.68 277.091 361.278C277.72 361.083 279.123 360.756 280.206 360.552L282.177 360.182L282.625 360.753C284.746 363.458 293.016 368.561 299.546 371.192C305.079 373.422 311.542 375.759 315.299 376.888C318.125 377.737 322.875 379.456 326.075 380.788C326.59 381.002 329.243 382.279 331.971 383.626C334.699 384.973 337.228 386.135 337.593 386.207C338.116 386.312 338.489 386.157 339.368 385.469C340.796 384.35 341.204 383.143 340.539 382.001C339.923 380.943 335.296 378.657 326.543 375.088C316.76 371.098 313.922 370.026 301.245 365.527C297.563 364.221 291.845 361.475 288.62 359.465C287.427 358.721 286.333 358.225 285.675 358.13L284.629 357.978L285.473 357.04C286.034 356.416 286.565 355.396 287.058 353.993C287.736 352.062 287.786 351.726 287.648 349.997C287.565 348.959 287.349 347.442 287.168 346.626C286.759 344.787 286.759 344.812 287.215 345.192C287.826 345.702 295.718 345.548 299.558 344.952C303.621 344.321 311.133 344.057 318.021 344.303C325.113 344.556 334.874 344.366 336.187 343.948C337.233 343.616 338.138 342.683 338.138 341.937C338.138 341.26 337.165 339.933 336.373 339.53C335.786 339.232 333.644 339.167 322.45 339.106C310.519 339.042 308.785 339.081 304.765 339.507C302.313 339.767 298.041 340.047 295.271 340.129C290.725 340.265 290.121 340.331 289.064 340.812C287.837 341.369 286.375 342.618 286.363 343.117C286.36 343.277 285.954 342.562 285.462 341.528C284.97 340.494 284.198 339.039 283.748 338.295C282.847 336.808 280.318 334.048 279.269 333.409L278.603 333.002L280.788 332.847C290.86 332.133 296.643 331.181 305.228 328.826C312.866 326.73 319.644 324.107 326.96 320.414C329.508 319.128 331.629 318.117 331.674 318.167C331.885 318.403 335.498 329.75 337.167 335.417C340.408 346.418 342.712 355.61 344.09 363.036C346.334 375.124 348.916 390.884 349.808 397.938L350.671 404.757L350.539 428.145C350.439 446.039 350.338 451.745 350.112 452.436C349.95 452.933 349.851 453.373 349.892 453.414C350.132 453.651 354.704 453.917 355.251 453.726L355.881 453.506L356.026 449.581C356.363 440.46 356.474 412.632 356.194 407.417C355.631 396.922 353.941 384.036 351.138 368.861C348.767 356.03 343.989 336.457 341.738 330.363C338.967 322.857 337.847 320.243 336.617 318.398C335.908 317.335 335.331 316.287 335.336 316.069C335.341 315.831 336.349 314.997 337.854 313.986C345.725 308.696 353.236 301.009 357.33 294.054C361.839 286.393 365.774 275.482 367.885 264.784C369.888 254.64 370.357 246.975 369.757 234.227C368.646 210.633 364.349 191.905 356.193 175.111C351.538 165.526 347.029 159.063 341.118 153.502C330.586 143.594 315.987 135.163 299.839 129.665C289.663 126.199 280.011 124.588 272.432 125.09ZM284.027 130.903C306.738 134.323 328.147 145.177 340.163 159.363C343.286 163.05 350.424 173.582 352.828 178.05C356.517 184.905 359.783 194.095 363.022 206.726C364.424 212.197 364.437 212.279 364.399 215.305C364.379 216.986 364.522 222.909 364.718 228.468C365.412 248.123 365.078 257.103 363.312 266.19C361.178 277.17 356.305 287.364 348.251 297.691C345.48 301.244 339.755 307.133 336.733 309.539C331.46 313.735 328.028 315.601 319.431 318.946C305.191 324.486 295.028 327.072 283.793 328.016C280.031 328.332 269.339 328.329 265.405 328.012C251.12 326.858 239.038 323.777 225.817 317.915C219.965 315.32 213.786 311.841 214.107 311.321C214.185 311.193 214.134 311.089 213.993 311.089C213.53 311.089 209 308.92 206.779 307.636C200.659 304.095 197.08 300.71 188.563 290.404C181.275 281.585 180.332 280.231 177.46 274.463C173.699 266.909 170.955 258.229 169.694 249.902C169.202 246.648 169.197 246.367 169.486 238.34C169.703 232.3 169.714 229.687 169.527 228.509C169.281 226.959 169.311 226.751 170.418 222.354C173.465 210.262 177.395 200.633 183.417 190.507C194.403 172.033 206.938 158.641 223.358 147.833C237.732 138.373 252.589 132.613 267.63 130.672C270.884 130.252 280.616 130.389 284.027 130.903ZM250.209 151.782C250.026 152.073 249.576 152.946 249.208 153.721C247.647 157.013 241.96 161.287 235.802 163.798C234.277 164.42 232.336 164.633 224.763 165.007C220.95 165.196 219.368 165.479 217.462 166.316C216.439 166.765 215.507 167.002 214.759 167.002C212.868 167.002 211.032 167.633 207.804 169.392C200.523 173.362 194.7 178.108 189.564 184.258C186.836 187.525 185.57 189.422 183.985 192.616C180.964 198.705 179.859 203.451 179.632 211.319C179.474 216.829 179.715 220.112 180.628 224.856C181.292 228.306 181.734 229.69 182.944 232.1C184.997 236.189 187.085 239.068 189.418 241.026L190.732 242.13L187.778 242.401C183.97 242.751 182.511 243.191 181.375 244.331C180.384 245.326 180.267 245.99 180.959 246.685C181.553 247.281 182.288 247.277 185.256 246.66C189.567 245.764 193.66 246.346 197.889 248.455C201.609 250.309 203.99 252.467 205.811 255.632C206.456 256.755 207.237 257.911 207.546 258.202C208.324 258.936 209.262 258.885 209.96 258.071C210.441 257.509 210.504 257.253 210.382 256.356C210.189 254.945 209.352 253.181 208.162 251.679L207.184 250.445H211.628C219.995 250.445 225.036 249.373 231.205 246.28C235.764 243.994 239.852 240.936 244.198 236.562C250.849 229.868 256.948 220.582 258.255 215.16C259.113 211.602 259.479 208.051 259.486 203.2C259.499 195.606 258.582 190.846 256.158 185.924C254.719 182.999 253.547 181.279 251.557 179.167C247.034 174.37 240.84 170.559 235.248 169.134L233.615 168.718L234.712 168.567C236.359 168.341 239.64 167.51 240.975 166.983C242.462 166.395 246.342 163.753 248.704 161.721C250.113 160.51 250.869 159.597 252.154 157.559C254.566 153.735 254.623 152.764 252.492 151.818C250.919 151.12 250.628 151.115 250.209 151.782ZM280.683 153.4C278.639 154.548 279.595 161.285 282.579 166.767C284.62 170.516 287.244 173.314 291.064 175.811C292.293 176.615 294.162 177.915 295.217 178.7C297.197 180.173 298.668 180.849 301.453 181.564L303.067 181.979L301.336 182.402C299.031 182.966 296.156 184.145 294.313 185.28C292.056 186.671 283.979 192.44 281.451 194.468C275.371 199.343 269.144 206.757 266.022 212.837C263.275 218.187 262.485 221.216 262.313 227.058C262.177 231.676 262.526 235.745 263.434 240.151C264.628 245.944 265.802 248.794 268.932 253.501C272.389 258.7 275.311 262.114 278.258 264.397C281.553 266.949 287.202 270.258 289.389 270.915L290.358 271.206L288.283 271.732C284.797 272.617 283.09 273.743 283.09 275.161C283.09 275.668 283.302 276.144 283.72 276.582C284.237 277.124 284.548 277.241 285.466 277.241C286.807 277.241 298.618 275.803 303.704 275.02C310.428 273.985 311.772 273.852 315.651 273.843C319.092 273.834 319.696 273.893 321.156 274.382C324.52 275.508 326.572 276.914 328.06 279.113C329.458 281.179 330.748 282.127 332.645 282.483C333.797 282.699 333.948 282.462 333.591 280.994C333.155 279.206 332.698 278.236 331.595 276.762C330.046 274.695 327.586 273.022 325.015 272.288L323.967 271.989L325.489 271.66C330.119 270.66 334.317 268.791 338.025 266.079C346.166 260.126 350.95 255.716 352.416 252.812C352.649 252.351 353.134 250.863 353.493 249.505C354.634 245.194 354.558 239.13 353.231 228.586C352.031 219.042 350.678 213.776 347.357 205.721C345.536 201.303 344.824 200.017 342.439 196.84C340.338 194.04 334.965 188.403 333.339 187.29C332.321 186.594 332.259 186.509 332.868 186.651C334.123 186.943 337.51 188.185 339.284 189.003C341.252 189.911 342.824 190.052 343.767 189.404C344.932 188.604 344.937 188.424 343.835 187.201C341.795 184.935 332.981 181.731 325.489 180.532C324.265 180.336 320.207 179.807 316.471 179.357C303.557 177.802 299.825 176.7 293.83 172.675C287.728 168.577 285.048 164.807 283.196 157.717C282.723 155.907 282.24 154.244 282.123 154.021C281.803 153.414 281.156 153.135 280.683 153.4ZM221.718 171.002C226.727 171.478 232.516 172.92 236.713 174.735C243.376 177.618 247.544 180.96 250.811 186.041C253.412 190.086 255.094 198.717 254.636 205.668C254.449 208.493 254.123 210.005 252.849 213.952C250.581 220.98 247.732 225.515 240.737 233.231C238.44 235.765 236.47 237.731 236.478 237.483C236.479 237.437 236.637 236.881 236.829 236.246C238.08 232.108 236.236 229.979 231.242 229.798C228.642 229.705 226.867 230.093 220.898 232.064C217.766 233.098 217.473 233.151 214.382 233.244C209.369 233.394 204.295 232.553 200.743 230.983C199.102 230.257 196.511 228.216 193.957 225.635C192.784 224.45 192.314 224.147 191.131 223.814C189.3 223.298 188.748 223.311 187.43 223.896C186.126 224.474 185.563 225.43 185.162 227.741C185.012 228.607 184.857 229.284 184.818 229.245C184.779 229.205 184.415 226.846 184.008 224.002C182.491 213.389 182.881 204.646 185.14 198.624L185.761 196.971L185.903 201.202C186.057 205.762 186.104 206.136 186.964 209.619C187.934 213.549 189.467 216.755 191.97 220.088C194.636 223.638 197.263 225.572 200.543 226.398C203.042 227.027 209.678 226.962 213.519 226.271C227.715 223.716 238.54 217.539 242.203 209.899C242.761 208.735 243.341 207.262 243.492 206.624C244.279 203.289 243.334 195.746 241.354 189.567C240.626 187.294 238.551 183.092 237.23 181.216C235.278 178.442 233.042 176.991 226.024 173.947C221.067 171.797 218.981 171.247 215.627 171.207C213.261 171.178 213.21 171.167 214.287 170.91C215.52 170.615 217.963 170.645 221.718 171.002ZM216.682 182.135C217.916 182.721 218.793 183.539 219.55 184.811C220.287 186.047 219.788 188.341 218.451 189.869C217.553 190.895 216.102 191.502 214.573 191.492C211.699 191.472 209.54 189.56 209.538 187.033C209.537 185.528 210.012 184.309 211.013 183.251C212.601 181.571 214.645 181.169 216.682 182.135ZM318.149 186.059C320.723 186.558 326.87 188.8 328.565 189.859C329.851 190.662 330.762 191.543 333.454 194.592C337.697 199.399 339.563 202.155 341.905 207.078C343.967 211.412 345.091 214.932 346.362 221.031C347.876 228.3 348.451 232.69 348.599 238.105C348.745 243.451 348.425 246.244 347.345 249.029L346.717 250.649L346.326 249.784C345.846 248.722 345.226 248.147 344.261 247.869C343.175 247.557 342.373 247.888 340.394 249.466C338.985 250.59 338.381 250.92 337.498 251.049C335.713 251.31 331.014 253.16 327.714 254.901C326.04 255.784 324.353 256.672 323.967 256.873C323.142 257.304 319.78 258.102 316.471 258.653C314.489 258.983 313.225 259.015 308.272 258.864C296.332 258.499 292.598 258.099 288.767 256.773C285.42 255.615 284.919 255.35 283.218 253.831C281.589 252.377 280.595 252.089 279.209 252.67C276.956 253.615 276.192 254.934 276.743 256.933C276.877 257.423 276.945 257.866 276.893 257.918C276.736 258.075 274.688 255.168 273.367 252.914C271.65 249.982 269.213 245.024 268.48 242.974C267.359 239.835 266.512 230.196 266.918 225.187C267.398 219.248 268.554 216.15 272.446 210.369C274.747 206.952 277.867 202.83 277.607 203.553C276.616 206.306 275.498 211.096 274.866 215.305C274.433 218.183 274.501 224.754 274.99 227.293C276.391 234.572 282.254 243.937 287.828 247.798C291.543 250.371 294.495 251.386 298.265 251.386C305.24 251.386 315.261 247.323 324.669 240.681C331.096 236.145 335.807 229.446 337.346 222.66C338.165 219.047 337.316 215.025 334.592 209.619C332.008 204.488 328.446 200.315 324.318 197.583C321.552 195.752 313.4 191.706 310.732 190.84C308.905 190.247 308.364 190.185 304.173 190.092C301.66 190.037 298.293 190.104 296.689 190.242C295.085 190.38 293.74 190.459 293.699 190.418C293.658 190.376 295.576 189.531 297.962 188.539C302.874 186.496 304.6 186.111 310.146 185.821C315.415 185.545 315.51 185.548 318.149 186.059ZM233.81 194.717C235.272 195.612 236.666 200.961 236.405 204.673C236.234 207.093 235.928 208.04 234.86 209.453C232.738 212.261 223.989 217.484 220.547 217.997C214.662 218.874 208.102 219.185 206.11 218.681C203.796 218.096 202.548 215.773 202.873 212.656C203.082 210.652 203.549 209.465 204.416 208.732C205.466 207.846 206.323 207.803 209.545 208.471C214.017 209.399 214.208 209.375 218.323 207.336C225.004 204.026 226.321 202.849 228.486 198.247C229.121 196.899 229.887 195.564 230.188 195.281C231.316 194.222 232.66 194.013 233.81 194.717ZM300.476 202.156C301.911 202.647 303.349 204.012 303.679 205.198C304.521 208.221 304.17 210.014 302.421 211.632C298.674 215.098 292.953 212.525 292.934 207.365C292.918 203.201 296.433 200.774 300.476 202.156ZM326.186 209.982C328.156 212.06 328.862 214.755 328.876 220.241C328.884 223.613 328.816 224.421 328.441 225.412C327.072 229.029 323.327 232.684 317.876 235.722C313.131 238.368 309.633 239.025 303.197 238.483C294.986 237.792 291.509 235.399 290.83 229.97C290.384 226.405 291.106 225.666 295.037 225.667C296.39 225.668 298.562 225.811 299.864 225.985C303.314 226.448 304.216 226.076 307.804 222.716C309.997 220.661 311.805 219.294 314.48 217.668C317.637 215.748 318.519 214.953 319.777 212.892C321.628 209.858 322.552 209.079 324.296 209.077C325.189 209.077 325.443 209.198 326.186 209.982ZM234.133 284.761C233.167 284.851 230.637 285.374 228.511 285.925C224.086 287.071 223.687 287.324 222.88 289.488C222.395 290.789 222.388 290.906 222.749 291.46C223.06 291.936 223.325 292.05 224.129 292.05C225.117 292.05 225.729 291.666 226.472 290.58C226.627 290.353 227.093 290.071 227.507 289.952C228.253 289.739 228.265 289.749 228.867 291.068C230.056 293.674 235.154 297.955 241.16 301.391C245.188 303.695 250.533 305.344 256.855 306.231C268.084 307.809 277.808 307.886 282.307 306.433C283.9 305.918 285.037 305.339 286.729 304.18C288.539 302.94 289.074 302.675 289.334 302.892C289.872 303.34 292.783 302.973 295.923 302.06C298.056 301.44 299.375 300.884 301.024 299.91C303.549 298.419 304.093 297.805 303.766 296.817C303.58 296.253 303.409 296.152 302.515 296.084C301.945 296.041 300.359 296.191 298.991 296.417L296.503 296.83L292.315 295.399C287.529 293.763 286.25 293.46 284.127 293.46C282.832 293.46 282.138 293.27 279.395 292.164C276.434 290.97 271.875 289.678 264.506 287.946C262.327 287.433 261.418 287.349 258.098 287.349C255.5 287.349 253.794 287.46 252.906 287.687C250.823 288.22 244.381 288.616 243.32 288.277C241.132 287.577 238.37 286.256 237.37 285.432C236.767 284.935 236.188 284.544 236.082 284.564C235.976 284.583 235.099 284.672 234.133 284.761ZM236.362 290.407C241.251 293.584 241.242 293.583 249.418 292.731C255.06 292.143 260.064 292.215 265.171 292.959C269.265 293.555 271.673 294.252 275.497 295.95L278.499 297.283L282.61 297.581C284.871 297.745 286.745 297.89 286.775 297.903C286.805 297.915 287.041 298.342 287.299 298.851L287.77 299.777L286.074 300.703C285.142 301.213 283.483 301.921 282.388 302.275C281.293 302.63 279.922 303.114 279.343 303.351C277.38 304.152 274.233 304.26 266.459 303.793C262.215 303.538 258.234 303.17 256.652 302.887C252.67 302.172 247.884 300.677 244.591 299.118C241.314 297.565 239.857 296.636 236.155 293.736C233.55 291.695 233.159 291.176 232.891 289.405C232.786 288.716 232.834 288.524 233.111 288.524C233.306 288.524 234.769 289.371 236.362 290.407ZM137.549 294.264C140.099 295.063 146.151 299.638 148.458 302.511C150.064 304.511 150.489 305.86 150.866 310.149C151.043 312.153 151.257 314.178 151.342 314.65C151.549 315.794 150.955 317.586 149.676 319.674C148.146 322.174 147.281 322.931 144.343 324.348C141.164 325.88 139.208 326.445 137.031 326.46C135.619 326.47 135.203 326.37 134.103 325.753C132.587 324.904 131.299 323.195 131.299 322.033C131.299 321.618 131.562 320.501 131.884 319.551C132.206 318.601 132.47 317.521 132.47 317.151C132.47 316.178 131.631 314.661 129.181 311.206C125.262 305.681 123.087 301.648 123.105 299.94C123.115 299.006 123.98 297.564 125.247 296.369C127.601 294.148 129.134 293.665 133.407 293.794C135.208 293.849 136.802 294.03 137.549 294.264ZM159.965 318.934C164.887 321.697 174.039 324.941 190.797 329.866C199.975 332.562 209.139 335.705 212.816 337.416C216.406 339.087 221.732 341.091 223.475 341.427C224.119 341.552 227.018 341.752 229.916 341.872C232.815 341.993 236.004 342.165 237.002 342.255L238.818 342.42V347.001C238.818 349.521 238.695 352.762 238.546 354.204C238.284 356.72 238.299 356.936 238.904 359.598C239.303 361.354 239.615 363.655 239.756 365.872C239.878 367.798 240.041 369.625 240.118 369.933C240.257 370.488 240.226 370.483 235.38 369.156C230.424 367.8 223.737 365.371 219.492 363.386C218.204 362.783 213.518 360.699 209.078 358.754C204.638 356.81 199.473 354.404 197.6 353.408C195.727 352.412 192.191 350.577 189.743 349.329L185.292 347.061L178.232 345.198C171.389 343.392 171.095 343.29 168.692 341.899C167.328 341.109 164.708 339.307 162.869 337.895C159.942 335.649 159.007 334.742 155.367 330.628C153.081 328.042 151.21 325.833 151.21 325.718C151.21 325.603 151.488 325.253 151.828 324.939C152.814 324.032 154.129 321.851 154.964 319.739C156.028 317.047 156.109 316.907 156.526 317.068C156.725 317.145 158.272 317.984 159.965 318.934ZM276.14 336.556C278.288 337.819 280.261 340.629 281.56 344.277C283.388 349.41 283.077 352.925 280.566 355.478L279.46 356.603L273.369 357.609C268.212 358.461 266.884 358.602 264.702 358.534C259.348 358.364 258.805 357.234 258.67 345.994C258.604 340.439 258.635 340.307 260.343 338.759C261.534 337.679 262.787 337.037 264.644 336.555C266.405 336.098 270.27 335.787 273.063 335.878C274.76 335.933 275.272 336.046 276.14 336.556Z" fill="#1A7674"/>
</svg>
