<svg width="432" height="458" viewBox="0 0 432 458" fill="none" xmlns="http://www.w3.org/2000/svg">
<path fill-rule="evenodd" clip-rule="evenodd" d="M281.302 109.152C277.237 111.207 272.576 116.89 268.706 124.511C267.301 127.278 267.277 127.301 264.84 128.211C263.491 128.714 262.322 129.056 262.241 128.969C262.16 128.883 262.439 127.72 262.859 126.385C263.645 123.891 265.092 120.866 267.19 117.334C267.95 116.054 268.398 114.798 268.424 113.873C268.463 112.538 268.394 112.432 267.566 112.548C266.064 112.76 264.45 114.201 262.905 116.712C260.722 120.26 259.015 124.346 258.146 128.108L257.373 131.455L254.462 133.278C245.743 138.739 236.461 148.096 231.667 156.259C229.69 159.625 227.313 165.404 226.281 169.352C225.337 172.96 225.282 173.608 225.295 180.865C225.307 187.603 225.413 189.008 226.151 192.208C228.63 202.948 233.501 212.201 240.485 219.434C245.323 224.444 251.352 227.899 258.749 229.898L262.708 230.968L263.029 233.198C263.35 235.422 263.348 235.429 262.13 236.548C259.987 238.513 253.797 242.748 250.096 244.778C242.462 248.966 231.946 252.953 220.434 256.024C212.553 258.127 213.226 258.159 212.632 255.653C211.987 252.936 211.22 251.821 209.26 250.751C207.384 249.727 206.217 249.682 202.504 250.489C197.218 251.638 193.604 254.229 191.425 258.432C190.524 260.169 190.373 260.875 190.373 263.354C190.373 267.202 191.451 269.564 193.965 271.223C195.61 272.309 195.941 272.38 199.344 272.38C202.448 272.38 203.202 272.25 204.588 271.477C207.121 270.066 209.042 268.346 210.699 266.002C212.175 263.917 212.306 263.83 214.615 263.384C227.61 260.877 249.802 252.117 257.192 246.577C258.444 245.638 260.481 243.807 261.718 242.507C262.955 241.207 264.03 240.216 264.107 240.304C264.184 240.393 265.322 246.781 266.637 254.5C272.088 286.505 276.69 303.622 282.872 314.888C283.775 316.535 284.803 318.516 285.156 319.291C285.67 320.42 286.212 320.881 287.875 321.603C289.017 322.099 290.186 322.409 290.473 322.291C290.76 322.174 291.958 322.296 293.135 322.563L295.277 323.049V324.654C295.277 325.536 294.95 329.708 294.55 333.925C293.852 341.298 293.057 348.324 289.899 375.045C289.1 381.813 288.043 390.965 287.551 395.384C287.059 399.803 286.597 403.481 286.525 403.558C286.453 403.635 285.032 403.876 283.368 404.094C279.291 404.627 273.207 406.208 270.909 407.332C268.731 408.398 268.112 409.73 269.199 411.013C270.093 412.069 272.561 411.998 278.043 410.76C280.495 410.206 284.202 409.643 286.28 409.51L290.059 409.267L290.714 407.833C291.14 406.902 291.606 404.139 292.044 399.951C293.163 389.237 293.431 386.808 295.281 370.623C297.505 351.158 298.723 338.854 299.259 330.442C299.487 326.846 299.723 323.715 299.783 323.482C299.852 323.213 301.766 322.98 305.051 322.842C310.388 322.618 315.204 321.705 321.637 319.697C332.864 316.193 332.411 316.272 332.152 317.849C331.9 319.381 329.976 341.61 328.931 355.051C327.647 371.575 326.842 385.364 326.028 404.768C325.759 411.168 325.598 410.825 329.991 413.197C333.617 415.155 345.096 419.14 346.697 418.996C348.267 418.855 349.094 417.424 348.746 415.446C348.468 413.863 348.298 413.78 339.541 411.003C335.682 409.779 332.055 408.58 331.483 408.338L330.443 407.9L330.688 403.585C331.03 397.555 333.536 359.393 335.183 335.129C335.941 323.961 336.705 314.69 336.882 314.528C337.058 314.366 338.74 313.573 340.621 312.766C345.696 310.589 351.671 307.251 352.493 306.134C353.324 305.007 353.455 302.675 352.746 301.64C352.311 301.004 352.18 300.997 350.951 301.545C350.222 301.871 348.936 302.638 348.092 303.25C343.812 306.358 328.56 312.55 318.485 315.271C312.284 316.946 306.541 317.867 299.186 318.364C291.265 318.9 289.604 318.705 289.106 317.18C288.91 316.579 287.693 313.694 286.401 310.768C279.841 295.906 277.864 288.585 272.248 258.345C269.766 244.98 268.442 238.672 267.175 234.176C266.797 232.832 266.487 231.578 266.487 231.389C266.487 230.796 275.388 231 278.694 231.668C282.721 232.481 288.366 232.205 295.097 230.864C309.477 227.999 317.644 225.458 324.786 221.625C333.415 216.993 338.939 211.41 342.285 203.936C347.811 191.592 346.919 173.587 340.088 159.612C337.186 153.675 334.506 149.915 328.925 143.952C322.313 136.887 316.789 132.691 309.672 129.328C303.628 126.471 296.521 124.661 289.789 124.263C287.661 124.137 285.92 123.899 285.92 123.733C285.92 123.299 287.587 122.141 289.96 120.927C293.437 119.147 294.596 116.718 292.198 116.237C289.011 115.598 286.612 116.822 282.654 121.104L279.568 124.442L275.883 125.104C273.856 125.467 272.134 125.697 272.055 125.613C271.675 125.206 275.976 118.981 278.54 116.229C280.785 113.819 282.064 112.799 284.195 111.719C285.709 110.951 287.066 110.118 287.211 109.868C287.604 109.188 286.013 108 284.71 108C284.089 108 282.555 108.519 281.302 109.152ZM115.11 112.199C112.994 113.226 111.038 115.24 107.571 119.961C104.745 123.811 104.446 124.097 103.016 124.33C89.9214 126.457 80.7352 131.111 72.6679 139.705C67.0593 145.68 63.2579 152.197 60.8785 159.915C58.8265 166.57 58.3514 170.667 58.5868 179.666C58.7955 187.644 59.2547 190.935 61.0087 197.015C63.4228 205.383 69.1764 214.471 75.6866 220.198C77.2304 221.557 78.5209 223.601 78.111 224.04C77.9926 224.166 76.5639 224.679 74.9355 225.179C69.1153 226.969 64.8403 230.031 56.1051 238.668C47.3976 247.277 43.5998 252.897 42.0916 259.404C41.618 261.447 40.8961 263.602 40.4869 264.193C37.6281 268.325 36.949 270.665 37.6277 274.047C38.3255 277.524 40.5089 279.504 43.6167 279.48C45.4514 279.465 46.2039 279.128 47.9439 277.541C51.5001 274.297 53.4561 266.912 51.7053 263.338C50.9715 261.84 48.5038 260.268 46.8873 260.268C45.6839 260.268 45.6878 260.299 46.6548 258.463C51.9759 248.359 59.9683 239.283 68.5909 233.553C71.3871 231.695 77.257 228.353 77.7249 228.353C78.3975 228.353 76.2778 242.039 74.2708 250.655C71.0978 264.277 68.1537 271.849 58.8718 290.259C54.8459 298.245 53.9714 300.817 54.8837 301.991C55.5296 302.823 56.8633 302.694 57.9099 301.699C59.8848 299.822 69.1131 281.671 72.7187 272.572C78.0344 259.158 81.3445 244.323 82.0916 230.564C82.2265 228.079 82.463 226.046 82.617 226.046C82.771 226.046 84.3264 226.805 86.0729 227.733C91.0982 230.402 97.3765 232.235 98.7682 231.439C99.1734 231.207 99.5052 230.785 99.5052 230.501C99.5052 229.958 98.7952 229.603 95.5466 228.52C87.4469 225.822 76.6899 216.813 71.1493 208.089C68.1745 203.404 65.8832 197.728 64.362 191.274C63.0888 185.874 62.7523 174.508 63.6988 168.871C66.771 150.569 77.9048 137.236 95.3252 131.001C99.1568 129.629 104.99 128.94 111.824 129.052C116.871 129.135 120.307 129.816 122.862 131.239C123.772 131.746 125.407 132.249 126.496 132.359C128.808 132.591 131.394 133.674 137.832 137.108C145.814 141.366 150.225 144.523 154.875 149.304C159.394 153.95 162.586 159.581 164.532 166.337C165.434 169.474 165.505 170.22 165.523 176.828C165.54 183.068 165.441 184.343 164.72 187.21C162.919 194.369 158.439 201.888 153.052 206.795C146.581 212.688 135.861 218.772 126.676 221.765C119.944 223.959 117.596 224.316 109.942 224.311C102.982 224.307 102.897 224.297 99.6196 223.078C97.8023 222.402 94.4014 220.823 92.0623 219.571C89.7231 218.317 87.1924 217.017 86.4385 216.681C85.0757 216.072 85.0692 216.074 85.3182 216.924C85.7267 218.318 87.6347 221.069 89.5853 223.075C91.7431 225.295 97.3758 228.342 101.065 229.286C104.651 230.204 109.58 230.445 113.901 229.915C117.796 229.437 124.966 227.955 128.091 226.983C130.263 226.306 130.216 226.306 129.973 226.982C129.864 227.286 129.949 227.596 130.162 227.672C130.622 227.836 130.107 232.262 128.798 239.402C127.533 246.3 127.668 248.165 129.415 247.9C129.978 247.816 130.485 247.306 130.885 246.425C131.971 244.031 133.27 238.558 133.708 234.529C134.099 230.938 134.065 229.72 133.476 226.212C133.283 225.065 133.346 225.003 135.735 223.941C146.76 219.043 156.753 211.724 161.942 204.747C167.519 197.246 169.952 190.068 170.296 180.096C170.86 163.733 166.22 152.313 155.043 142.552C150.35 138.453 142.038 133.536 132.074 128.963C129.897 127.964 127.973 127.004 127.8 126.83C127.27 126.298 128.984 123.776 132.677 119.652C137.008 114.818 137.656 112.981 135.022 113.012C133.401 113.031 132.595 113.604 129.333 117.056C127.152 119.364 123.674 124.088 123.043 125.601C122.943 125.84 117.499 124.392 117.499 124.126C117.499 123.592 120.046 120.516 122.741 117.797C124.799 115.722 125.416 114.856 125.416 114.048C125.416 112.781 124.786 112.705 122.717 113.724C121.374 114.385 119.241 116.586 114.75 121.944C112.957 124.083 112.846 124.149 111.061 124.149C109.698 124.149 109.222 124.005 109.222 123.594C109.222 122.808 112.851 118.719 115.951 116.012C118.794 113.53 119.225 112.473 117.655 111.835C116.547 111.385 116.891 111.336 115.11 112.199ZM280.045 129.527C275.765 130.106 271.832 131.071 267.529 132.6C250.433 138.671 235.584 153.764 230.984 169.742C230.059 172.959 229.996 173.634 229.978 180.481C229.963 186.322 230.094 188.403 230.634 190.863C232.883 201.127 237.518 210.13 243.949 216.726C248.372 221.262 252.32 223.844 257.978 225.9C262.07 227.387 269.726 228.866 269.726 228.17C269.726 228.069 269.402 227.42 269.007 226.728C267.816 224.641 268.014 224.122 269.996 224.133C270.936 224.139 273.081 224.48 274.764 224.892C281.943 226.651 293.2 225.487 308.232 221.432C319.87 218.292 329.336 212.812 333.954 206.541C336.23 203.451 338.266 199.117 339.247 195.273C339.977 192.415 340.078 191.145 340.075 184.903C340.072 177.268 339.657 174.204 337.836 168.384C334.396 157.381 325.668 146.095 314.564 138.29C308.659 134.14 303.435 131.789 296.788 130.292C292.812 129.397 283.986 128.994 280.045 129.527ZM265.89 155.095C263.99 155.961 261.979 160.363 261.568 164.556C261.374 166.549 261.435 166.799 262.393 167.894C263.863 169.574 264.746 169.743 266.033 168.587C267.687 167.1 268.399 164.145 268.224 159.5C268.054 154.964 267.689 154.276 265.89 155.095ZM149.888 155.406C149.393 155.673 148.938 156.26 148.877 156.711C148.718 157.891 150.937 165.394 151.614 165.965C152.452 166.672 153.386 166.553 154.251 165.629C155.829 163.943 154.544 157.168 152.331 155.513C151.365 154.789 151.058 154.776 149.888 155.406ZM131.614 156.707C131.362 156.815 130.835 157.573 130.445 158.391C129.516 160.337 129.52 163.146 130.454 165.008C130.85 165.798 131.174 167.045 131.174 167.781C131.174 168.795 131.399 169.277 132.101 169.769C133.452 170.715 134.74 170.099 135.832 167.985C137.466 164.819 136.893 158.642 134.807 156.941C134.229 156.47 132.467 156.34 131.614 156.707ZM243.552 159.723C241.296 160.746 239.902 164.843 240.609 168.368C241.031 170.468 241.578 170.768 243.02 169.689C244.562 168.535 245.409 166.144 245.422 162.91C245.429 161.281 245.272 159.78 245.074 159.573C244.839 159.326 244.313 159.378 243.552 159.723ZM310.211 173.834C309.42 174.046 301.808 176.267 293.297 178.768C284.786 181.269 275.96 183.839 273.684 184.48C262.019 187.764 250.899 189.753 242.015 190.145C238.947 190.28 236.134 190.558 235.764 190.761C235.107 191.123 235.108 191.151 235.78 191.87C236.599 192.745 239.694 193.357 243.315 193.36L245.875 193.362L246.119 196.342C246.678 203.166 248.638 208.202 252.225 212.029C259.039 219.3 269.19 219.46 283.041 212.514C292.477 207.782 304.369 197.802 308.611 191.055C311.028 187.211 312.91 181.671 312.91 178.404C312.91 177.812 313.315 176.513 313.81 175.519C314.305 174.525 314.71 173.634 314.71 173.539C314.71 173.236 311.7 173.433 310.211 173.834ZM159.876 179.34C158.834 180.297 159.154 180.247 147.908 181.246C131.648 182.689 123.761 183.029 109.37 182.903C96.5427 182.791 94.8912 182.706 93.9271 182.112C91.5959 180.675 90.6354 182.067 92.6409 183.977C93.3636 184.664 93.9966 185.963 94.6588 188.113C98.1499 199.452 105.597 208.026 114.978 211.506C122.353 214.243 131.872 214.002 139.604 210.885C142.865 209.57 146.641 207.5 149.308 205.565C152.255 203.426 156.794 198.717 158.401 196.129C160.108 193.382 161.681 189.052 161.989 186.257C162.209 184.252 162.343 183.995 163.616 183.137C165.525 181.849 165.54 180.53 163.653 179.891C162.911 179.639 161.974 179.214 161.57 178.945C160.941 178.525 160.703 178.58 159.876 179.34ZM305.893 179.547C304.31 180.135 300.18 181.392 296.716 182.341C293.252 183.289 285.884 185.362 280.342 186.948C267.466 190.631 256.376 192.962 251.671 192.973C248.754 192.981 248.751 192.988 249.989 196.759C251.623 201.737 253.459 205.202 255.771 207.674C258.604 210.702 259.029 210.754 261.41 208.364C268.071 201.673 278.109 196.104 290.238 192.368C294.496 191.056 295.564 190.871 298.875 190.867C300.954 190.865 302.917 191.003 303.238 191.173C304.512 191.851 309.368 183.696 309.892 180C310.173 178.015 310.053 178.002 305.893 179.547ZM150.322 185.502C130.806 187.896 111.742 188.173 99.6664 186.236C97.7306 185.925 96.1004 185.721 96.0439 185.781C95.8845 185.952 98.988 191.436 99.6344 192.127C100.159 192.687 100.369 192.686 102.106 192.112C105.542 190.977 108.616 190.549 113.54 190.522C119.23 190.489 122.515 191.044 127.215 192.83C133.006 195.03 137.052 198.517 138.789 202.805C139.252 203.948 139.758 204.887 139.913 204.891C140.483 204.904 144.03 202.833 146.829 200.852C151.845 197.301 155.797 192.425 157.267 187.973C158.18 185.207 158.059 184.895 156.095 184.953C155.155 184.981 152.557 185.228 150.322 185.502ZM108.142 195.157C104.639 195.422 102.744 195.739 102.744 196.061C102.744 197.029 106.641 201.215 109.304 203.109C116.171 207.991 123.999 209.653 132.092 207.949C133.499 207.653 134.046 207.322 134.506 206.489C135.08 205.451 135.067 205.357 134.148 203.905C132.655 201.544 130.871 200.001 127.755 198.373C124.313 196.574 121.342 195.798 115.945 195.287C112.009 194.915 111.461 194.906 108.142 195.157ZM294.197 195.924C288.344 197.277 281.241 199.899 276.157 202.584C271.01 205.301 263.248 210.752 263.248 211.648C263.248 211.803 265.232 211.83 267.656 211.706C276.97 211.233 285.155 207.433 296.147 198.476C297.913 197.038 299.424 195.645 299.506 195.381C299.707 194.734 299.056 194.8 294.197 195.924ZM324.338 222.547C322.748 222.902 321.697 223.818 321.393 225.113C321.086 226.419 323.883 239.549 328.055 256.385C331.163 268.926 335.635 281.975 340.286 292.074C343.306 298.632 344.394 300.07 346.528 300.324C347.445 300.434 347.616 300.293 347.885 299.211C348.268 297.67 347.381 294.687 345.086 289.805C340.834 280.758 336.058 266.805 332.213 252.193C329.817 243.089 325.866 227.054 325.866 226.434C325.866 225.594 334.043 226.735 338.256 228.164C347.619 231.339 354.681 238.508 358.287 248.497C359.761 252.582 360.774 256.896 360.772 259.079C360.77 260.846 360.187 263.728 359.831 263.728C359.727 263.728 358.885 263.252 357.959 262.671C356.501 261.755 355.889 261.613 353.396 261.613C351.078 261.613 350.202 261.789 348.898 262.514C345.231 264.554 344.041 266.738 344.048 271.419C344.052 274.262 344.197 275.012 345.158 277.186C347.271 281.961 349.523 283.788 353.376 283.849C360.139 283.957 365.334 276.229 362.82 269.799C362.306 268.487 362.317 268.361 363.001 267.7C366.737 264.09 366.01 254.118 361.269 243.955C356.497 233.726 348.908 226.583 339.361 223.337C337.301 222.637 335.827 222.459 331.264 222.363C328.196 222.298 325.079 222.381 324.338 222.547ZM196.1 226.386C192.234 227.569 188.892 229.77 187.645 231.954C186.067 234.72 186.907 234.699 192.713 231.826C194.791 230.798 197.463 229.676 198.65 229.334C201.292 228.572 203.509 227.576 203.509 227.151C203.509 226.521 201.351 225.662 199.838 225.689C198.987 225.704 197.305 226.018 196.1 226.386ZM200.99 236.077C196.482 237.064 192.186 239.291 190.244 241.649C188.971 243.194 188.044 245.41 188.478 245.874C188.561 245.963 191.48 244.82 194.964 243.332C202.141 240.269 204.928 239.52 209.188 239.51C212.416 239.503 212.795 239.25 212.359 237.395C211.837 235.17 207.455 234.662 200.99 236.077ZM95.3717 241.802C95.2353 242.038 95.231 243.063 95.3616 244.08C95.5732 245.723 95.7272 245.975 96.7428 246.34C97.3715 246.567 99.991 247.637 102.564 248.718C108.757 251.32 119.581 255.216 126.496 257.331C145.853 263.253 169.428 267.214 178.757 266.113C182.641 265.655 186.235 264.702 186.235 264.13C186.235 263.38 178.365 261.839 170.4 261.031C150.281 258.988 130.921 254.365 108.682 246.294C101.194 243.576 97.5593 242.217 96.2127 241.632C95.8863 241.49 95.5077 241.567 95.3717 241.802ZM202.609 254.859C201.086 255.255 199.504 256.196 198.578 257.256C197.346 258.666 196.225 261.75 196.176 263.867C196.135 265.657 196.22 265.857 197.391 266.717C199.051 267.936 201.482 267.759 203.288 266.287C205.93 264.134 207.782 258.367 206.757 255.486C206.461 254.656 206.191 254.506 205.047 254.539C204.3 254.561 203.203 254.705 202.609 254.859ZM126.939 263.44C126.082 264.572 123.205 275.246 118.934 293.144C115.98 305.524 114.593 310.987 113.21 315.683L112.461 318.228L110.392 318.835C101.552 321.429 90.8506 321.653 81.2682 319.445C71.7441 317.251 63.4462 312.597 59.1021 307.014C57.0922 304.431 56.3761 303.748 55.6588 303.73C55.0453 303.714 55.3922 306.303 56.3016 308.524C57.1466 310.588 59.8658 313.741 62.5116 315.724C64.9637 317.562 65.3125 318.257 65.3283 321.334C65.3344 322.537 65.4884 324.745 65.6705 326.242C66.1564 330.234 67.3285 344.422 68.3685 358.896C69.808 378.931 71.6077 396.937 72.4948 400.182C73.044 402.189 73.8749 403.307 74.8182 403.307C76.755 403.307 76.9936 401.607 76.1249 393.997C75.3173 386.925 74.2669 375.773 73.4157 365.24C72.2098 350.311 71.001 338.238 69.9703 330.826C69.3819 326.596 68.7989 322.384 68.6748 321.465L68.4488 319.793L69.9102 320.59C73.3722 322.477 79.1748 324.375 84.2105 325.268C85.596 325.513 89.153 325.826 92.1152 325.963L97.501 326.212L98.1114 330.634C98.4472 333.066 99.3065 339.382 100.021 344.669C102.798 365.213 108.765 405.64 109.457 408.594C109.626 409.317 109.905 409.46 111.15 409.461C113.522 409.463 123.457 411.642 126.897 412.915C129.319 413.811 130.244 413.994 130.933 413.714C132.567 413.05 132.517 410.227 130.846 408.769C128.844 407.024 122.941 405.388 117.188 404.985C113.663 404.738 113.569 404.707 113.38 403.731C112.973 401.641 104.197 344.463 103.635 340.247C102.884 334.619 102.25 331.411 101.323 328.555C100.917 327.306 100.585 326.162 100.585 326.012C100.585 325.863 101.84 325.532 103.374 325.277C107.349 324.616 114.143 322.634 116.143 321.552C117.935 320.582 118.731 319.597 119.133 317.849C119.359 316.866 119.297 316.791 118.257 316.791C117.642 316.791 117.139 316.737 117.139 316.671C117.139 316.605 117.631 315.005 118.232 313.115C121.832 301.788 127.575 276.545 128.826 266.549C129.177 263.739 128.081 261.933 126.939 263.44ZM45.704 265.99C44.0108 266.82 43.2241 267.688 42.5116 269.51C41.5791 271.895 42.7948 274.669 44.3757 273.765C46.2874 272.672 47.6772 269.705 47.6812 266.708C47.6837 265.055 47.6405 265.039 45.704 265.99ZM350.365 267.415C349.112 268.542 349.02 268.962 349.818 269.905C350.161 270.31 350.495 271.803 350.68 273.763C351.058 277.766 351.693 278.52 354.45 278.237C355.938 278.084 356.433 277.818 357.464 276.616C358.622 275.266 358.687 275.05 358.531 273.043C358.385 271.157 358.202 270.748 356.967 269.538C356.198 268.785 355.566 267.943 355.562 267.666C355.542 266.113 352.003 265.942 350.365 267.415ZM212.404 280.484C208.957 282.498 199.924 283.489 194.95 282.398C191.725 281.691 189.834 281.864 189.834 282.865C189.834 284.11 191.463 286.021 193.252 286.871C194.708 287.563 195.893 287.756 199.457 287.879C206.254 288.114 211.263 286.683 213.601 283.837C214.427 282.832 214.677 282.19 214.595 281.285C214.467 279.878 213.836 279.647 212.404 280.484ZM246.514 389.494C242.555 389.662 236.32 390.072 232.659 390.404C228.997 390.737 218.147 391.172 208.547 391.372C183.501 391.894 178.903 392.072 168.241 392.936C159.333 393.658 153.288 393.893 135.301 394.217C127.566 394.357 126.363 394.619 126.564 396.124C126.792 397.833 128.691 397.976 148.448 397.782C160.428 397.664 169.075 397.393 173.819 396.987C178.285 396.604 189.144 396.233 202.429 396.008C215.117 395.795 226.408 395.416 230.139 395.079C245.214 393.72 247.244 393.616 255.022 393.808C260.675 393.948 263.71 394.187 265.227 394.614C268.362 395.495 271.339 395.431 272.245 394.463C273.912 392.682 272.747 391.207 269.366 390.813C268.079 390.664 266.055 390.316 264.867 390.041C261.838 389.34 254.947 389.134 246.514 389.494ZM28.61 393.492C10.0606 394.669 3.69771 395.428 1.32326 396.747L0 397.481L1.27323 398.058C2.38489 398.562 4.46064 398.585 17.6475 398.239C25.953 398.022 38.7185 397.936 46.0149 398.05C53.501 398.166 59.6513 398.106 60.1299 397.911C61.369 397.408 61.6511 395.759 60.6766 394.717C59.9579 393.949 59.4127 393.868 53.342 393.635C49.735 393.496 44.5164 393.292 41.7454 393.18C38.9744 393.069 33.0634 393.209 28.61 393.492ZM341.23 393.193C340.297 393.454 340.624 394.503 341.881 395.281C344.784 397.076 355.908 397.588 389.807 397.488C414.779 397.414 419.612 397.491 423.974 398.031C427.607 398.48 429.422 398.551 430.341 398.28C432.54 397.631 432.556 395.205 430.368 394.228C427.931 393.14 418.369 392.813 399.1 393.16C376.917 393.559 368.07 393.578 353.216 393.257C346.982 393.122 341.588 393.094 341.23 393.193ZM72.8745 405.397C71.9838 405.662 70.2568 406.421 69.0364 407.082C67.8161 407.743 65.333 408.881 63.5185 409.611C61.7044 410.34 59.5851 411.386 58.8099 411.934C57.6209 412.775 57.3999 413.14 57.3999 414.262C57.3999 415.263 57.6266 415.752 58.3108 416.232C59.824 417.291 62.4223 416.722 66.5702 414.424C68.5459 413.33 71.218 412.01 72.5081 411.492C75.787 410.176 77.4129 409.132 77.8757 408.047C79.0715 405.243 77.0264 404.159 72.8745 405.397Z" fill="#1A7674"/>
</svg>
