<svg width="237" height="15" viewBox="0 0 237 15" fill="none" xmlns="http://www.w3.org/2000/svg">
<path d="M2 8.00725C40.8699 8.00725 79.7398 8.00725 118.611 8.00725C137.312 8.00725 156.013 8.00725 174.714 8.00725C188.948 8.00725 203.673 9.12654 217.836 7.50795C220.929 7.15439 232.906 7.74851 234.995 5.0115C235.257 4.66818 225.305 3.55476 224.779 3.5137C213.218 2.61193 201.548 2.07372 189.953 2.01582C156.849 1.85064 124.353 2.98757 91.405 5.0115C64.7012 6.65192 38.029 12.0015 11.1999 12.0015C8.32021 12.0015 -0.25918 13 2.62055 13C10.0397 13 17.3949 12.1892 24.8027 11.7795C75.7798 8.9612 126.79 13 177.762 13" stroke="#ECF0CF" stroke-width="2.31904" stroke-linecap="round"/>
</svg>
