<svg width="322" height="76" viewBox="0 0 322 76" fill="none" xmlns="http://www.w3.org/2000/svg">
<path fill-rule="evenodd" clip-rule="evenodd" d="M190.326 0.0759451C223.462 0.561458 257.385 4.64242 281.213 11.0101C294.624 14.5937 305.795 19.1657 312.489 23.8101C314.681 25.3315 318.027 28.4433 319.147 30.0032C320.207 31.4789 321.216 33.4292 321.602 34.7484C321.987 36.0672 322.122 38.632 321.875 39.9505C320.323 48.2329 310.207 55.644 292.16 61.7189C268.348 69.7351 233.646 74.7535 194.569 75.8323C186.898 76.044 167.886 76.059 164.104 75.8563C93.9116 72.0935 38.589 61.753 12.1158 47.4479C7.45956 44.9318 2.90024 41.6372 0.70929 39.205L0 38.4178L0.529907 38.0026C0.821472 37.7744 1.71371 37.066 2.51279 36.4284L3.96545 35.269L5.45239 36.6751C7.28796 38.4112 8.28491 39.1877 10.6731 40.742C22.9255 48.7166 45.9358 55.9696 76.1866 61.3924C100.176 65.6928 127.713 68.7807 157.863 70.5513C178.742 71.7773 207.81 70.9951 231.399 68.5723C270.567 64.5494 300.854 56.1109 311.984 46.1197C315.696 42.7877 317.251 39.5948 316.604 36.636C314.503 27.0409 293.508 17.591 260.931 11.5784C242.147 8.11121 220.358 5.91141 197.285 5.15238C190.036 4.91389 169.573 4.91136 162.916 5.14797C123.748 6.54047 90.9394 11.4424 68.0398 19.3233C57.1015 23.0877 48.8045 27.7996 45.2352 32.2743C44.2493 33.5103 43.2513 35.3615 43.0887 36.2562C43.0103 36.688 42.8896 36.878 42.6936 36.8784C42.2387 36.8795 38.0119 36.0472 37.8607 35.9268C37.6465 35.7561 38.2134 33.9363 38.9167 32.5367C40.6856 29.0171 44.0505 25.6902 49.0308 22.5364C63.9627 13.0812 94.4674 5.58647 132.196 2.10381C150.565 0.408138 169.029 -0.236058 190.326 0.0759451Z" fill="#D35D87"/>
</svg>
