<svg width="122" height="54" viewBox="0 0 122 54" fill="none" xmlns="http://www.w3.org/2000/svg">
<path fill-rule="evenodd" clip-rule="evenodd" d="M0.353188 49.599C0.591652 49.6706 3.27854 48.25 6.32439 46.4426C13.0825 42.4313 15.2819 41.2641 20.0546 39.1564C36.3834 31.9452 53.5205 29.5763 70.9237 32.1246C77.5028 33.0879 82.3634 34.2562 89.6658 36.63C95.5343 38.5376 96.6741 38.7971 97.0213 38.3045C97.3612 37.8222 90.8936 33.8505 87.2104 32.2794C66.0621 23.2591 41.7062 23.8808 20.482 33.9826C14.6839 36.7422 7.54738 41.4615 3.62353 45.1308C1.26845 47.3334 -0.255778 49.4158 0.353188 49.599ZM86.0997 2.55005C87.4406 5.93416 93.7454 17.1562 96.7676 21.5375C103.347 31.0757 111.058 39.3475 117.798 44.0984L119.952 45.6163L110.652 46.5748C88.4809 48.8602 74.1976 51.2605 74.4399 52.6601C74.5962 53.5628 81.6901 53.0426 93.8561 51.2355C101.353 50.1218 121.487 46.5102 121.964 46.1933C122.09 46.1097 121.397 45.3491 120.424 44.5029C114.935 39.7269 107.411 30.4128 100.261 19.5412C94.0443 10.0902 89.7785 4.22083 86.5089 0.619088C85.4479 -0.549359 85.2474 0.398355 86.0997 2.55005Z" fill="#B56063"/>
</svg>
