<svg width="654" height="31" viewBox="0 0 654 31" fill="none" xmlns="http://www.w3.org/2000/svg">
<path d="M3 16.6528C111.102 16.6528 219.203 16.6528 327.308 16.6528C379.318 16.6528 431.329 16.6528 483.339 16.6528C522.925 16.6528 563.877 19.1967 603.265 15.5181C611.867 14.7145 645.177 16.0648 650.986 9.84431C651.714 9.06404 624.036 6.53354 622.573 6.44023C590.423 4.39074 557.967 3.16754 525.72 3.03596C433.652 2.66054 343.278 5.24447 251.646 9.84431C177.379 13.5726 103.201 25.7307 28.5861 25.7307C20.5772 25.7307 -3.28304 28 4.72583 28C25.3592 28 45.8151 26.1572 66.4171 25.2262C208.19 18.8209 350.056 28 491.815 28" stroke="#F2ACAE" stroke-width="5" stroke-linecap="round"/>
</svg>
