<svg width="160" height="155" viewBox="0 0 160 155" fill="none" xmlns="http://www.w3.org/2000/svg">
<path fill-rule="evenodd" clip-rule="evenodd" d="M78.1234 0.586912C77.5355 0.918138 76.1504 1.69264 75.0454 2.30805C73.9406 2.92346 72.6678 3.65968 72.2171 3.94429C71.7665 4.22869 71.3359 4.46155 71.2605 4.46155C71.1848 4.46155 70.4099 4.89456 69.5383 5.4238C68.6669 5.95303 67.9018 6.38604 67.8383 6.38604C67.775 6.38604 67.0568 6.77094 66.2427 7.24137C62.8295 9.21354 61.8237 9.78832 60.8609 10.318C58.6352 11.5422 57.9114 11.9474 54.9561 13.624C53.2664 14.5827 51.8491 15.367 51.8065 15.367C51.7642 15.367 51.1007 15.7519 50.3323 16.2223C49.564 16.6927 48.8769 17.0776 48.8058 17.0776C48.7346 17.0776 47.9633 17.5107 47.0917 18.0399C46.2203 18.5691 45.4655 19.0021 45.4144 19.0021C45.3635 19.0021 44.5073 19.4833 43.512 20.0713C42.5167 20.6593 41.6496 21.1405 41.5852 21.1405C41.5209 21.1405 40.8394 21.5254 40.071 21.9958C39.3027 22.4662 38.6161 22.8511 38.5453 22.8511C38.4746 22.8511 37.8751 23.1781 37.2131 23.5777C35.9994 24.3103 35.136 24.8006 33.3495 25.7718C32.8135 26.0631 32.0384 26.4961 31.6268 26.7341C31.2153 26.9721 29.5799 27.8948 27.9926 28.7843C26.4053 29.6739 24.6483 30.6754 24.088 31.0099C23.5277 31.3445 23.0108 31.6182 22.9394 31.6182C22.8678 31.6182 22.0962 32.0512 21.2247 32.5805C20.3533 33.1097 19.5985 33.5427 19.5474 33.5427C19.4965 33.5427 18.6581 34.0076 17.6845 34.576C15.3169 35.9577 12.9981 37.2529 12.5853 37.4242C12.4004 37.501 11.6049 37.9579 10.8178 38.4399C10.0307 38.9219 9.34807 39.3162 9.30104 39.3162C9.254 39.3162 8.48333 39.7492 7.58846 40.2784C6.69359 40.8077 5.91737 41.2407 5.86371 41.2407C5.81005 41.2407 5.3079 41.5199 4.74759 41.8614C4.18728 42.2029 3.10364 42.8158 2.33938 43.2233C1.5281 43.6559 0.743755 44.2651 0.454514 44.6868C-0.0185746 45.3766 -0.0376007 45.5547 0.0269599 48.654C0.0904517 51.6913 0.125937 51.9323 0.583206 52.4185C1.40903 53.2967 2.35371 53.462 6.13414 53.3891C8.04198 53.3524 9.60831 54.8889 9.60814 56.7971L9.60802 58.1869L9.60791 60.5931C9.60785 61.9509 10.7085 63.0516 12.0662 63.0516C13.424 63.0516 14.5247 64.1522 14.5247 65.51V67.8628C14.5247 70.5199 16.6787 72.674 19.3359 72.674H29.0615H38.7871C41.4443 72.674 43.5984 70.5199 43.5984 67.8628V65.399C43.5984 64.1026 44.6494 63.0516 45.9458 63.0516C47.2469 63.0516 48.306 64.0979 48.3217 65.3989L48.3508 67.8093C48.3827 70.4491 50.5265 72.5751 53.1664 72.585L62.9986 72.622L72.7762 72.6589C75.4313 72.6689 77.5889 70.5193 77.5889 67.8643V65.4031C77.5889 64.1044 78.6417 63.0516 79.9405 63.0516C81.2392 63.0516 82.292 64.1044 82.292 65.4031V67.8628C82.292 70.5199 84.4461 72.674 87.1032 72.674H96.9357H106.768C109.425 72.674 111.579 70.5199 111.579 67.8628V65.4031C111.579 64.1044 112.632 63.0516 113.931 63.0516C115.23 63.0516 116.283 64.1044 116.283 65.4031V67.8628C116.283 70.5199 118.437 72.674 121.094 72.674H130.934H140.827C143.451 72.674 145.574 70.5401 145.561 67.9162L145.549 65.5229C145.543 64.2093 146.588 63.1316 147.901 63.098C149.221 63.0643 150.278 61.9932 150.293 60.6733L150.323 58.2269L150.334 57.3021C150.359 55.141 152.105 53.3953 154.266 53.3692C157.832 53.326 158.202 53.2854 158.755 52.8753C159.825 52.083 160 51.4537 160 48.404C160 46.3566 159.916 45.4577 159.679 44.9921C159.358 44.3598 158.355 43.5725 156.917 42.8254C156.496 42.6068 154.853 41.6912 153.266 40.7906C151.679 39.8901 149.899 38.8883 149.311 38.5646C148.723 38.2406 147.256 37.4114 146.051 36.7215C144.846 36.0317 143.816 35.4672 143.761 35.4672C143.706 35.4672 142.948 35.0342 142.077 34.505C141.205 33.9757 140.384 33.5427 140.252 33.5427C140.12 33.5427 140.012 33.4465 140.012 33.3289C140.012 33.2113 139.912 33.1151 139.79 33.1151C139.598 33.1151 135.611 30.9111 131.854 28.7272C131.188 28.3404 130.443 27.9602 130.197 27.8822C129.951 27.8043 129.751 27.6508 129.751 27.5411C129.751 27.4314 129.651 27.3416 129.529 27.3416C129.407 27.3416 128.277 26.7508 127.017 26.0287C125.757 25.3065 124.198 24.4298 123.551 24.0806C122.904 23.7315 122.087 23.2734 121.734 23.0626C121.079 22.6715 120.799 22.5139 117.48 20.6675C116.434 20.0854 115.209 19.3763 114.759 19.0917C114.308 18.8073 113.882 18.5745 113.812 18.5745C113.742 18.5745 112.995 18.169 112.151 17.6736C111.308 17.1779 110.329 16.6188 109.976 16.4306C108.571 15.6811 105.27 13.806 104.497 13.3183C104.047 13.0339 103.631 12.801 103.573 12.801C103.515 12.801 102.212 12.0793 100.677 11.1973C99.1421 10.3152 97.8394 9.59352 97.7817 9.59352C97.7239 9.59352 96.9808 9.17398 96.1304 8.66143C95.28 8.14866 94.488 7.6917 94.3704 7.64572C94.0284 7.51208 91.3149 5.98147 89.4238 4.85586C88.467 4.28621 87.6268 3.82005 87.5571 3.82005C87.4872 3.82005 86.8014 3.43516 86.0331 2.96473C85.2648 2.4943 84.5908 2.1094 84.5354 2.1094C84.4802 2.1094 83.5961 1.62828 82.5708 1.04024C80.374 -0.219662 79.6801 -0.290441 78.1234 0.586912ZM81.2561 5.95838C81.8294 6.3112 82.3523 6.59987 82.4184 6.59987C82.4842 6.59987 83.2284 7.0053 84.0719 7.50075C84.9153 7.99641 85.8942 8.55558 86.2469 8.74375C86.5996 8.93193 87.754 9.57342 88.8122 10.1696C89.8704 10.7657 91.0729 11.4331 91.4844 11.6529C91.896 11.8728 92.2647 12.1249 92.3038 12.213C92.3432 12.3011 92.4706 12.3733 92.5873 12.3733C92.704 12.3733 93.4897 12.7788 94.3332 13.2742C95.1766 13.7699 96.1555 14.3284 96.5082 14.5155C97.8657 15.2355 100.152 16.5052 100.356 16.6523C100.474 16.7372 101.051 17.0725 101.639 17.3975C105.075 19.2972 106.603 20.163 107.331 20.6232C107.782 20.9076 108.211 21.1405 108.285 21.1405C108.36 21.1405 109.251 21.6282 110.267 22.2242C111.283 22.8203 112.272 23.3923 112.466 23.4952C112.659 23.5982 113.67 24.1576 114.711 24.7382C115.752 25.3189 116.94 25.9737 117.351 26.1935C117.763 26.4133 118.132 26.6654 118.171 26.7535C118.21 26.8416 118.326 26.9139 118.429 26.9139C118.531 26.9139 119.125 27.2144 119.747 27.5815C120.37 27.9489 121.36 28.5134 121.948 28.8365C124.814 30.4107 126.935 31.6005 127.613 32.0138C128.024 32.2646 128.505 32.5379 128.682 32.6209C128.858 32.7039 130.231 33.4745 131.732 34.3335C133.233 35.1922 134.51 35.8949 134.569 35.8949C134.628 35.8949 135.058 36.1365 135.526 36.4316C135.993 36.7269 136.881 37.2433 137.499 37.5792C140.759 39.3523 141.625 39.8375 141.722 39.9457C141.781 40.0111 142.166 40.2434 142.577 40.4621C144.241 41.3459 146.117 42.381 146.318 42.526C146.436 42.6109 146.965 42.9188 147.494 43.2105C153.697 46.629 154.976 47.4275 154.976 47.8823C154.976 48.2931 154.12 48.2971 79.9939 48.2439L5.49756 48.1906C5.21871 48.1904 4.98244 47.9852 4.94319 47.7091C4.90578 47.4444 4.97354 47.228 5.09411 47.228C5.21468 47.228 5.82267 46.9275 6.44519 46.5604C7.0677 46.193 8.05792 45.6287 8.64581 45.3063C9.2337 44.9838 10.4362 44.3119 11.318 43.8133C12.1999 43.3146 13.4504 42.6163 14.0971 42.2613C15.6592 41.4038 21.3211 38.1959 23.1132 37.1531C23.8979 36.6963 24.582 36.3225 24.6333 36.3225C24.6847 36.3225 26.1512 35.5046 27.8919 34.505C29.6329 33.5053 31.0864 32.6874 31.1221 32.6874C31.1578 32.6874 31.9193 32.2544 32.8142 31.7251C33.709 31.1959 34.4799 30.7629 34.5274 30.7629C34.5746 30.7629 35.0716 30.4896 35.632 30.1556C36.1923 29.8216 37.6607 28.9879 38.8953 28.3028C40.1298 27.6176 41.669 26.7484 42.3157 26.371C42.9624 25.9938 43.9725 25.4199 44.5604 25.0957C45.1482 24.7715 46.495 24.0208 47.5532 23.4274C48.6114 22.834 49.862 22.1384 50.3323 21.8818C50.8027 21.625 51.6967 21.1127 52.3192 20.7432C52.9417 20.3737 53.4918 20.0713 53.5418 20.0713C53.5918 20.0713 54.4294 19.6071 55.4029 19.0396C56.3767 18.472 58.52 17.2549 60.1661 16.335C61.8122 15.4153 64.8206 13.7145 66.8517 12.5557C68.8828 11.397 70.5886 10.4488 70.6424 10.4488C70.6965 10.4488 71.3434 10.0817 72.0803 9.63308C72.8174 9.18446 73.5646 8.76022 73.7409 8.69051C73.9173 8.62059 75.3122 7.83817 76.8407 6.95141C78.3692 6.06486 79.7534 5.3342 79.9167 5.328C80.0803 5.32201 80.6829 5.60555 81.2561 5.95838ZM77.6676 19.5414C74.5088 20.1196 71.5758 22.1091 69.7769 24.8934C68.8518 26.3255 68.5367 27.1173 68.0861 29.1433C67.7021 30.8702 67.7216 32.2103 68.1599 34.2214C68.379 35.2277 69.4489 37.7742 69.8692 38.2902C71.8648 40.7394 73.7704 42.1495 76.2731 43.0283C77.7424 43.5441 81.879 43.6367 83.254 43.1842C87.3083 41.8505 90.2548 38.9467 91.627 34.9326C92.2002 33.256 92.1358 29.3319 91.5075 27.6623C90.1663 24.0971 87.7816 21.5521 84.4877 20.1703C83.5223 19.7653 80.731 19.2068 79.8336 19.2391C79.4808 19.2519 78.5062 19.3879 77.6676 19.5414ZM81.8388 24.4585C83.1753 24.7046 85.1282 26.1495 86.0241 27.5554C88.3785 31.2494 87.0073 35.9943 83.0216 37.9447C79.4445 39.6953 75.352 38.2058 73.367 34.4303C72.8768 33.498 72.6485 31.3227 72.9108 30.0848C73.7991 25.8929 77.3783 23.6374 81.8388 24.4585ZM58.1352 31.5113C58.1352 32.8691 59.2359 33.9704 60.5936 33.9704C61.9514 33.9704 63.0521 32.8691 63.0521 31.5113C63.0521 30.1536 61.9514 29.0522 60.5936 29.0522C59.2359 29.0522 58.1352 30.1536 58.1352 31.5113ZM96.8752 31.4579C96.9089 32.7953 98.0028 33.8635 99.3407 33.8635C100.664 33.8635 101.746 33.7912 101.746 33.7031C101.746 33.615 101.746 32.5324 101.746 31.2975C101.746 30.0575 100.741 29.0522 99.5005 29.0522H99.2802H99.2211C97.902 29.0522 96.8421 30.1392 96.8752 31.4579ZM145.31 55.7278C145.276 57.007 144.23 58.0265 142.95 58.0265H80.0474H17.1448C15.8652 58.0265 14.8184 57.007 14.7846 55.7278C14.7514 54.4682 15.7634 53.4291 17.0234 53.4291H80.0474H143.071C144.331 53.4291 145.343 54.4682 145.31 55.7278ZM38.6353 65.3502C38.6015 66.6295 37.5548 67.6489 36.2751 67.6489H29.0615H21.8479C20.5683 67.6489 19.5215 66.6295 19.4877 65.3502C19.4545 64.0907 20.4665 63.0516 21.7265 63.0516H29.0615H36.3965C37.6566 63.0516 38.6686 64.0907 38.6353 65.3502ZM72.6259 65.3502C72.592 66.6316 71.5475 67.6549 70.2657 67.6623L62.9986 67.7045L55.7866 67.7466C54.4885 67.7542 53.4321 66.704 53.4321 65.4058C53.4321 64.1056 54.4862 63.0516 55.7864 63.0516H63.0593H70.3871C71.6471 63.0516 72.6591 64.0907 72.6259 65.3502ZM106.449 65.2968C106.449 66.5368 105.444 67.542 104.204 67.542H96.9357H89.6679C88.4279 67.542 87.4227 66.5368 87.4227 65.2968C87.4227 64.0568 88.4279 63.0516 89.6679 63.0516H96.9357H104.204C105.444 63.0516 106.449 64.0568 106.449 65.2968ZM140.393 65.3502C140.359 66.6316 139.315 67.6549 138.033 67.6623L130.766 67.7045L123.554 67.7466C122.256 67.7542 121.199 66.704 121.199 65.4058C121.199 64.1056 122.254 63.0516 123.554 63.0516H130.827H138.154C139.414 63.0516 140.426 64.0907 140.393 65.3502ZM19.544 77.6383C19.4871 77.7893 19.4168 87.5834 19.3875 99.403L19.3404 118.539C19.3372 119.857 18.2997 120.94 16.9831 121C15.6632 121.06 14.6194 122.14 14.6037 123.461L14.5741 125.972L14.5456 128.382C14.5295 129.742 13.4224 130.836 12.0622 130.836C10.7067 130.836 9.60781 131.935 9.60781 133.291V135.648V136.931C9.60781 138.88 8.02857 140.459 6.08048 140.459C4.1324 140.459 2.55316 142.038 2.55316 143.986V147.729C2.55316 151.744 5.80919 154.998 9.82388 154.995L79.9939 154.946L150.218 154.897C154.213 154.895 157.46 151.671 157.491 147.676L157.519 144.096C157.535 142.092 155.914 140.459 153.91 140.459C151.901 140.459 150.273 138.83 150.273 136.822V135.648V133.188C150.273 131.889 149.22 130.836 147.922 130.836C146.186 130.836 145.569 130.766 145.564 130.569C145.561 130.422 145.537 128.233 145.511 125.704L145.488 123.512C145.474 122.17 144.4 121.08 143.059 121.046C141.721 121.013 140.652 119.92 140.649 118.581L140.601 99.2356L140.552 79.8899C140.549 78.5512 139.481 77.4584 138.142 77.4247C136.823 77.3916 135.736 78.45 135.732 79.7693L135.684 99.1287L135.641 116.137C135.635 118.775 133.511 120.919 130.874 120.951C128.255 120.982 126.113 118.871 126.106 116.252L126.064 99.2467L126.015 79.8899C126.012 78.5512 124.944 77.4584 123.606 77.4247C122.287 77.3916 121.199 78.45 121.195 79.7693L121.147 99.1287L121.099 118.487C121.095 119.827 120.026 120.92 118.688 120.954C117.35 120.987 116.283 122.082 116.283 123.42V125.669C116.283 129.004 116.21 130.396 116.026 130.58C115.861 130.744 115.02 130.836 113.679 130.836C112.52 130.836 111.577 129.904 111.563 128.746L111.53 125.972L111.501 123.511C111.485 122.169 110.41 121.08 109.069 121.046C107.73 121.013 106.662 119.92 106.659 118.581L106.61 99.2356L106.562 79.8899C106.558 78.5512 105.49 77.4584 104.152 77.4247C102.833 77.3916 101.745 78.45 101.742 79.7693L101.693 99.1287L101.651 116.137C101.644 118.775 99.5209 120.919 96.8834 120.951C94.2643 120.982 92.1223 118.871 92.1158 116.252L92.0734 99.2467L92.0249 79.8899C92.0215 78.5512 90.9532 77.4584 89.615 77.4247C88.2961 77.3916 87.2081 78.45 87.2048 79.7693L87.1565 99.1287L87.1079 118.539C87.1046 119.857 86.067 120.94 84.7505 121C83.4268 121.06 82.3761 122.136 82.3466 123.46L82.292 125.918L82.2361 128.435C82.2076 129.72 81.1757 130.756 79.8911 130.79C78.6296 130.823 77.5849 129.818 77.57 128.556L77.5395 125.979L77.5098 123.461C77.4942 122.14 76.4504 121.06 75.1305 121C73.813 120.94 72.7738 119.858 72.7673 118.539L72.672 99.1892L72.5767 79.8367C72.5703 78.5362 71.5142 77.4852 70.2136 77.4852C68.913 77.4852 67.8569 78.5362 67.8505 79.8367L67.7552 99.1892L67.6714 116.19C67.6586 118.791 65.5464 120.893 62.9452 120.893C60.344 120.893 58.2317 118.791 58.2189 116.19L58.1352 99.1892L58.0399 79.8367C58.0335 78.5362 56.9774 77.4852 55.6768 77.4852C54.3762 77.4852 53.32 78.5362 53.3136 79.8367L53.2183 99.1892L53.123 118.539C53.1165 119.858 52.0773 120.94 50.7599 121C49.441 121.06 48.3992 122.141 48.3875 123.461L48.3669 125.789C48.3442 128.363 48.2395 130.556 48.1343 130.661C48.0291 130.767 46.9895 130.825 45.8242 130.791C44.6368 130.756 43.6846 129.798 43.6582 128.61L43.5984 125.918L43.5425 123.404C43.5139 122.118 42.4807 121.08 41.1944 121.046C39.9151 121.012 38.8946 119.967 38.8915 118.687L38.8429 99.2354L38.7945 79.9436C38.7911 78.5849 37.6887 77.4852 36.3299 77.4852C34.9702 77.4852 33.8661 78.5839 33.8594 79.9436L33.7646 99.1892L33.6804 116.297C33.6678 118.839 31.6036 120.893 29.0615 120.893C26.5195 120.893 24.4552 118.839 24.4427 116.297L24.3584 99.1892L24.2629 79.7879C24.2566 78.5047 23.2324 77.4583 21.9496 77.4245C20.2268 77.3789 19.6213 77.4328 19.544 77.6383ZM38.5746 128.377C38.5746 129.679 37.5238 130.736 36.2225 130.744L29.2999 130.785C22.6305 130.825 19.9433 130.773 19.7334 130.599C19.5234 130.424 19.4416 129.774 19.4416 128.28C19.4416 127.138 19.5068 126.138 19.5863 126.058C19.6658 125.979 23.9708 125.939 29.1528 125.97L36.2225 126.011C37.5238 126.019 38.5746 127.076 38.5746 128.377ZM72.6265 128.132C72.6665 129.502 72.6013 130.343 72.4401 130.537C72.2346 130.785 70.5837 130.836 62.8122 130.836H55.8933C54.534 130.836 53.4321 129.734 53.4321 128.375C53.4321 127.018 54.5364 125.92 55.8935 125.928L62.9986 125.97L70.4576 126.013C71.6333 126.02 72.5923 126.957 72.6265 128.132ZM106.324 126.048C106.601 126.154 106.663 126.558 106.663 128.25C106.663 129.577 106.57 130.416 106.406 130.58C106.214 130.772 103.789 130.836 96.809 130.836C88.4888 130.836 87.4543 130.799 87.3386 130.498C87.1623 130.039 87.1732 126.239 87.3515 126.061C87.5295 125.883 105.862 125.87 106.324 126.048ZM140.333 128.377C140.333 129.676 139.279 130.729 137.98 130.729H130.819H123.715C122.375 130.729 121.279 129.661 121.246 128.322C121.213 127.004 122.276 125.92 123.594 125.928L130.759 125.97L137.98 126.011C139.282 126.019 140.333 127.076 140.333 128.377ZM145.018 135.67C145.296 135.777 145.356 136.193 145.356 138.019C145.356 140.142 145.336 140.242 144.875 140.353C144.611 140.416 115.246 140.442 79.6198 140.41L16.9694 140.354C15.7862 140.353 14.8181 139.411 14.7838 138.229C14.7498 137.061 14.7707 135.979 14.8304 135.823C14.92 135.59 26.2461 135.541 79.8094 135.541C115.488 135.541 144.832 135.599 145.018 135.67ZM152.579 147.748C152.545 148.987 151.53 149.974 150.29 149.974H79.9405H9.60838C8.36837 149.974 7.36315 148.969 7.36315 147.729C7.36315 146.489 8.36784 145.482 9.60838 145.481L79.8336 145.377C119.692 145.318 152.38 145.326 152.472 145.396C152.565 145.465 152.613 146.523 152.579 147.748Z" fill="#1A7674"/>
</svg>
