<svg width="382" height="14" viewBox="0 0 382 14" fill="none" xmlns="http://www.w3.org/2000/svg">
<path d="M1.5 7.38078C64.7262 7.38078 127.952 7.38078 191.18 7.38078C221.6 7.38078 252.019 7.38078 282.439 7.38078C305.592 7.38078 329.544 8.50008 352.581 6.88149C357.612 6.52793 377.094 7.12204 380.492 4.38503C380.918 4.04171 364.729 2.92829 363.874 2.88723C345.07 1.98546 326.087 1.44725 307.227 1.38936C253.378 1.22417 200.521 2.3611 146.927 4.38503C103.49 6.02546 60.1051 11.375 16.4647 11.375C11.7805 11.375 -2.1748 12.3735 2.5094 12.3735C14.5774 12.3735 26.5416 11.5627 38.5912 11.1531C121.511 8.33473 204.485 12.3735 287.397 12.3735" stroke="#109D9A" stroke-width="2.31904" stroke-linecap="round"/>
</svg>
