<svg width="281" height="171" viewBox="0 0 281 171" fill="none" xmlns="http://www.w3.org/2000/svg">
<path d="M33.7841 132.328L24.2234 134.472L12.5024 82.1865L55.1521 72.6255L66.8731 124.911L57.3124 127.054L47.5504 83.5079L24.0221 88.7824L33.7841 132.328ZM81.4592 121.641L71.8985 123.784L60.1775 71.4989L80.1205 67.0282C83.2576 66.325 86.2935 66.2197 89.228 66.7124C92.1625 67.2051 94.8717 68.5589 97.3556 70.7739C99.8892 72.9777 101.586 75.9967 102.445 79.8309C103.305 83.6652 103.065 87.1444 101.726 90.2687C100.425 93.3321 98.534 95.7434 96.052 97.5026C93.6086 99.2009 90.8433 100.396 87.7559 101.088L77.3736 103.416L81.4592 121.641ZM71.6638 77.9454L75.448 94.826L84.934 92.6995C88.3699 91.9292 90.6866 90.5992 91.8843 88.7095C93.0707 86.77 93.3793 84.5305 92.81 81.9909C92.2518 79.5012 91.0279 77.6575 89.1382 76.4599C87.2485 75.2623 84.5857 75.0486 81.1498 75.8188L71.6638 77.9454ZM153.245 98.3312C149.238 104.721 143.475 108.758 135.956 110.444C128.437 112.129 121.502 110.938 115.151 106.871C108.8 102.803 104.771 96.9601 103.063 89.3414C101.355 81.7227 102.504 74.7187 106.511 68.3292C110.518 61.9398 116.28 57.9022 123.8 56.2166C131.319 54.531 138.254 55.722 144.604 59.7896C150.955 63.8572 154.985 69.7003 156.693 77.319C158.4 84.9377 157.251 91.9417 153.245 98.3312ZM133.997 101.705C139.126 100.555 142.857 97.8357 145.19 93.5472C147.573 89.2475 148.196 84.5581 147.057 79.479C145.919 74.3999 143.354 70.4249 139.363 67.5541C135.422 64.6721 130.888 63.8059 125.759 64.9557C120.68 66.0943 116.948 68.8135 114.565 73.1132C112.232 77.4017 111.634 82.0855 112.773 87.1646C113.912 92.2438 116.451 96.2243 120.392 99.1063C124.383 101.977 128.918 102.843 133.997 101.705Z" fill="#F2ACAE"/>
<path d="M178.977 101.829L168.714 104.13L158.828 60.0311L150.24 66.4195L144.681 58.1502L159.981 47.1415L166.395 45.7036L178.977 101.829ZM202.749 97.5944C197.725 98.7207 193.149 98.343 189.022 96.4613C184.949 94.5675 181.631 91.6623 179.068 87.7456C176.56 83.8168 174.688 79.0997 173.454 73.5941C172.22 68.0884 171.898 63.0238 172.49 58.4001C173.135 53.7644 174.895 49.7208 177.77 46.2693C180.699 42.8058 184.676 40.5108 189.7 39.3845C197.13 37.7189 203.38 39.1808 208.451 43.7702C213.576 48.3476 217.09 54.8858 218.996 63.3848C220.901 71.8837 220.514 79.2967 217.834 85.6236C215.207 91.9385 210.179 95.9288 202.749 97.5944ZM192.525 86.9184C194.892 88.4648 197.6 88.8964 200.646 88.2134C203.693 87.5304 205.957 85.9843 207.438 83.5752C208.972 81.1541 209.749 78.4819 209.767 75.5585C209.839 72.6232 209.467 69.3382 208.653 65.7034C208.053 63.0308 207.294 60.6466 206.375 58.5509C205.498 56.3898 204.389 54.4489 203.049 52.7283C201.709 51.0078 200.064 49.8047 198.114 49.1191C196.205 48.368 194.102 48.2501 191.803 48.7654C188.756 49.4484 186.493 50.9945 185.012 53.4036C183.531 55.8127 182.754 58.485 182.683 61.4203C182.664 64.3436 183.062 67.6226 183.877 71.2574C184.692 74.8922 185.732 78.0275 186.996 80.6632C188.314 83.287 190.157 85.372 192.525 86.9184ZM246.293 87.8329C241.269 88.9592 236.693 88.5815 232.566 86.6998C228.493 84.806 225.175 81.9008 222.612 77.9841C220.104 74.0553 218.232 69.3382 216.998 63.8326C215.764 58.3269 215.442 53.2623 216.034 48.6386C216.679 44.0029 218.439 39.9593 221.314 36.5078C224.243 33.0443 228.22 30.7493 233.244 29.623C240.674 27.9574 246.925 29.4193 251.995 34.0087C257.12 38.5861 260.634 45.1243 262.54 53.6232C264.445 62.1222 264.058 69.5352 261.378 75.8621C258.752 82.177 253.723 86.1672 246.293 87.8329ZM236.069 77.1569C238.436 78.7033 241.144 79.1349 244.19 78.4519C247.237 77.7689 249.501 76.2228 250.982 73.8137C252.516 71.3926 253.293 68.7204 253.311 65.797C253.383 62.8617 253.011 59.5767 252.197 55.9419C251.597 53.2693 250.838 50.8851 249.92 48.7894C249.042 46.6283 247.933 44.6874 246.593 42.9668C245.253 41.2463 243.608 40.0432 241.658 39.3576C239.749 38.6065 237.646 38.4886 235.347 39.0039C232.3 39.6869 230.037 41.233 228.556 43.6421C227.075 46.0512 226.298 48.7235 226.227 51.6588C226.208 54.5821 226.606 57.8611 227.421 61.4959C228.236 65.1307 229.276 68.266 230.54 70.9017C231.858 73.5255 233.701 75.6105 236.069 77.1569Z" fill="#F2ACAE"/>
</svg>
