<svg width="624" height="320" viewBox="0 0 624 320" fill="none" xmlns="http://www.w3.org/2000/svg">
<path fill-rule="evenodd" clip-rule="evenodd" d="M211.638 4.06981C189.413 18.1438 172.38 37.2024 167.116 53.8886C163.892 64.1055 165.482 83.5787 170.601 96.5902C171.658 99.2763 172.635 104.648 172.773 108.528C172.916 112.564 173.873 117.163 175.009 119.277C177.455 123.824 177.455 123.808 174.958 122.971C173.434 122.461 173.655 123.055 175.832 125.324C178.54 128.146 178.566 128.272 176.2 127.126C171.983 125.082 171.542 125.805 175.249 128.684L178.743 131.397L175.465 130.273C170.319 128.508 167.673 128.888 171.174 130.891C172.944 131.902 173.221 132.303 171.879 131.911C170.552 131.523 168.869 132.033 167.649 133.192C165.722 135.023 165.744 135.244 168.107 137.674L170.592 140.228L166.046 138.473C160.233 136.227 159.272 137.055 164.347 139.939C168.388 142.235 168.157 143.066 164.046 141.016C159.145 138.571 159.312 140.844 164.236 143.602L169.427 146.511L163.896 145.822C157.543 145.031 156.584 145.954 162.149 147.506C165.275 148.378 164.839 148.449 159.645 147.919C155.062 147.45 153.58 147.614 154.182 148.522C154.637 149.208 156.419 149.825 158.142 149.895C160.627 149.995 160.794 150.138 158.947 150.59C157.022 151.059 157.426 151.495 161.276 153.097L165.934 155.035L160.112 155.229L154.289 155.423L158.91 156.754L163.531 158.086L159.492 158.946L155.454 159.806L160.563 160.726C163.374 161.232 165.814 161.781 165.986 161.947C166.158 162.114 165.076 165.913 163.58 170.389C162.084 174.866 160.294 180.552 159.601 183.023C158.378 187.394 158.137 187.571 150.868 189.405C145.077 190.865 141.079 191.131 133.121 190.587C101.898 188.449 103.339 188.431 96.8354 191.038C88.8695 194.233 82.4592 201.044 79.7786 209.163C76.0605 220.429 63.1491 229.016 47.3406 230.74C41.4671 231.38 41.3088 231.323 40.0058 228.078C38.3802 224.035 32.1946 220.322 27.0734 220.317C23.3064 220.312 22.1105 222.021 24.38 224.165C25.0659 224.814 23.5114 225.281 20.188 225.424C12.8299 225.742 8.3945 229.421 14.2645 230.338C16.2883 230.654 15.7165 231.062 11.7516 232.13C6.76079 233.474 0 238.49 0 240.849C0 241.492 1.34028 242.018 2.97749 242.018C7.10313 242.018 16.3023 244.268 16.3023 245.276C16.3023 245.733 15.1227 246.42 13.6823 246.804C11.1147 247.487 11.1298 247.536 14.4415 249.222C16.6528 250.348 19.3962 250.745 22.3877 250.372C26.1791 249.897 26.8382 250.086 26.2629 251.481C25.6877 252.879 26.3119 253.054 29.9612 252.521C34.9719 251.79 41.3239 245.935 42.4942 240.969C43.1533 238.17 43.6936 237.924 50.4206 237.365C59.6197 236.6 68.3519 234.088 73.8108 230.636C77.6989 228.176 78.1577 228.1 78.7493 229.816C83.2196 242.791 92.5258 251.529 105.707 255.128C111.056 256.589 116.34 262.307 126.918 278.084C131.187 284.452 132.1 285.248 134.028 284.286C136.054 283.275 136.24 283.607 136.24 288.246V293.31L151.688 292.821C165.234 292.393 167.956 291.982 173.812 289.484C181.013 286.412 181.087 286.327 179.284 283.187C178.201 281.303 178.484 281.088 182.05 281.088C184.233 281.088 187.705 280.775 189.764 280.39C193.344 279.723 193.492 279.829 193.112 282.812C192.631 286.6 195.572 288.211 206.142 289.946C218.873 292.037 243.487 286.715 241.57 282.288C241.156 281.329 240.576 279.999 240.28 279.33C239.969 278.626 243.017 277.038 247.516 275.557C251.792 274.15 255.55 272.368 255.866 271.597C257.526 267.567 245.149 253.074 234.356 246.411C227.849 242.395 225.953 242.301 222.399 245.826C220.588 247.622 218.915 248.331 217.483 247.908C216.288 247.554 214.609 247.808 213.752 248.471C211.912 249.894 207.473 245.512 203.616 238.467C201.496 234.593 201.392 233.602 202.667 229.358C205.916 218.543 201.389 206.194 190.148 195.211L183.777 188.985L185.69 176.702C187.749 163.483 190.961 150.262 193.553 144.343L195.165 140.659L202.56 160.137C206.627 170.85 210.922 181.731 212.106 184.317C213.29 186.903 214.258 191.153 214.258 193.761C214.258 197.677 214.927 199.126 218.098 202.082C220.209 204.051 223.723 207.813 225.907 210.443C230.366 215.81 241.452 222.945 248.304 224.859C252.757 226.102 252.831 226.207 252.52 230.918C252.134 236.747 253.809 237.938 261.719 237.464C266.533 237.177 267.291 236.802 267.634 234.54L268.028 231.947L269.41 234.54C271.136 237.779 274.493 238.283 280.017 236.132C283.181 234.9 284.145 233.964 283.715 232.544C281.433 224.998 281.581 223.914 285.08 222.563C289.364 220.91 295.248 215.279 296.863 211.288C297.542 209.608 298.099 206.272 298.099 203.876C298.099 199.706 298.236 199.544 301.301 200.1C303.061 200.42 323.582 203.484 346.902 206.909L389.3 213.137L394.588 217.926C401.161 223.88 403.827 224.927 407.254 222.902C411.099 220.631 420.143 222.882 421.608 226.474C422.606 228.918 423.139 229.054 430.262 228.684C434.437 228.467 438.157 228.571 438.527 228.914C438.899 229.256 426.712 240.881 411.445 254.745L383.685 279.953L378.154 279.978C371.123 280.009 367.958 282.635 367.983 288.414C368.006 293.706 370.624 300.626 373.29 302.443C376.127 304.376 386.877 304.258 395.358 302.199C399.185 301.27 402.438 300.961 402.632 301.507C402.827 302.051 406.479 301.312 410.751 299.868C417.659 297.531 419.404 297.349 426.586 298.212C433.756 299.075 434.715 298.975 435.178 297.322C435.466 296.299 436.862 294.968 438.282 294.366C440.51 293.419 441.562 293.918 445.964 298.012C448.769 300.621 452.757 303.277 454.826 303.913C458.201 304.951 458.67 305.616 459.37 310.357C460.459 317.74 462.578 319.148 473.665 319.857C485.647 320.622 493.304 318.372 500.721 311.907C504.602 308.523 506.754 307.391 508.497 307.817C510.369 308.272 511.762 307.295 514.74 303.429C516.848 300.692 518.928 298.453 519.361 298.453C519.793 298.453 521.145 299.486 522.365 300.749C525.208 303.691 535.609 309.282 538.266 309.296C539.386 309.301 540.304 308.633 540.304 307.81C540.304 306.989 541.09 305.708 542.05 304.965C544.635 302.964 544.241 302.294 539.541 300.71C535.641 299.396 519.342 285.562 519.344 283.567C519.345 283.099 523.588 281.353 528.773 279.687C540.652 275.871 543.361 274.2 546.262 268.903C547.789 266.112 549.973 264.107 552.599 263.085C557.015 261.365 558.078 257.531 554.834 255.022C553.27 253.812 553.345 253.466 555.472 252.078C557.366 250.841 557.592 250.18 556.529 248.987C555.46 247.785 555.97 246.627 558.979 243.433C561.069 241.214 564.468 235.945 566.533 231.724C570.244 224.135 570.356 224.031 576.903 222.106C580.545 221.037 583.826 219.428 584.195 218.53C584.564 217.634 583.748 215.489 582.381 213.766C579.451 210.073 579.334 209.46 581.559 209.46C584.384 209.46 586.937 206.246 586.222 203.59C585.667 201.527 586.18 200.967 589.423 200.101C596.6 198.182 594.285 194.803 580.591 187.211C578.82 186.229 579.053 185.27 583.033 177.129C586.099 170.858 588.144 167.999 589.777 167.695C591.067 167.455 594.192 166.946 596.722 166.564C602.033 165.761 609.549 159.509 610.804 154.851C612.324 149.205 608.014 142.172 603.032 142.172C599.93 142.172 599.404 140.411 601.42 136.777C603.531 132.971 603.44 132.996 607.752 135.074C611.363 136.815 612.499 136.371 612.499 133.221C612.499 131.225 612.66 131.235 616.575 133.49C620.384 135.683 620.649 135.707 620.636 133.85C620.628 132.756 619.389 129.852 617.883 127.396C614.935 122.594 615.508 119.381 619.311 119.381C624.713 119.381 625.523 113.985 621.348 105.815C617.779 98.8302 613.953 94.1733 608.416 90.072C602.989 86.0532 600.695 86.4515 594.759 92.4433L590.41 96.8322L583.293 83.1902C579.378 75.6876 575.393 68.9437 574.438 68.2057C573.472 67.4579 568.184 66.6602 562.524 66.4085C551.414 65.9125 544.961 67.7531 544.961 71.417C544.961 74.9171 564.688 101.881 573.876 110.938C577.533 114.544 577.829 115.266 576.646 117.686C575.918 119.176 573.076 121.916 570.33 123.775L565.339 127.154L564.757 122.996C564.257 119.429 563.637 118.691 560.39 117.8C557.37 116.971 556.606 116.189 556.606 113.923C556.606 108.908 553.005 101.04 549.426 98.2333C544.618 94.463 540.42 94.7116 535.933 99.0321C530.965 103.816 528.542 109.695 528.51 117.041C528.481 123.964 529.836 128.075 533.177 131.189C535.444 133.302 535.278 133.319 508.479 133.708C478.859 134.137 476.745 134.544 472.737 140.588C469.775 145.053 469.806 151.273 472.81 155.804C475.28 159.53 483.293 163.878 487.689 163.878C489.088 163.878 490.232 164.064 490.232 164.293C490.232 164.521 487.092 170.764 483.253 178.165L476.273 191.623L468.697 195.105C464.531 197.02 461.121 199.234 461.121 200.026C461.121 200.819 458.324 202.288 454.905 203.292C447.727 205.402 445.176 205.574 444.608 203.988C444.233 202.939 438.163 201.938 430.539 201.667C427.108 201.545 422.694 204.498 422.694 206.915C422.694 207.718 422.243 208.374 421.692 208.374C421.14 208.374 420.94 207.15 421.246 205.655C421.553 204.159 421.11 202.155 420.26 201.202C417.983 198.645 410.42 199.894 406.39 203.493C404.107 205.531 402.901 206 402.293 205.084C401.736 204.242 399.744 204 396.634 204.397C393.447 204.803 376.88 202.659 347.263 198.009C322.748 194.159 302.252 191.01 301.719 191.01C301.184 191.01 300.424 188.438 300.027 185.294C298.938 176.657 295.957 169.644 292.083 166.606C287.896 163.322 286.487 163.231 282.713 165.997C279.595 168.282 277.138 167.327 277.138 163.829C277.138 161.295 273.482 158.534 268.392 157.224C265.992 156.606 260.56 153.78 256.319 150.944C252.08 148.107 242.467 142.262 234.96 137.956C227.453 133.648 221.038 129.714 220.705 129.213C220.373 128.711 221.4 127.508 222.987 126.539C229.417 122.612 233.341 110.247 230.044 104.303C225.984 96.9896 217.757 97.1252 208.773 104.654L203.118 109.392L199.395 105.261L195.673 101.128L206.42 94.0181C232.45 76.8011 254.532 53.1984 263.637 32.8624C266.957 25.4455 267.27 23.8762 265.431 23.8762C262.361 23.8762 224.715 48.7292 217.464 55.5426C206.878 65.4903 196.113 79.1605 191.336 88.7219C189.175 93.05 186.94 96.5902 186.372 96.5902C183.582 96.5902 181.958 95.1999 182.498 93.2747C182.943 91.688 183.753 91.3407 185.862 91.8345C188.933 92.5529 189.825 90.4334 186.894 89.3861C185.933 89.042 185.147 88.2205 185.147 87.5595C185.147 86.8975 190.459 76.5721 196.952 64.6134C210.494 39.6693 212.6 34.8094 217.766 16.5864C221.282 4.18051 221.621 0 219.109 0C218.535 0 215.174 1.83196 211.638 4.06981ZM214.827 14.9226C213.752 18.9523 211.104 26.2476 208.943 31.1357C205.718 38.4277 182.067 85.7146 181.274 86.4536C181.146 86.5719 178.597 86.1834 175.61 85.5898L170.178 84.5099L169.367 77.4404C168.329 68.4173 169.143 63.0777 173.054 53.2429C177.245 42.707 185.374 31.445 195.171 22.6032C205.646 13.1482 215.904 5.43292 216.393 6.63976C216.607 7.16612 215.901 10.8941 214.827 14.9226ZM259.672 32.4196C259.672 34.0334 248.74 48.9984 241.732 56.9774C231.984 68.0776 211.362 87.4326 205.113 91.3494C202.138 93.2139 198.259 95.9824 196.492 97.5029C194.023 99.629 192.965 99.9697 191.906 98.9821C189.97 97.1784 195.568 86.4558 203.899 76.011C215.353 61.6517 230.196 48.9256 249.77 36.6826C258.156 31.4385 259.672 30.7851 259.672 32.4196ZM569.659 69.3387C571.606 70.029 574.472 74.1878 579.698 83.9141C583.72 91.3993 589.779 101.377 593.161 106.086L599.311 114.65L591.75 112.697C587.592 111.621 583.088 111.001 581.742 111.315C580.001 111.722 578.239 110.854 575.639 108.309C569.738 102.532 560.624 90.7644 554.205 80.6344C548.629 71.8371 548.37 71.1143 550.312 69.7913C552.689 68.171 565.519 67.8714 569.659 69.3387ZM175.772 88.0512C179.183 89.1592 179.486 89.602 178.851 92.5605C178.059 96.2483 176.025 98.9995 174.667 98.2181C174.172 97.9327 173.414 95.9499 172.984 93.8119C172.554 91.6739 171.914 89.2265 171.563 88.3735C170.794 86.5046 170.97 86.4905 175.772 88.0512ZM546.126 87.4933C546.126 87.8623 547.698 89.8332 549.619 91.8725C551.541 93.9117 553.113 96.0519 553.113 96.6282C553.113 97.2045 553.637 97.6755 554.277 97.6755C556.67 97.6755 555.323 93.0565 552.038 89.9949C548.891 87.0625 546.126 85.8925 546.126 87.4933ZM218.316 93.4396C212.682 96.2027 210.035 98.4417 211.162 99.4922C211.624 99.9231 214.737 98.9821 218.079 97.4009C221.422 95.8196 225.106 94.2612 226.267 93.9378C228.777 93.2388 227.786 91.1638 224.943 91.1638C223.851 91.1638 220.869 92.1883 218.316 93.4396ZM610.802 95.7762C618.853 104.401 623.234 116.125 618.407 116.125C617.171 116.125 615.091 117.393 613.784 118.943L611.406 121.761L608.215 119.422C603.449 115.928 593.868 103.179 593.868 100.331C593.868 98.9626 595.225 96.3395 596.883 94.5032C601.309 89.5999 605.383 89.9732 610.802 95.7762ZM191.021 102.051C195.017 104.703 198.53 109.118 200.964 114.545C202.34 117.616 202.4 118.402 201.223 118.01C198.877 117.229 195.627 119.23 195.627 121.457C195.627 124.028 198.581 126.317 200.852 125.505C203.243 124.651 203.068 126.214 200.438 129.243C198.394 131.595 197.963 131.664 193.379 130.385C185.896 128.296 179.657 122.406 177.458 115.357C173.187 101.664 180.148 94.8353 191.021 102.051ZM550.492 104.146C551.991 106.914 553.113 110.975 553.113 113.627C553.113 117.589 552.485 118.803 548.808 121.943C545.159 125.06 544.259 125.394 542.905 124.13C541.728 123.034 540.714 122.937 539.059 123.762C536.544 125.017 536.533 125.042 537.517 127.432C537.906 128.376 539.462 129.149 540.974 129.149C542.94 129.149 543.533 129.613 543.054 130.777C541.165 135.364 533.884 128.532 532.679 121.043C531.667 114.75 533.943 106.035 537.681 101.895C539.98 99.349 541.401 98.7163 544.244 98.9746C547.229 99.2448 548.337 100.163 550.492 104.146ZM225.239 103.017C228.645 106.526 228.798 112.735 225.615 118.282C221.896 124.762 216.643 127.643 210.95 126.328C206.091 125.206 204.073 121.49 208.778 122.329C212.173 122.933 215.423 120.192 215.423 116.723C215.423 113.595 212.83 111.513 208.937 111.513H205.95L209.231 108.256C211.995 105.512 220.141 101.037 222.52 100.955C222.901 100.942 224.125 101.87 225.239 103.017ZM561.867 113.923C560.664 115.737 561.224 115.974 568.601 116.783C573.054 117.27 575.237 117.124 575.237 116.339C575.237 114.686 574.215 114.267 568.097 113.414C564.464 112.907 562.43 113.073 561.867 113.923ZM592.783 115.694C596.262 116.651 599.302 117.605 599.539 117.814C599.775 118.022 598.016 120.674 595.628 123.706C592.71 127.412 591.493 129.95 591.914 131.454C592.565 133.772 585.943 146.257 582.754 148.724C581.822 149.445 581.059 150.715 581.059 151.548C581.059 152.541 583.115 151.743 587.036 149.229C590.324 147.121 594.264 145.104 595.792 144.746C599.636 143.848 605.498 146.336 606.746 149.396C609.735 156.724 597.117 166.032 586.469 164.355C582.355 163.707 581.891 163.823 583.111 165.194C584.26 166.486 583.193 169.527 577.444 181.339C573.547 189.344 569.633 196.429 568.745 197.083C567.858 197.736 562.588 198.864 557.034 199.589L546.936 200.905L542.164 196.61C533.452 188.769 515.713 179.944 505.644 178.444C499.943 177.595 499.11 178.665 504.189 180.314C507.204 181.294 507.5 181.732 506.417 183.617C505.409 185.374 504.427 185.66 501.284 185.11C497.048 184.37 496.945 184.498 495.521 192.366C494.604 197.436 496.75 197.883 498.133 192.911C499.342 188.559 501.631 188.035 505.864 191.139C509.192 193.579 515.85 201.512 515.85 203.038C515.85 203.506 514.409 203.86 512.648 203.824C510.887 203.789 505.589 204.862 500.874 206.209C489.133 209.565 484.169 209.562 480.328 206.197C477.745 203.936 477.386 202.925 478.029 199.706C479.702 191.316 492.389 166.286 495.349 165.533C496.058 165.353 501.226 164.177 506.834 162.922C517.809 160.463 532.306 154.217 539.563 148.816L544.062 145.468L540.943 144.363C536.837 142.908 522.457 142.892 523.419 144.343C523.815 144.94 526.697 145.428 529.824 145.428C532.95 145.428 535.802 145.87 536.159 146.41C537.215 148.002 516.103 157.08 505.438 159.619C489.482 163.419 478.321 160.879 475.451 152.797C473.804 148.162 475.124 142.38 478.474 139.555C481.772 136.774 492.905 135.706 518.761 135.689L542.05 135.674L543.994 138.858C546.162 142.41 553.382 144.526 555.762 142.308C556.732 141.404 556.332 141.086 554.219 141.082C551.509 141.079 551.557 140.97 555.174 138.915C557.268 137.725 559.546 135.596 560.237 134.185C560.926 132.775 563.336 130.799 565.594 129.797C572.3 126.816 577.573 122.538 579.995 118.112C582.573 113.403 583.687 113.193 592.783 115.694ZM208.744 115.689C209.127 116.046 209.171 116.991 208.841 117.791C208.095 119.605 204.943 118.603 204.943 116.552C204.943 115.037 207.437 114.47 208.744 115.689ZM608.516 122.815C611.337 124.703 614.513 127.482 615.571 128.987L617.496 131.725L614.259 129.352C610.034 126.254 608.607 126.352 609.291 129.691C609.94 132.856 608.813 133.154 606.024 130.556C604.156 128.814 603.895 128.877 601.53 131.642C598.712 134.935 597.362 135.359 597.362 132.947C597.362 132.052 596.838 131.319 596.197 131.319C595.557 131.319 595.033 130.797 595.033 130.158C595.033 128.831 601.806 119.381 602.759 119.381C603.103 119.381 605.694 120.927 608.516 122.815ZM199.121 121.552C199.121 122.149 198.597 122.637 197.956 122.637C197.316 122.637 196.792 122.149 196.792 121.552C196.792 120.955 197.316 120.466 197.956 120.466C198.597 120.466 199.121 120.955 199.121 121.552ZM560.94 124.848C560.228 129.793 555.452 136.293 551.203 138.098C548.934 139.061 547.998 138.956 546.516 137.575C541.704 133.089 550.035 120.466 557.808 120.466C561.531 120.466 561.564 120.512 560.94 124.848ZM542.633 125.893C542.633 126.49 542.402 126.978 542.119 126.978C541.836 126.978 541.282 126.49 540.886 125.893C540.49 125.296 540.722 124.808 541.399 124.808C542.077 124.808 542.633 125.296 542.633 125.893ZM234.92 141.514C263.404 158.528 261.622 156.302 250.042 160.403C238.134 164.618 225.103 172.934 219.972 179.594C216.351 184.292 214.332 184.594 214.276 180.445C214.266 179.708 210.646 170.428 206.232 159.824C196.184 135.692 195.746 133.969 199.428 133.109C200.945 132.754 202.847 131.314 203.654 129.909C205.031 127.51 205.426 127.427 210.166 128.55C212.961 129.212 224.013 134.999 234.92 141.514ZM192.158 134.575C193.801 134.575 193.459 135.81 189.174 145.365C182.653 159.906 178.243 191.328 182.083 195.894C183.715 197.834 183.913 197.863 183.945 196.165C183.966 195.121 184.261 194.266 184.601 194.266C185.984 194.266 192.955 202.435 196.487 208.194C203.52 219.665 200.918 233.13 190.052 241.501C186.358 244.347 186.143 244.383 183.931 242.517C179.263 238.58 180.348 242.247 186.862 252.421C192.51 261.24 193.46 263.458 192.921 266.559C192.037 271.632 193.756 271.179 195.647 265.84C196.503 263.422 197.723 261.144 198.36 260.778C199.09 260.357 199.161 260.877 198.553 262.189C198.025 263.332 197.03 266.343 196.344 268.879C195.659 271.415 194.824 273.484 194.49 273.475C192.942 273.433 191.341 271.446 188.819 266.437C184.021 256.909 174.568 243.103 172.842 243.103C170.865 243.103 170.681 244.381 172.423 246.004C173.889 247.371 172.494 247.755 158.947 249.711C153.824 250.451 143.001 251.089 134.899 251.129C120.59 251.201 120.096 251.125 117.762 248.509C116.439 247.029 115.341 246.416 115.319 247.147C115.271 248.792 117.233 251.736 127.216 264.992C131.538 270.733 135.111 276.337 135.155 277.445C135.216 279.01 135.502 278.854 136.437 276.747C140.156 268.361 140.998 266.98 142.391 266.98C143.449 266.98 142.831 269.155 140.386 274.034C138.191 278.413 136.143 281.088 134.983 281.088C133.909 281.088 130.144 276.826 126.119 271.049C114.664 254.615 103.093 243.413 105.152 250.751C105.739 252.845 105.459 252.805 100.339 250.062C93.6064 246.456 86.1027 239.312 83.3314 233.87C81.6767 230.618 81.346 227.915 81.7582 220.965C82.9739 200.419 96.1251 190.358 118.651 192.74C133.406 194.3 147.747 193.892 154.977 191.705L161.487 189.737L165.314 176.535C169.301 162.782 174.225 150.059 180.416 137.51L184.055 130.134L187.4 132.355C189.241 133.576 191.382 134.575 192.158 134.575ZM546.517 131.935C546.132 132.87 546.375 134.156 547.057 134.792C548.499 136.136 551.948 135.196 551.948 133.459C551.948 132.809 551.336 132.629 550.586 133.061C549.669 133.589 549.467 133.254 549.967 132.04C550.456 130.85 550.114 130.234 548.964 130.234C548.003 130.234 546.903 130.999 546.517 131.935ZM171.786 134.366C171.429 134.7 170.489 134.367 169.698 133.624C168.557 132.552 168.691 132.428 170.351 133.017C171.499 133.425 172.145 134.031 171.786 134.366ZM597.362 137.831C597.362 138.428 596.576 138.916 595.615 138.916C594.654 138.916 593.868 138.428 593.868 137.831C593.868 137.234 594.654 136.746 595.615 136.746C596.576 136.746 597.362 137.234 597.362 137.831ZM593.868 142.172C593.868 142.769 593.051 143.257 592.053 143.257C591.055 143.257 590.561 142.769 590.957 142.172C591.353 141.575 592.169 141.087 592.772 141.087C593.376 141.087 593.868 141.575 593.868 142.172ZM165.643 151.573C164.843 151.874 163.533 151.874 162.732 151.573C161.932 151.272 162.586 151.026 164.187 151.026C165.788 151.026 166.444 151.272 165.643 151.573ZM591.67 153.312C588.896 154.65 588.167 156.702 590.375 156.959C591.015 157.034 592.014 157.155 592.594 157.23C593.175 157.305 593.346 158.464 592.975 159.808C592.373 161.983 592.513 162.087 594.249 160.761C595.32 159.941 596.197 158.299 596.197 157.112C596.197 155.233 596.725 155.046 600.273 155.666C604.459 156.398 605.411 155.535 602.951 153.242C601.147 151.561 595.226 151.598 591.67 153.312ZM489.941 154.435C487.251 155.426 485.321 158.451 487.379 158.451C489 158.451 494.89 155.025 494.89 154.082C494.89 152.824 494.176 152.875 489.941 154.435ZM505.603 154.327C503.702 156.1 503.847 157.366 505.952 157.366C506.913 157.366 507.699 157.162 507.699 156.912C507.699 156.663 508.017 155.686 508.406 154.742C509.24 152.716 507.593 152.472 505.603 154.327ZM496.637 156.039C494.715 157.066 492.916 158.039 492.639 158.198C492.361 158.357 492.667 158.984 493.317 159.59C494.946 161.108 497.882 159.869 500.087 156.732C502.255 153.649 501.416 153.48 496.637 156.039ZM264.912 160.622C265.308 161.219 265.119 161.707 264.494 161.707C263.867 161.707 262.527 162.003 261.514 162.366C260.305 162.798 259.672 162.426 259.672 161.281C259.672 159.364 263.739 158.853 264.912 160.622ZM273.15 161.838C273.497 162.363 273.27 162.792 272.645 162.792C270.658 162.792 267.823 161.507 267.823 160.608C267.823 159.517 272.296 160.55 273.15 161.838ZM256.178 162.134C256.178 163.77 252.797 165.43 251.646 164.357C251.26 163.996 251.958 163.007 253.201 162.161C255.993 160.257 256.178 160.256 256.178 162.134ZM248.573 164.909C249.318 166.03 244.732 168.765 243.708 167.811C243.364 167.49 243.392 166.474 243.771 165.552C244.535 163.698 247.507 163.299 248.573 164.909ZM279.331 171.041C282.288 173.997 285.857 177.868 287.262 179.643C290.963 184.317 290.708 180.419 286.978 175.296C283.613 170.675 283.642 167.676 287.053 167.676C290.113 167.676 295.523 177.712 296.412 185.041C297.012 189.971 296.927 190.24 295.487 187.992C293.258 184.51 292.434 185.924 293.553 191.31C298.072 213.077 288.347 223.568 263.653 223.568C249.015 223.568 235.249 217.161 227.719 206.842C221.743 198.652 221.627 196.959 226.509 189.382C236.702 173.566 251.865 164.582 267.104 165.329C273.64 165.65 274.202 165.912 279.331 171.041ZM241.041 168.697C241.041 169.558 240.571 170.532 239.998 170.862C238.799 171.552 237.354 168.76 238.404 167.783C239.654 166.618 241.041 167.099 241.041 168.697ZM235.259 174.142C233.769 175.816 230.561 176.462 230.561 175.088C230.561 174.687 231.439 173.454 232.512 172.348C234.941 169.847 237.561 171.557 235.259 174.142ZM227.979 180.958C225.888 183.039 225.243 183.248 224.956 181.937C224.755 181.021 225.184 179.237 225.911 177.973C226.982 176.108 227.55 175.923 228.934 176.994C230.405 178.132 230.274 178.674 227.979 180.958ZM246.424 179.232C242.95 182.024 241.045 187.835 242.207 192.095C242.875 194.543 243.034 194.388 243.84 190.505C247.005 175.255 259.076 175.811 266.577 191.552C267.43 193.343 268.357 194.22 268.637 193.501C269.436 191.449 265.782 185.183 261.566 181.376C256.331 176.646 250.641 175.841 246.424 179.232ZM223.239 188.548C221.853 191.383 220.129 190.004 220.098 186.036C220.074 182.844 221.349 182.044 223.035 184.193C224.09 185.538 224.143 186.697 223.239 188.548ZM516.038 184.056C517.798 184.642 517.762 185.033 515.631 188.398C514.345 190.431 513.081 192.095 512.824 192.095C512.568 192.095 511.273 191.085 509.948 189.85C507.675 187.731 507.646 187.449 509.439 184.897C510.486 183.41 511.962 182.466 512.722 182.802C513.482 183.137 514.975 183.701 516.038 184.056ZM249.192 184.476C246.574 186.02 247.123 194.959 250.173 200.483C254.712 208.703 264.282 210.541 266.164 203.554C267.215 199.648 263.759 191.142 259.428 186.977C255.691 183.384 252.406 182.58 249.192 184.476ZM255.444 200.506C256.521 202.447 256.876 204.033 256.232 204.033C254.214 204.033 250.356 195.63 250.356 191.234C250.356 184.738 252.021 184.703 252.793 191.183C253.173 194.371 254.365 198.566 255.444 200.506ZM259.546 191.898C262.408 197.168 263.42 202.029 262.065 203.996C261.215 205.231 260.465 204.49 258.716 200.688C255.856 194.471 254.215 186.08 256.068 187.147C256.787 187.562 258.352 189.7 259.546 191.898ZM524.507 188.11C526.506 189.473 526.408 189.851 522.691 195.106C520.53 198.161 518.432 200.686 518.029 200.719C517.627 200.751 516.647 199.313 515.851 197.524C514.543 194.578 514.7 193.912 517.515 190.469C520.988 186.228 521.494 186.057 524.507 188.11ZM220.282 196.734C219.793 199.836 219.651 199.925 218.172 198.042C216.429 195.819 216.218 194.255 217.307 191.609C218.517 188.67 220.905 192.782 220.282 196.734ZM583.939 192.311C586.838 193.624 589.21 195.117 589.21 195.628C589.21 196.14 586.721 197.537 583.679 198.733C580.638 199.928 576.178 201.687 573.77 202.64C567.694 205.045 569.262 205.74 575.964 203.612C582.705 201.472 582.224 201.451 582.224 203.882C582.224 205.557 579.083 206.753 563.884 210.868C531.683 219.589 519.163 222.676 518.504 222.062C518.151 221.733 516.231 219.162 514.236 216.35C512.242 213.537 509.877 211.015 508.98 210.746C507.693 210.359 507.741 210.776 509.202 212.72C510.958 215.059 510.864 215.397 507.353 219.294C505.278 221.597 503.327 222.913 502.912 222.289C502.416 221.54 501.327 221.595 499.599 222.457C497.497 223.506 496.634 223.412 494.895 221.944C493.722 220.956 489.748 219.005 486.061 217.608L479.358 215.068L483.922 213.285C486.432 212.304 492.264 210.825 496.884 209.998C501.503 209.171 506.219 208.043 507.364 207.493C508.508 206.942 515.734 206.205 523.419 205.854C543.736 204.929 582.165 199.095 584.932 196.517C585.745 195.759 584.857 194.908 582.136 193.842C579.943 192.982 577.886 192.549 577.566 192.878C577.246 193.208 577.642 193.697 578.446 193.964C580.536 194.66 579.017 196.436 576.333 196.436C573.684 196.436 573.653 196.31 575.424 192.689C577.066 189.33 577.328 189.318 583.939 192.311ZM532.444 192.521C535.145 194.432 535.001 195.239 531.202 199.506C528.545 202.493 527.318 203.058 524.129 202.762L520.273 202.405L524.757 196.724C527.223 193.599 529.503 191.051 529.824 191.061C530.144 191.071 531.323 191.727 532.444 192.521ZM301.969 196.001C301.039 198.258 298.099 197.843 298.099 195.453C298.099 193.942 298.706 193.532 300.347 193.931C301.684 194.257 302.342 195.096 301.969 196.001ZM311.394 194.924C312.407 195.287 313.236 196.294 313.236 197.163C313.236 199.56 305.8 198.624 305.301 196.165C304.899 194.189 307.727 193.613 311.394 194.924ZM475.516 196.979C475.134 197.907 473.397 198.607 471.477 198.607C467.438 198.607 467.158 197.807 470.728 196.47C474.673 194.992 476.264 195.161 475.516 196.979ZM322.552 198.627C322.552 200.468 322.04 200.705 319.35 200.102C315.382 199.216 315.146 199.032 316.1 197.594C316.521 196.957 318.146 196.436 319.71 196.436C321.785 196.436 322.552 197.028 322.552 198.627ZM540.503 198.232C541.674 199.22 542.633 200.399 542.633 200.85C542.633 201.765 533.46 203.444 532.64 202.679C532.041 202.121 536.627 196.436 537.677 196.436C538.06 196.436 539.331 197.245 540.503 198.232ZM331.496 198.186C335.083 199.082 333.561 201.863 329.483 201.863C326.013 201.863 324.251 200.435 325.463 198.607C326.278 197.377 327.827 197.269 331.496 198.186ZM342.348 201.979C342.348 203.618 341.826 204.079 340.505 203.607C339.492 203.244 338.182 202.948 337.594 202.948C337.006 202.948 336.525 202.215 336.525 201.32C336.525 200.307 337.625 199.692 339.436 199.692C341.621 199.692 342.348 200.263 342.348 201.979ZM353.829 202.435C354.154 202.737 353.837 203.526 353.127 204.188C351.337 205.856 345.841 204.393 345.841 202.249C345.841 200.87 346.613 200.65 349.54 201.195C351.575 201.575 353.505 202.133 353.829 202.435ZM463.665 205.683C455.821 211.179 449.477 217.454 449.477 219.717C449.477 221.513 447.352 222.32 444.461 221.621C443.055 221.281 442.616 220.531 443.135 219.356C443.562 218.389 444.178 215.571 444.505 213.091C445.073 208.764 445.29 208.553 449.906 207.886C452.552 207.504 457.599 205.821 461.121 204.146C470.632 199.624 471.535 200.17 463.665 205.683ZM418.775 203.476C419.141 204.365 418.863 206.63 418.16 208.511L416.88 211.931L423.964 211.333L431.047 210.734L430.269 213.622C429.842 215.209 429.265 216.721 428.988 216.98C428.082 217.823 412.791 213.169 413.002 212.114C413.115 211.55 413.553 210.256 413.977 209.241C414.646 207.642 414.169 207.482 410.414 208.05C404.88 208.887 405.266 206.536 411.12 203.764C416.022 201.442 417.907 201.371 418.775 203.476ZM362.143 204.576C362.143 205.588 361.044 206.204 359.232 206.204C357.42 206.204 356.321 205.588 356.321 204.576C356.321 203.563 357.42 202.948 359.232 202.948C361.044 202.948 362.143 203.563 362.143 204.576ZM435.012 208.92C436.188 213.544 436.431 213.863 436.668 211.088C436.819 209.297 436.859 207.222 436.755 206.475C436.471 204.436 440.963 204.843 441.824 206.934C442.235 207.933 441.992 211.352 441.284 214.532C440.052 220.063 439.86 220.284 436.876 219.619C432.709 218.688 432.612 218.561 432.986 214.521C433.378 210.267 431.301 204.729 429.665 205.671C429.013 206.046 428.78 206.808 429.149 207.364C429.517 207.92 428.722 208.374 427.38 208.374C425.339 208.374 425.136 208.036 426.133 206.298C426.789 205.156 427.987 203.968 428.795 203.659C432.136 202.376 433.681 203.683 435.012 208.92ZM472.846 205.462C471.323 209.199 461.361 222.165 459.504 222.829C457.174 223.663 452.936 220.572 453.739 218.623C454.317 217.218 454.608 217.247 455.851 218.829C458.721 222.488 463.995 217.686 461.383 213.789C460.315 212.196 461.05 211.185 466.014 207.421C472.735 202.325 474.311 201.873 472.846 205.462ZM372.417 205.719C372.21 206.645 371.649 207.378 371.168 207.347C370.687 207.315 368.984 207.289 367.383 207.289C365.571 207.289 364.472 206.674 364.472 205.661C364.472 204.518 365.711 204.033 368.633 204.033C371.78 204.033 372.702 204.443 372.417 205.719ZM381.022 206.01C382.367 206.507 382.693 207.237 382.021 208.251C380.729 210.199 374.952 208.953 374.952 206.726C374.952 205.052 377.594 204.741 381.022 206.01ZM398.241 207.114C398.241 208.061 393.142 210.545 391.2 210.545C389.15 210.545 390.065 208.717 392.71 207.528C395.937 206.078 398.241 205.905 398.241 207.114ZM387.018 208.917C386.309 210.638 384.268 211.175 384.268 209.641C384.268 208.493 385.54 207.289 386.754 207.289C387.267 207.289 387.386 208.022 387.018 208.917ZM479.559 212.319C475.704 214.312 475.438 214.183 476.003 210.596C476.498 207.452 476.563 207.425 479.391 209.152L482.277 210.914L479.559 212.319ZM400.929 213.236C398.021 216.632 397.518 216.844 395.931 215.337C394.351 213.837 394.454 213.44 396.915 211.56C398.426 210.405 400.676 209.46 401.913 209.46C403.948 209.46 403.854 209.821 400.929 213.236ZM472.979 212.951C472.144 213.729 471.601 213.793 471.601 213.114C471.601 212.496 471.951 211.666 472.378 211.269C472.804 210.87 473.425 210.798 473.755 211.106C474.086 211.414 473.737 212.244 472.979 212.951ZM578.588 213.91C581.89 216.777 581.395 217.247 576.336 216.047C574.131 215.524 570.754 214.735 568.833 214.292L565.339 213.489L568.25 212.668C573.287 211.247 575.88 211.559 578.588 213.91ZM408.721 213.855C408.721 216.196 405.039 221.52 403.703 221.11C401.15 220.328 401.487 216.256 404.257 214.449C407.339 212.437 408.721 212.252 408.721 213.855ZM460.378 216.514C459.669 218.235 457.628 218.772 457.628 217.238C457.628 216.09 458.901 214.886 460.114 214.886C460.627 214.886 460.746 215.619 460.378 216.514ZM414.252 217.328C413.987 218.075 412.897 218.842 411.831 219.035C410.481 219.279 410.107 218.868 410.596 217.678C411.423 215.672 414.966 215.332 414.252 217.328ZM476.338 217.702C479.818 218.655 485.661 220.913 489.323 222.72C495.103 225.572 495.829 226.275 494.813 228.043C494.038 229.394 492.383 230.075 489.9 230.064C485.127 230.042 483.861 229.214 482.457 225.196C480.991 221.002 476.5 220.448 468.823 223.515C465.762 224.738 462.784 225.739 462.205 225.739C461.118 225.739 468.177 216.158 469.352 216.039C469.716 216.002 472.86 216.751 476.338 217.702ZM566.282 216.586C567.754 217.111 567.787 217.925 566.512 222.283C563.718 231.832 559.771 238.516 552.981 245.199C551.225 246.928 550.785 247.987 551.707 248.274C554.241 249.062 553.188 250.62 548.675 252.767C544.318 254.837 544.146 254.84 539.359 252.842C534.019 250.614 532.996 248.601 537.101 248.404C539.486 248.289 539.513 248.228 537.393 247.722C536.112 247.417 530.348 246.619 524.584 245.949L514.104 244.731L513.761 238.097L513.419 231.462L527.152 229.562C544.581 227.152 547.471 225.189 532.152 226.168C526.068 226.556 519.649 227.164 517.888 227.518C515.893 227.919 514.686 227.705 514.686 226.951C514.686 226.284 515.905 225.739 517.394 225.739C518.884 225.739 523.992 224.468 528.748 222.916C546.757 217.034 560.878 214.653 566.282 216.586ZM420.948 219.151C420.948 219.989 420.424 220.829 419.783 221.018C417.872 221.583 415.344 219.568 416.249 218.203C417.373 216.51 420.948 217.231 420.948 219.151ZM576.401 219.227C576.401 219.824 575.921 220.312 575.332 220.312C574.744 220.312 573.429 220.611 572.407 220.976C571.05 221.462 570.746 221.171 571.273 219.89C572.05 218.003 576.401 217.44 576.401 219.227ZM73.9075 226.512C68.3927 230.955 58.7603 234.355 49.3726 235.172L42.1146 235.804L40.156 240.583C38.3872 244.901 33.3835 249.617 31.9699 248.3C31.6602 248.012 32.4718 246.514 33.7736 244.973C35.0743 243.431 35.66 241.894 35.0755 241.558C34.4909 241.22 33.7445 241.598 33.4161 242.396C32.7175 244.092 26.5436 246.983 21.5423 247.958L18.0489 248.637L22.029 246.562L26.0091 244.487L18.5357 242.22C14.4252 240.973 9.49025 239.806 7.56891 239.628L4.07557 239.305L7.16252 237.351C8.86028 236.277 14.1003 234.762 18.807 233.984L27.3645 232.571L22.1245 230.263L16.8845 227.957L20.9601 227.971C23.2016 227.98 26.3456 228.684 27.9467 229.537C33.5291 232.511 34.2196 230.949 29.5898 225.822C26.2373 222.109 27.375 221.614 33.2718 224.221C36.2982 225.56 37.3788 226.839 37.9726 229.792L38.7447 233.627L47.0274 233.017C57.9452 232.213 65.5584 229.456 72.0921 223.942C76.2667 220.419 77.5289 219.82 77.8631 221.206C78.1123 222.238 76.4576 224.457 73.9075 226.512ZM429.39 219.911C432.222 220.618 432.491 221.182 431.023 223.339C429.749 225.21 423.859 223.19 423.859 220.882C423.859 219.109 425.221 218.87 429.39 219.911ZM513.456 221.284C514.969 223.918 512.813 225.646 509.129 224.752C506.632 224.147 506.587 223.973 508.322 221.669C510.566 218.688 511.907 218.587 513.456 221.284ZM439.055 222.483C439.623 222.483 439.786 223.216 439.418 224.111C438.366 226.667 434.339 226.144 434.339 223.452C434.339 221.813 434.861 221.352 436.181 221.824C437.194 222.187 438.488 222.483 439.055 222.483ZM446.857 224.252C450.745 225.223 450.154 227.909 446.052 227.909C442.473 227.909 440.682 226.503 441.908 224.654C442.738 223.402 443.277 223.358 446.857 224.252ZM426.8 226.615C426.443 226.949 425.503 226.616 424.712 225.873C423.571 224.801 423.705 224.677 425.365 225.266C426.513 225.674 427.159 226.28 426.8 226.615ZM480.335 227.911C481.126 231.272 481.555 231.47 490.815 232.789C499.497 234.025 499.701 234.171 498.847 238.574C498.422 240.767 497.968 242.684 497.837 242.835C497.708 242.986 494.555 242.132 490.831 240.938C483.871 238.706 480.917 239.23 480.917 242.693C480.917 244.475 479.047 244.674 477.943 243.009C477.513 242.36 476.162 242.072 474.943 242.37C473.723 242.667 471.985 242.221 471.082 241.379C470.178 240.537 468.092 239.848 466.444 239.848C461.821 239.848 462.656 236.203 468.235 232.03L473.02 228.452L469.69 227.806L466.361 227.159L469.272 225.975C470.873 225.324 473.845 224.76 475.876 224.722C479.055 224.663 479.674 225.105 480.335 227.911ZM501.859 228.245C501.869 228.728 501.408 228.853 500.835 228.523C500.261 228.192 499.463 228.721 499.06 229.699C498.658 230.676 498.064 231.229 497.741 230.929C497.418 230.627 497.722 228.987 498.417 227.283C499.427 224.809 499.9 224.505 500.761 225.776C501.355 226.65 501.849 227.762 501.859 228.245ZM279.769 229.266C280.409 233.254 279.074 234.572 274.81 234.16C272.553 233.941 271.812 233.173 271.514 230.741C271.099 227.347 272.731 225.782 276.716 225.755C278.635 225.742 279.332 226.544 279.769 229.266ZM458.712 227.473C458.991 227.732 458.655 228.472 457.966 229.114C456.127 230.828 452.48 229.83 451.994 227.481C451.637 225.745 452.058 225.563 454.89 226.225C456.714 226.652 458.434 227.213 458.712 227.473ZM265.314 228.518C265.535 228.695 265.362 230.339 264.93 232.172C264.239 235.109 263.665 235.506 260.125 235.506C255.64 235.506 254.34 233.814 255.504 229.492C256.182 226.977 256.623 226.801 260.579 227.468C262.962 227.869 265.092 228.341 265.314 228.518ZM466.124 228.995C466.867 228.995 466.61 229.771 465.537 230.771C463.231 232.92 459.687 231.999 460.709 229.516C461.105 228.554 462.174 228.054 463.114 228.39C464.044 228.722 465.398 228.995 466.124 228.995ZM509.966 231.979C511.634 237.573 511.496 241.409 509.47 245.929C507.494 250.337 504.744 249.945 505.94 245.427C506.669 242.674 506.519 242.722 502.176 246.652C499.69 248.903 497.295 250.41 496.855 249.999C495.676 248.901 495.88 246.13 497.087 246.826C499.102 247.986 500.905 244.208 501.814 236.922C502.321 232.86 502.804 230.148 502.889 230.894C502.973 231.641 503.621 232.251 504.33 232.251C505.039 232.251 505.338 231.566 504.993 230.729C504.267 228.969 505.117 227.909 507.257 227.909C508.08 227.909 509.3 229.741 509.966 231.979ZM452.495 232.355C460.106 234.457 460.712 234.841 460.219 237.248C459.512 240.692 462.028 243.402 465.376 242.806C466.834 242.546 468.213 242.853 468.44 243.488C468.667 244.122 470.229 244.699 471.911 244.767C476.558 244.957 483.505 248.347 486.57 251.921C490.089 256.024 507.699 282.319 507.699 283.472C507.699 283.951 507.045 284.347 506.244 284.351C505.444 284.354 502.692 284.906 500.13 285.579C496.201 286.61 495.837 286.93 497.801 287.626C501.92 289.082 486.243 295.18 476.402 295.949C467.519 296.644 466.159 298.453 474.52 298.453C481.731 298.453 497.247 293.631 502.459 289.771C504.876 287.98 507.633 286.515 508.583 286.515C512.215 286.515 506.892 291.367 498.825 295.411C482.962 303.362 465.489 305.151 454.33 299.969C440.398 293.497 438.177 283.873 448.168 273.268C453.425 267.687 455.469 267.567 460.672 272.533C465.918 277.539 468.116 278.074 464.615 273.491C461.833 269.85 462.158 269.574 466.711 271.711C471.014 273.731 476.259 274.818 476.259 273.69C476.259 271.399 434.022 254.975 432.287 256.591C431.714 257.125 437.492 260.018 443.545 262.226L447.73 263.754L441.326 263.17C433.884 262.493 435.224 264.009 443.752 265.916L449.111 267.114L445.621 270.574C440.749 275.404 437.44 282.753 438.192 287.075C438.744 290.243 438.336 290.873 434.052 293.487L429.303 296.386L418.807 293.58C407.927 290.671 393.988 284.504 390.743 281.161C388.995 279.361 390.573 277.686 415.711 254.659C430.469 241.141 442.926 230.079 443.39 230.077C443.856 230.075 447.954 231.1 452.495 232.355ZM198.259 249.886C201.966 255.731 202.284 256.723 200.55 257.058C199.444 257.271 197.871 257.951 197.055 258.569C195.292 259.902 195.746 260.309 190.641 252.817L186.539 246.794L189.628 245.048C191.326 244.088 192.994 243.257 193.336 243.202C193.676 243.148 195.891 246.156 198.259 249.886ZM487.817 244.635C488.792 245.729 488.818 246.376 487.909 246.899C486.559 247.677 483.246 245.657 483.246 244.056C483.246 242.556 486.312 242.944 487.817 244.635ZM493.726 245.274C493.726 245.871 493.495 246.359 493.212 246.359C492.929 246.359 492.375 245.871 491.979 245.274C491.583 244.677 491.815 244.189 492.493 244.189C493.17 244.189 493.726 244.677 493.726 245.274ZM214.138 251.344C216.873 249.038 217.37 250.19 214.933 253.185C212.436 256.254 205.079 255.12 202.954 251.339C201.616 248.96 201.577 248.066 202.752 246.747C204.014 245.33 204.718 245.67 207.951 249.259C211.662 253.379 211.708 253.394 214.138 251.344ZM231.492 247.879C237.723 250.888 254.46 269.124 252.48 270.746C252.273 270.916 248.943 272.117 245.079 273.418L238.056 275.78L228.226 267.038C222.819 262.23 217.988 258.297 217.491 258.297C215.274 258.297 216.975 255.104 221.427 250.914C226.834 245.824 227.084 245.748 231.492 247.879ZM525.878 248.52C527.232 248.525 530.278 249.966 532.647 251.721C537.454 255.281 547.691 258.866 549.717 257.698C550.654 257.158 550.579 256.673 549.453 256.007C548.196 255.266 548.26 255.071 549.768 255.058C552.146 255.037 554.728 257.825 553.726 259.335C553.313 259.958 550.649 260.468 547.804 260.468C542.975 260.468 540.805 261.89 544.081 262.908C546.298 263.597 539.841 272.012 535.485 274.111C533.469 275.082 528.647 276.989 524.769 278.348L517.717 280.819L514.708 276.884C513.053 274.72 508.762 268.514 505.172 263.094C498.925 253.661 498.744 253.183 500.935 251.908C502.755 250.849 503.592 250.861 505.02 251.965C506.531 253.134 507.21 252.883 509.296 250.385C511.553 247.68 512.295 247.463 517.597 247.962C520.799 248.264 524.526 248.516 525.878 248.52ZM493.688 250.634C494.55 252.136 494.512 252.961 493.552 253.513C492.049 254.379 488.797 250.902 489.756 249.456C490.776 247.918 492.41 248.408 493.688 250.634ZM179.235 256.392L181.834 260.454L175.657 256.663C168.822 252.467 166.871 252.113 163.536 254.464C162.294 255.341 160.351 256.074 159.222 256.092C158.092 256.112 156.134 256.729 154.869 257.466C152.929 258.595 152.192 258.453 150.165 256.563L147.76 254.323L157.889 252.919C163.458 252.146 169.382 251.15 171.05 250.704C174.481 249.788 175.437 250.452 179.235 256.392ZM137.405 259.273L142.645 263.181L138.927 266.742L135.209 270.303L129.32 263.053C126.082 259.066 123.431 255.418 123.431 254.948C123.431 252.851 132.6 255.689 137.405 259.273ZM147.433 258.392C149.924 260.233 152.113 261.882 152.3 262.055C152.488 262.227 151.339 262.6 149.747 262.884C147.523 263.28 145.839 262.432 142.475 259.22C138.672 255.591 138.413 255.041 140.502 255.041C141.825 255.041 144.943 256.549 147.433 258.392ZM497.833 256.175C498.246 256.797 497.908 258.066 497.083 258.993C495.74 260.5 495.499 260.467 494.799 258.674C493.566 255.515 496.042 253.474 497.833 256.175ZM177.625 261.653C183.929 265.715 186.539 268.13 187.471 270.764C188.227 272.899 189.779 274.638 191.311 275.068C193.819 275.771 193.825 275.811 191.552 276.734C190.271 277.254 186.165 277.714 182.428 277.756C175.713 277.831 175.538 277.754 167.566 271.15C159.508 264.476 159.503 264.466 161.399 261.654C163.493 258.552 166.39 256.127 168.004 256.127C168.577 256.127 172.906 258.614 177.625 261.653ZM158.365 260.502C158.365 262.689 155.432 264.607 154.052 263.322C153.426 262.738 156.884 258.297 157.963 258.297C158.184 258.297 158.365 259.289 158.365 260.502ZM214.508 260.586C219.568 262.992 228.895 271.168 234.593 278.191C238.345 282.814 238.065 283.324 230.561 285.54C224.092 287.451 205.843 288.045 200.846 286.508L196.489 285.168L197.204 279.059C198.12 271.233 199.678 266.243 202.587 261.824C205.329 257.659 207.808 257.401 214.508 260.586ZM503.041 265.559C503.041 266.34 502.573 266.98 502.001 266.98C500.773 266.98 499.533 264.289 499.585 261.736C499.617 260.174 499.857 260.215 501.332 262.032C502.272 263.191 503.041 264.778 503.041 265.559ZM158.428 268.961C163.379 271.895 175.832 283.617 175.832 285.345C175.832 287.655 150.606 291.573 143.609 290.35L139.429 289.619L140.099 284.343C140.772 279.047 144.274 271.339 147.618 267.794C150.107 265.156 152.43 265.407 158.428 268.961ZM507.035 272.755C505.8 275.756 504.206 274.818 504.206 271.089C504.206 267.95 504.385 267.768 505.995 269.267C507.007 270.212 507.459 271.726 507.035 272.755ZM512.357 280.689C512.357 283.314 510.353 283.159 509.02 280.431C507.295 276.903 508.625 274.576 510.788 277.333C511.651 278.433 512.357 279.943 512.357 280.689ZM386.229 288.685L388.78 294.654L381.146 294.978C376.948 295.156 373.317 295.121 373.08 294.898C372.842 294.677 372.322 292.976 371.923 291.12C370.967 286.669 375.688 281.858 380.502 282.374C383.149 282.66 384.103 283.71 386.229 288.685ZM391.075 285.287C392.775 286.404 396.523 288.454 399.405 289.844L404.645 292.372L401.152 293.113C392.899 294.865 391.888 294.488 389.256 288.685C387.904 285.701 387.064 283.259 387.391 283.259C387.717 283.259 389.375 284.172 391.075 285.287ZM516.977 285.363C517.781 286.763 517.795 287.693 517.018 288.14C515.275 289.144 513.521 287.752 513.521 285.365C513.521 282.657 515.422 282.655 516.977 285.363ZM521.913 293.236C520.004 295.016 517.59 292.766 518.65 290.194C519.377 288.425 519.557 288.419 521.374 290.112C522.894 291.529 523.012 292.212 521.913 293.236ZM515.757 297.62C513.267 302.117 509.977 304.749 507.574 304.164C505.936 303.764 503.752 305.052 499.911 308.682C496.957 311.475 492.94 314.531 490.983 315.474C486.256 317.752 474.552 318.534 468.399 316.982C463.344 315.707 461.32 313.203 466.07 314.1C467.512 314.373 470.161 314.887 471.96 315.243C476.25 316.092 488.432 313.993 493.67 311.502C498.584 309.167 508.914 299.268 511.723 294.204C513.681 290.676 513.734 290.656 515.414 292.892C516.769 294.694 516.84 295.663 515.757 297.62ZM412.747 295.122C413.757 296.645 411.646 297.452 405.52 297.887C402.477 298.103 398.515 298.807 396.713 299.45C391.368 301.361 378.012 302.149 375.154 300.723C370.683 298.494 372.428 297.37 380.483 297.286C384.806 297.242 392.535 296.567 397.659 295.788C409.528 293.983 411.922 293.877 412.747 295.122ZM500.972 301.809C496.952 305.335 493.284 308.205 492.821 308.187C492.359 308.167 491.099 307.022 490.023 305.642C488.076 303.141 488.096 303.12 494.681 300.622C498.318 299.243 502.603 297.254 504.203 296.202C509.922 292.44 508.154 295.508 500.972 301.809ZM527.303 297.932C527.645 300.664 527.468 300.869 525.847 299.615C523.654 297.919 523.342 293.73 525.457 294.376C526.258 294.622 527.088 296.221 527.303 297.932ZM534.481 302.91C534.481 304.04 534.021 304.965 533.459 304.965C531.809 304.965 529.559 301.9 530.343 300.718C531.465 299.025 534.481 300.622 534.481 302.91ZM539.122 303.608C539.111 304.056 538.595 305.154 537.975 306.05C537.062 307.366 536.843 307.21 536.828 305.236C536.818 303.892 537.334 302.794 537.975 302.794C538.615 302.794 539.131 303.16 539.122 303.608ZM487.863 307.063C489.572 310.041 489.604 310.008 483.894 311.347C476.892 312.99 471.165 312.874 466.324 310.989C460.368 308.67 461.056 306.259 467.817 305.762C482.931 304.652 486.614 304.891 487.863 307.063Z" fill="#1E7A78"/>
</svg>
