<svg width="20" height="29" viewBox="0 0 20 29" fill="none" xmlns="http://www.w3.org/2000/svg">
<path fill-rule="evenodd" clip-rule="evenodd" d="M11.9611 0.860131C10.2204 0.623554 8.43112 0.56519 7.05235 0.699961C6.35727 0.767908 4.03328 1.36814 3.15756 1.70587C2.37805 2.00652 2.12526 2.16504 2.07433 2.38513C2.06172 2.43962 1.95122 2.58877 1.82882 2.71659C0.892592 3.69425 0.437926 5.07496 0.573605 6.52856L0.598362 6.79369L0.443762 6.9028C0.243592 7.04403 0.182146 7.1644 0.2366 7.30885C0.273337 7.40638 0.308982 7.42878 0.496236 7.47212L0.713294 7.52235L0.827811 7.96346C1.02819 8.73523 1.33328 9.45356 1.7505 10.1357C2.09636 10.7012 2.36873 11.021 2.72352 11.2781C2.89662 11.4035 3.09093 11.5713 3.15537 11.651C3.30342 11.8341 3.45545 11.8996 3.8928 11.969C4.82533 12.1169 5.60457 11.8356 6.41233 11.0595C6.61954 10.8604 6.65295 10.8093 6.65917 10.6821C6.66313 10.6011 6.67416 10.4553 6.68359 10.3579C6.6939 10.2521 6.63854 9.9484 6.54576 9.6018C6.17018 8.19866 6.15687 8.12978 6.20608 7.84733C6.37206 6.89461 7.29779 5.97946 8.53379 5.54616C9.51213 5.20317 10.4886 5.14749 11.4837 5.37797C11.9353 5.48258 12.08 5.53306 12.3732 5.68855C12.936 5.98686 13.3714 6.37808 13.6592 6.84388C13.7828 7.04389 13.7855 7.05983 13.7139 7.16585C13.651 7.25898 13.6458 7.29673 13.6827 7.39458C13.707 7.45904 13.7737 7.53334 13.831 7.55972C14.009 7.64159 14.0391 7.68646 14.1115 7.97741C14.1679 8.20371 14.1703 8.29114 14.1238 8.41706C14.0758 8.54683 14.0786 8.59904 14.1398 8.71642C14.1839 8.80117 14.2026 8.90734 14.1859 8.97922C14.1706 9.04557 14.1699 9.19171 14.1844 9.304C14.2177 9.56125 13.9809 10.6292 13.8328 10.8892C13.5508 11.3845 13.5098 11.4232 13.1758 11.5082C13.0046 11.5519 12.806 11.6307 12.7347 11.6833C12.6138 11.7724 12.5969 11.815 12.6055 12.0092C12.6073 12.048 12.5477 12.0718 12.4316 12.0788C12.0625 12.1008 11.8401 12.2043 11.8012 12.3719C11.7736 12.4912 11.8612 12.6683 11.9589 12.6909C11.9919 12.6986 12.0132 12.7293 12.0063 12.7592C11.9835 12.8575 10.6592 13.6679 9.33375 14.3946C7.12512 15.6056 6.15673 16.2372 5.50915 16.889C4.96118 17.4405 4.66318 17.9408 4.52346 18.5436C4.3798 19.1634 4.46396 19.7953 4.78385 20.4994C4.9783 20.9273 5.09084 21.0331 5.2974 20.9819C5.59019 20.9093 5.59877 20.6695 5.33052 20.0558C5.05466 19.4249 5.02618 19.2137 5.14575 18.6876C5.25679 18.1993 5.40344 17.9314 5.80932 17.4755C6.13598 17.1085 6.47642 16.8273 7.14319 16.3738C7.75929 15.9548 7.95223 15.8608 8.11779 15.8991C8.18407 15.9144 8.42904 15.905 8.66207 15.8782C9.10276 15.8275 10.0207 15.7995 10.1454 15.833C10.2388 15.858 10.138 15.8775 9.16768 16.0215C7.86303 16.2151 7.42906 16.3499 7.37635 16.5776C7.35163 16.6844 7.42917 16.7648 7.68158 16.894L7.85103 16.9808L7.2936 17.0292C6.3543 17.1108 5.93854 17.2554 5.90555 17.5122C5.89461 17.5977 5.91878 17.6624 5.98325 17.7201C6.06712 17.7951 6.11316 17.8048 6.42476 17.813C6.61607 17.818 6.7903 17.8264 6.8119 17.8314C6.83348 17.8366 6.70891 17.8838 6.53507 17.9363C5.93164 18.1187 5.71029 18.2696 5.76375 18.462C5.80442 18.6084 6.01374 18.7335 6.2572 18.757C6.51264 18.7816 7.03983 18.7477 7.47099 18.6789C7.64651 18.6508 7.79707 18.6389 7.80558 18.6523C7.8141 18.6657 7.60417 18.7298 7.33903 18.7947C5.47606 19.251 5.49256 19.2448 5.49792 19.483C5.50381 19.7452 5.70055 19.8336 6.09472 19.7509C6.66895 19.6305 8.08305 19.4636 8.11422 19.5126C8.12039 19.5223 7.9126 19.5688 7.65246 19.616C6.75521 19.7785 6.29525 19.9757 6.23815 20.2224C6.17781 20.4832 6.46666 20.5895 7.16904 20.5651C7.4141 20.5566 7.66223 20.5484 7.72045 20.5469C7.80628 20.5447 7.78571 20.5647 7.61184 20.6524C7.29669 20.8115 7.09156 20.9532 6.9854 21.0852L6.89136 21.2022L6.39256 21.0868C5.73483 20.9346 5.51783 20.9705 5.45502 21.2419C5.40176 21.472 6.19667 21.7782 6.97063 21.8258C7.85241 21.88 8.44252 21.7388 9.10532 21.3149C9.69153 20.9401 10.2285 20.3773 11.071 19.2547C11.8828 18.1731 12.276 17.7215 12.7526 17.3235C12.8806 17.2166 13.7951 16.6367 14.7847 16.035C15.8507 15.3868 16.758 14.804 17.0109 14.6051C18.3728 13.5343 18.9738 12.6624 19.289 11.3007C19.4378 10.6575 19.4878 10.0287 19.4469 9.31288C19.2703 6.21919 17.8727 3.62213 15.5963 2.15787C14.5878 1.50911 13.267 1.03759 11.9611 0.860131ZM14.689 2.25877C15.7926 2.80599 16.6339 3.5436 17.3039 4.55115L17.6403 5.05701L17.3801 4.99906C17.1621 4.95052 16.7918 4.94726 16.4656 4.99099C16.42 4.99711 16.4375 4.96753 16.5214 4.89709C16.6797 4.76416 16.67 4.60496 16.4948 4.45746C16.347 4.33307 16.067 4.28512 15.5303 4.29231C15.3369 4.29488 15.1728 4.28795 15.1658 4.27689C15.1587 4.26583 15.296 4.1909 15.4708 4.11039C15.8366 3.94189 16.1127 3.74613 16.1378 3.63736C16.1565 3.55676 16.033 3.45307 15.8748 3.41646C15.7952 3.39802 15.7868 3.37663 15.8171 3.2686C15.8482 3.15784 15.8351 3.12808 15.7109 3.02675C15.5794 2.91941 15.5022 2.8965 14.6278 2.7051C13.7791 2.51931 13.2639 2.43546 12.9647 2.43445L12.8596 2.43408L12.9699 2.38463C13.2841 2.24383 13.5091 2.10074 13.5525 2.01432C13.5792 1.96114 13.6203 1.90226 13.644 1.88347C13.7031 1.83637 14.1893 2.01094 14.689 2.25877ZM11.3012 1.42299C11.29 1.42971 10.8953 1.42309 10.4241 1.40827C9.19181 1.36956 8.11618 1.41817 7.25514 1.55151C7.08707 1.57754 6.91498 1.59089 6.87277 1.58121C6.79683 1.56376 6.67392 1.42572 6.68639 1.37187C6.70178 1.30536 7.92812 1.22591 8.75892 1.23758C10.0134 1.2552 11.411 1.35712 11.3012 1.42299ZM8.44395 2.14382C8.437 2.17387 7.11657 2.34197 7.0366 2.323C6.95855 2.30452 7.10659 2.25196 7.56335 2.13601C7.95503 2.03662 8.06548 2.02498 8.24128 2.06472C8.35676 2.09082 8.44798 2.12642 8.44395 2.14382ZM12.9008 3.17847C12.8845 3.19471 12.8238 3.20603 12.7659 3.20364C12.6807 3.20007 12.6716 3.19106 12.7183 3.15617C12.7808 3.10938 12.9496 3.13 12.9008 3.17847ZM12.8878 4.02476C12.8354 4.0556 11.869 4.18258 11.8549 4.16046C11.8461 4.14663 11.8988 4.09851 11.9719 4.05353C12.0702 3.99317 12.1898 3.97359 12.429 3.97882C12.7564 3.98595 12.925 4.00282 12.8878 4.02476ZM7.54307 2.91565C7.52978 2.92379 7.26019 2.99048 6.94402 3.06385C6.62785 3.13722 6.22601 3.25086 6.05104 3.31631L5.73292 3.43537L5.85163 3.32474C5.91694 3.26392 5.99945 3.17111 6.03501 3.11858C6.09219 3.03411 6.18024 3.01538 6.79606 2.95677C7.47717 2.89192 7.59211 2.88562 7.54307 2.91565ZM17.9559 5.70287C18.5224 6.95168 18.877 8.65332 18.8537 10.0109C18.8462 10.4492 18.8214 10.6396 18.7081 11.1284C18.5664 11.74 18.4452 12.0462 18.1626 12.506C18.0356 12.7128 18.0137 12.7307 17.9429 12.6864C17.8996 12.6594 17.6778 12.5831 17.4501 12.517C17.0439 12.3991 17.0393 12.3966 17.2117 12.3857C17.3084 12.3797 17.4183 12.3818 17.4559 12.3905C17.4935 12.3992 17.5894 12.3664 17.6691 12.3176C17.7863 12.2458 17.8137 12.2068 17.8128 12.1129C17.8122 12.0491 17.7902 11.9573 17.7641 11.9088C17.702 11.794 17.476 11.7648 16.6661 11.7667C16.3361 11.7675 16.0671 11.7635 16.0684 11.7576C16.0698 11.7519 16.3007 11.6939 16.5817 11.6289C17.1721 11.4922 17.4248 11.3532 17.4747 11.1373C17.5035 11.0131 17.5211 11.0021 17.7457 10.9676C17.8778 10.9474 18.0756 10.8829 18.1854 10.8244C18.3504 10.7364 18.3844 10.6999 18.3825 10.613C18.3795 10.482 18.2581 10.3879 17.9607 10.2861C17.7022 10.1976 17.648 10.1401 17.8219 10.1389C18.2349 10.1362 18.5143 9.96131 18.4743 9.73054C18.4347 9.5017 18.3704 9.47858 17.4763 9.37143C17.0297 9.31788 16.581 9.26541 16.4793 9.25478C16.2177 9.22743 16.315 9.18233 16.7622 9.12359C17.2728 9.05652 18.0865 8.88334 18.19 8.81973C18.3233 8.73783 18.3539 8.52405 18.2505 8.39752C18.1472 8.27106 18.0303 8.23925 17.72 8.25326C17.5921 8.25904 17.4404 8.26418 17.3831 8.26468L17.2788 8.26554L17.417 8.16361C17.5626 8.05622 17.6081 7.96028 17.5539 7.87506C17.531 7.83905 17.6027 7.83421 17.7947 7.85872C18.1562 7.90491 18.3164 7.8645 18.3502 7.71861C18.3829 7.57716 18.2588 7.3766 18.0783 7.27939C17.8708 7.16761 17.4315 7.08001 16.9265 7.04969C16.6754 7.03464 16.4653 7.01549 16.4597 7.00724C16.4542 6.99897 16.5925 6.95574 16.7672 6.91126C17.2879 6.7786 17.4786 6.56509 17.3044 6.31005C17.2284 6.1989 17.1948 6.18466 16.8061 6.09852C16.5769 6.04773 16.3905 6.00097 16.392 5.9946C16.3935 5.98824 16.5306 5.94834 16.6967 5.90594C17.2329 5.76907 17.5488 5.59463 17.6933 5.35563C17.7476 5.26577 17.7725 5.29863 17.9559 5.70287ZM3.50854 2.70714C3.45321 2.79382 3.44782 2.83909 3.48202 2.92978C3.50562 2.99239 3.51129 3.05719 3.49462 3.07373C3.47795 3.09028 3.2914 3.14883 3.08005 3.20379C2.40232 3.38009 2.10585 3.57911 2.16967 3.81496C2.2034 3.93968 2.24805 3.9859 2.36057 4.01277C2.49456 4.04473 2.45864 4.09171 2.20966 4.21013C2.08608 4.2689 1.84534 4.39701 1.67467 4.49479L1.36438 4.67261L1.44433 4.43866C1.60553 3.9671 2.04782 3.33136 2.48729 2.93947C2.85006 2.61599 2.87388 2.60366 3.1642 2.58941C3.57233 2.56936 3.59219 2.57614 3.50854 2.70714ZM8.5109 3.84001C8.49967 3.84689 7.83092 4.01819 7.02485 4.22065C5.37786 4.63432 5.20118 4.68059 4.35745 4.9194C4.02738 5.01281 3.75129 5.07978 3.74391 5.06822C3.72105 5.03222 4.54912 4.66028 5.03675 4.48754C5.41549 4.35333 5.51036 4.30261 5.5516 4.21226C5.5954 4.11632 5.61986 4.10555 5.73413 4.132C5.86952 4.16333 6.24459 4.12955 6.93551 4.0238C7.89026 3.87764 8.58112 3.79704 8.5109 3.84001ZM11.2983 4.61865C11.304 4.69891 11.2865 4.70629 11.1379 4.68626C11.0462 4.67389 10.9649 4.65391 10.9571 4.64178C10.9495 4.62965 11.0129 4.58479 11.0982 4.54202C11.2607 4.4605 11.288 4.47095 11.2983 4.61865ZM12.7288 5.05765C12.7006 5.13032 12.6757 5.13636 12.5623 5.09809C12.4891 5.07331 12.3948 5.03047 12.3529 5.00288C12.2891 4.96089 12.3075 4.95298 12.4657 4.95445C12.7507 4.95713 12.7656 4.963 12.7288 5.05765ZM15.0334 5.68125C15.0313 5.69056 14.8657 5.74068 14.6655 5.79269C14.4511 5.84837 14.2243 5.94141 14.1137 6.01914L13.9258 6.15108L13.792 5.99988C13.7184 5.91673 13.5926 5.79437 13.5125 5.72792C13.4324 5.6615 13.37 5.59427 13.3737 5.57854C13.3774 5.56276 13.7212 5.57102 14.1376 5.59684C14.9548 5.64753 15.0394 5.65548 15.0334 5.68125ZM5.45146 3.65703C5.3759 3.73907 5.30625 3.76993 5.20336 3.76693C5.12463 3.76464 5.05574 3.75565 5.05022 3.74697C5.0447 3.73828 5.15187 3.68185 5.28845 3.62154C5.42498 3.56122 5.54115 3.51887 5.54658 3.52741C5.55201 3.53595 5.50921 3.59429 5.45146 3.65703ZM8.79215 4.8107C8.34592 4.97535 6.49362 5.54933 6.44488 5.53805C6.42143 5.53263 6.36643 5.47636 6.32268 5.41297L6.24315 5.29776L6.62157 5.24894C7.03186 5.19595 7.7372 5.0375 8.51844 4.82284C9.10068 4.66284 9.20543 4.6582 8.79215 4.8107ZM15.1638 6.6589C14.9535 6.73714 14.4693 6.85721 14.4149 6.84463C14.3826 6.83715 14.3378 6.78233 14.3153 6.72284L14.2746 6.61466L14.6848 6.60613C14.9104 6.60144 15.1309 6.60381 15.1748 6.61136C15.2542 6.62508 15.2542 6.62527 15.1638 6.6589ZM16.8136 7.72784C16.7963 7.74496 16.7102 7.76462 16.6221 7.77151C16.534 7.77843 16.0948 7.86438 15.646 7.96249C15.1973 8.06063 14.8171 8.13789 14.8012 8.13421C14.7532 8.12309 14.6863 7.68614 14.7292 7.66333C14.7708 7.64126 15.861 7.63306 16.3664 7.65101C16.7216 7.66364 16.8551 7.68659 16.8136 7.72784ZM5.76369 5.35863C5.76132 5.36888 5.69416 5.39315 5.61442 5.41252L5.46946 5.4478L5.56499 5.38147C5.64954 5.32278 5.77533 5.30835 5.76369 5.35863ZM1.66268 5.52503C1.42854 5.66593 1.22288 5.77796 1.20566 5.77397C1.16219 5.76391 1.15008 5.65111 1.17907 5.52584C1.20024 5.43439 1.233 5.41723 1.42632 5.39616C1.54888 5.38277 1.74286 5.34064 1.85739 5.30246C1.97196 5.26429 2.07077 5.2411 2.07708 5.25096C2.08333 5.26085 1.89686 5.38418 1.66268 5.52503ZM4.77273 6.54855C4.76477 6.58296 3.67956 6.9618 3.44479 7.01209L3.28977 7.04533L3.44935 6.96709C3.53709 6.92407 3.8408 6.79853 4.12426 6.68808C4.58908 6.50695 4.79249 6.46319 4.77273 6.54855ZM5.8387 7.00144C5.79745 7.07727 5.75955 7.14212 5.75448 7.14563C5.74942 7.14913 5.68145 7.11254 5.60345 7.06436L5.46163 6.97674L5.64025 6.9092C5.89202 6.81397 5.93086 6.83202 5.8387 7.00144ZM1.34843 6.53258C1.29842 6.5544 1.23861 6.56734 1.21552 6.56125C1.19238 6.55519 1.21442 6.53235 1.26439 6.51048C1.3144 6.48866 1.37421 6.47573 1.3973 6.48181C1.42044 6.48787 1.3984 6.51071 1.34843 6.53258ZM15.5991 9.78448C15.597 9.79344 15.4978 9.83314 15.3787 9.87278C14.9551 10.0136 14.7974 10.1556 14.8028 10.3915C14.8055 10.5153 14.9225 10.6036 15.1573 10.6593L15.3243 10.699L14.9999 10.7678C14.8215 10.8056 14.6545 10.8316 14.6287 10.8257C14.5953 10.8179 14.6193 10.6473 14.7132 10.2265L14.8444 9.63818L15.0322 9.66637C15.3429 9.71299 15.6031 9.7672 15.5991 9.78448ZM5.59627 7.71886C5.56981 7.83317 5.55365 7.84006 5.33899 7.82875L5.17298 7.82L5.36538 7.7162C5.5948 7.59242 5.62545 7.59277 5.59627 7.71886ZM5.52921 8.55418C5.52421 8.57579 5.49208 8.58697 5.45784 8.57905C5.4236 8.57112 5.41075 8.54953 5.42933 8.53107C5.44792 8.5126 5.48002 8.50141 5.50071 8.5062C5.52141 8.51099 5.53421 8.53258 5.52921 8.55418ZM2.17441 7.95363C2.17309 7.959 2.10699 8.04 2.02754 8.13356C1.94809 8.22716 1.87589 8.33486 1.8671 8.37284C1.84423 8.47167 1.93652 8.59832 2.03884 8.60851C2.0869 8.6133 2.1282 8.63126 2.13062 8.64845C2.13738 8.69691 1.91093 9.08264 1.88069 9.07415C1.83167 9.06045 1.4724 8.07771 1.48944 8.00406C1.49435 7.98285 1.5976 7.96647 1.71887 7.96756C1.84013 7.96868 1.97027 7.9589 2.00803 7.94579C2.07014 7.9242 2.18044 7.92941 2.17441 7.95363ZM2.93154 9.22971C2.65159 9.38902 2.38616 9.56034 2.34173 9.61044C2.29731 9.66054 2.23832 9.69626 2.21067 9.68986C2.16229 9.67866 1.97648 9.35519 1.98854 9.3031C1.99177 9.28912 2.04627 9.2788 2.10959 9.28018C2.17292 9.28155 2.48916 9.20422 2.81232 9.1083C3.13547 9.01241 3.40902 8.93531 3.42021 8.93698C3.4314 8.93866 3.21149 9.0704 2.93154 9.22971ZM6.19941 10.379C6.19614 10.3975 6.14619 10.4538 6.08837 10.5042L5.98329 10.5957L5.86208 10.4953C5.7954 10.44 5.718 10.3589 5.69007 10.3149C5.63856 10.2339 5.5646 10.2021 5.34567 10.1669C5.22762 10.1479 5.23313 10.1419 5.54241 9.95341L5.8606 9.75945L6.03297 10.0524C6.1278 10.2135 6.20272 10.3605 6.19941 10.379ZM17.5571 13.2934C17.5146 13.3348 17.4075 13.4403 17.3191 13.5279C17.1421 13.7031 17.0956 13.7109 17.0198 13.5775C16.9918 13.5283 16.8963 13.4578 16.8075 13.4209C16.6733 13.3652 16.6608 13.3514 16.7337 13.3389C16.7819 13.3308 16.9794 13.2956 17.1727 13.2609C17.6037 13.1834 17.6646 13.1885 17.5571 13.2934ZM13.1157 12.8759C13.0269 12.9072 12.9845 12.8974 12.9959 12.8482C13.0009 12.8265 13.0454 12.8185 13.0947 12.8303C13.1673 12.8476 13.1713 12.8563 13.1157 12.8759ZM12.4868 13.5473C12.5776 13.5801 12.649 13.6197 12.6454 13.6351C12.6387 13.6638 12.0617 13.6666 11.9406 13.6386C11.8916 13.6272 11.9185 13.5949 12.0424 13.5163C12.1506 13.4477 12.2307 13.4235 12.2663 13.4485C12.2968 13.47 12.396 13.5145 12.4868 13.5473ZM16.0653 14.499C16.0578 14.5316 15.4584 14.9081 15.4265 14.9003C15.4149 14.8974 15.4198 14.8173 15.4373 14.7222L15.4691 14.5492L15.7397 14.5068C16.0426 14.4592 16.0747 14.4585 16.0653 14.499ZM11.4905 14.1283L11.602 14.2928L11.1881 14.3235C10.9605 14.3403 10.7681 14.3446 10.7605 14.333C10.7448 14.309 11.3141 13.9488 11.3533 13.9579C11.3674 13.9611 11.4291 14.0378 11.4905 14.1283ZM14.4192 15.5192C13.7802 15.8957 13.6762 15.944 13.5939 15.9025C13.4636 15.8368 13.4635 15.8322 13.5887 15.7231C13.7072 15.6199 13.759 15.4878 13.7025 15.4327C13.6287 15.3606 13.698 15.3323 14.086 15.2762C14.3076 15.2441 14.6197 15.1848 14.7795 15.1444C14.9393 15.1039 15.0881 15.0748 15.1102 15.0796C15.1322 15.0844 14.8212 15.2822 14.4192 15.5192ZM12.1272 17.0058C12.0189 17.079 11.3359 17.7064 11.2981 17.7674C11.2829 17.792 11.2351 17.7768 11.159 17.7232C11.0912 17.6754 10.9708 17.6339 10.8692 17.6233C10.7258 17.6083 10.7104 17.6003 10.7815 17.5773C11.0327 17.4961 11.1152 17.4277 11.1516 17.2702L11.1881 17.1129L11.7005 16.9902C12.2052 16.8694 12.3227 16.8737 12.1272 17.0058ZM10.7673 18.4263C10.7503 18.4509 10.6491 18.5845 10.5424 18.7232L10.3484 18.9756L10.0772 18.9384C9.92808 18.9179 9.73184 18.8945 9.64112 18.8864C9.54904 18.8781 9.49403 18.8599 9.5166 18.8452C9.5831 18.8017 10.7249 18.3736 10.763 18.3778C10.7823 18.38 10.7843 18.4018 10.7673 18.4263ZM6.00365 23.4181C5.60817 23.432 5.08088 23.5746 4.76886 23.7519C4.50597 23.9014 4.46588 23.912 4.35125 23.8628C4.17669 23.7879 3.95908 23.8131 3.62334 23.9472C3.12818 24.145 2.7898 24.4277 2.57978 24.8188C2.44993 25.0607 2.40841 25.2499 2.41682 25.5615C2.44005 26.4194 3.03164 27.2524 4.00862 27.8028C4.48474 28.071 5.26356 28.2792 5.76614 28.2726C6.49072 28.2632 7.26548 27.9997 7.75806 27.5953C8.92517 26.6371 9.0513 25.1855 8.04921 24.2444C7.70563 23.9217 7.24507 23.6798 6.69288 23.5319C6.36712 23.4446 6.17048 23.4122 6.00365 23.4181ZM6.93886 24.2559C7.31286 24.439 7.62497 24.7112 7.86215 25.0612C7.97971 25.2347 8.07094 25.3979 8.0649 25.424C8.05887 25.4501 7.95688 25.471 7.83829 25.4705C7.71967 25.47 7.45332 25.5047 7.24637 25.5476C7.03946 25.5905 6.86393 25.6241 6.85634 25.6224C6.84875 25.6206 6.89451 25.5593 6.958 25.4861C7.22086 25.1833 6.95375 24.914 6.4446 24.9684C6.16834 24.9979 6.16389 24.982 6.40793 24.8373C6.59084 24.7288 6.63786 24.6789 6.66412 24.5655C6.73567 24.2563 6.47143 24.1213 5.99262 24.2223C5.65333 24.2939 5.63333 24.2907 5.66154 24.1688C5.68824 24.0534 5.73101 24.0368 6.00669 24.0349C6.30005 24.0328 6.65514 24.117 6.93886 24.2559ZM8.10277 26.3143C7.97973 26.7234 7.67824 27.0323 7.13173 27.3095C6.67849 27.5393 5.88736 27.73 5.82085 27.6254C5.80104 27.5943 5.99512 27.5028 6.38137 27.3612C7.11001 27.0941 7.47508 26.9008 7.6392 26.6951C7.77283 26.5276 7.84156 26.3274 7.78453 26.2717C7.76565 26.2533 7.7539 26.2222 7.75842 26.2027C7.76752 26.1633 8.09035 26.0321 8.14616 26.045C8.1655 26.0495 8.14599 26.1707 8.10277 26.3143ZM3.32399 25.118C3.11959 25.1953 3.04339 25.1714 3.16137 25.067C3.2179 25.017 3.28529 25.0028 3.37147 25.0227L3.49832 25.0521L3.32399 25.118ZM3.5381 25.819C3.49095 25.8352 3.37867 25.8752 3.28854 25.9078C3.1328 25.9642 3.12292 25.963 3.08865 25.8847C3.03422 25.7601 3.04645 25.7523 3.28311 25.7612C3.59509 25.7728 3.64168 25.7834 3.5381 25.819ZM4.01099 26.6439C3.92805 26.7578 3.92254 26.7825 3.95893 26.879C4.0437 27.1039 4.3834 27.1732 4.97739 27.0865C5.15622 27.0603 5.30872 27.0487 5.31625 27.0606C5.32378 27.0724 5.23991 27.1174 5.1299 27.1606C5.01989 27.2038 4.8565 27.2805 4.76677 27.3311C4.63037 27.4079 4.58418 27.414 4.4846 27.3681C4.11827 27.1992 3.39866 26.5985 3.49652 26.5432C3.53162 26.5234 3.97491 26.5002 4.0751 26.5129C4.0908 26.5149 4.06196 26.5738 4.01099 26.6439Z" fill="#404040"/>
</svg>
