<svg width="432" height="458" viewBox="0 0 432 458" fill="none" xmlns="http://www.w3.org/2000/svg">
<path fill-rule="evenodd" clip-rule="evenodd" d="M256.306 53.896C259.033 54.4747 262.195 55.0588 263.332 55.1941C264.47 55.3289 266.624 55.6243 268.12 55.8508C269.616 56.0768 273.084 56.3873 275.827 56.5407C300.308 57.9123 316.544 61.0744 331.813 67.4459C333.434 68.1222 335.984 69.186 337.48 69.8101C338.976 70.4337 343.26 72.5311 347 74.4709C363.697 83.1295 374.679 91.4444 383.343 101.987C386.818 106.215 391.907 114.143 392.394 116.088C392.572 116.799 391.633 119.039 389.251 123.589C387.382 127.157 383.258 135.183 380.085 141.424C371.384 158.539 364.318 172.362 360.065 180.587C357.706 185.149 356.34 188.288 356.498 188.785C356.645 189.248 355.691 191.959 354.257 195.159C352.883 198.222 351.76 201.003 351.76 201.339C351.76 201.885 354.101 203.378 354.958 203.378C355.144 203.378 357.046 204.194 359.185 205.193C361.324 206.192 363.174 207.008 363.298 207.008C363.421 207.008 364.598 207.509 365.914 208.121C371.079 210.522 379.12 213.821 379.594 213.732C380.16 213.626 381.627 214.035 383.947 214.946C384.819 215.288 387.879 216.421 390.747 217.463C402.106 221.591 411.244 225.143 411.908 225.689C412.549 226.217 412.452 226.717 410.909 230.837C410.254 232.584 409.607 234.476 409.472 235.042C409.336 235.607 409.045 236.181 408.826 236.317C408.606 236.453 408.427 237.017 408.427 237.571C408.427 238.125 408.15 238.981 407.812 239.473C407.474 239.965 406.838 241.491 406.398 242.864C405.456 245.81 404.805 246.613 403.367 246.599C402.377 246.589 393.991 243.722 387.8 241.276C386.304 240.685 382.734 239.357 379.867 238.325C376.999 237.293 372.56 235.645 370.003 234.664C367.445 233.682 364.921 232.879 364.395 232.879C363.869 232.879 361.576 231.981 359.299 230.883C344.509 223.749 342.24 222.905 342.24 224.542C342.24 225.182 342.919 228.046 344.537 234.241C344.766 235.115 345.481 238.076 346.126 240.822C346.771 243.568 347.57 246.634 347.901 247.636C348.232 248.637 348.853 252.767 349.282 256.811C349.886 262.525 349.962 265.056 349.62 268.153C349.35 270.592 349.341 272.579 349.595 273.274C349.823 273.898 349.959 276.144 349.896 278.266C349.833 280.388 350.047 283.346 350.371 284.839C350.92 287.364 350.818 292.947 350.157 296.541C349.178 301.867 347.138 309.032 345.576 312.629C345.165 313.576 344.522 315.064 344.148 315.938C342.535 319.701 340.233 323.795 338.123 326.654C336.386 329.008 335.308 330.288 329.606 336.764C326.22 340.61 320.341 345.517 315.035 348.928C311.013 351.514 305.289 354.551 303.17 355.224C302.329 355.492 301.262 356.236 299.916 357.497C299.632 357.762 297.258 359.594 294.64 361.567C292.022 363.541 289.676 365.318 289.427 365.518C287.428 367.117 286.735 367.667 284.72 369.247C283.337 370.331 282.326 371.523 282.164 372.26C282.012 372.952 280.941 374.286 279.689 375.344C275.566 378.824 272.424 385.568 272.429 390.926C272.433 395.586 273.136 398.554 275.334 403.201C276.478 405.619 277.413 407.818 277.413 408.09C277.413 408.361 278.51 411.174 279.85 414.342C286.546 430.17 291.748 446.764 291.253 450.714L291.034 452.452L300.657 452.634C307.416 452.762 310.598 452.992 311.349 453.408C313.952 454.849 311.792 455.016 285.905 455.372C271.884 455.565 258.781 455.895 256.787 456.106C254.695 456.326 291.023 456.52 342.58 456.563C421.729 456.63 432 456.716 432 457.319C432 457.923 409.031 458 228 458C46.969 458 24 457.923 24 457.319C24 456.716 36.41 456.637 132.913 456.625C218.794 456.614 241.635 456.494 240.92 456.057C240.22 455.63 220.408 455.436 153.88 455.206C54.7963 454.864 45.3066 454.693 45.3066 453.241C45.3066 452.206 51.545 452.015 89.0533 451.9C109.499 451.837 126.457 451.755 126.738 451.716C127.067 451.671 127.17 450.945 127.026 449.67C126.893 448.49 127.118 446.616 127.586 445.017C128.016 443.546 128.936 440.197 129.63 437.576C135.476 415.513 142.458 394.022 149.168 377.438C150.178 374.941 151.192 372.545 151.421 372.113C152.062 370.903 153.647 366.615 153.506 366.473C153.193 366.159 143.725 369.69 140.42 371.354C135.805 373.677 129.877 377.342 125.842 380.366C123.534 382.096 122.588 382.57 122.159 382.214C121.537 381.697 120.107 382.04 120.107 382.706C120.107 382.929 119.724 383.111 119.255 383.111C118.787 383.111 117.672 383.417 116.776 383.792C114.561 384.719 114.34 384.673 113.536 383.117C113.111 382.293 112.352 381.656 111.598 381.491C108.653 380.845 103.116 378.312 100.063 376.213C94.856 372.633 88.2672 365.489 85.4947 360.417C85.0173 359.544 83.6328 357.319 82.4183 355.473C80.7691 352.967 80.333 351.969 80.6957 351.532C81.0543 351.099 80.925 350.691 80.1979 349.963C79.6575 349.422 78.8125 348.132 78.3202 347.096C76.7317 343.753 73.0565 338.178 72.4423 338.178C72.2283 338.178 72.0533 337.968 72.0533 337.711C72.0533 337.309 70.473 335.141 67.971 332.11C67.5984 331.658 65.0239 328.916 62.25 326.016L57.2071 320.744L56.1771 322.765C55.6109 323.876 54.8203 325.045 54.4205 325.362C53.4445 326.136 48.5349 328.656 47.12 329.109C46.4966 329.309 44.5714 329.997 42.8414 330.638C41.112 331.28 39.6123 331.72 39.5099 331.617C39.407 331.514 39.5729 330.672 39.8784 329.745C40.2071 328.748 40.334 326.955 40.1885 325.353C39.9093 322.266 38.3385 319.825 35.8823 318.661C34.4026 317.959 33.9162 316.846 35.0894 316.846C35.8728 316.846 42.511 313.786 43.4933 312.972C44.3655 312.25 48.4251 311.395 50.8822 311.416C53.3293 311.436 58.1696 312.589 58.3727 313.199C58.4583 313.457 58.7929 313.669 59.1156 313.669C60.0418 313.669 69.5178 323.247 74.0933 328.808C75.0907 330.02 76.7848 332.062 77.8578 333.347C79.9921 335.901 85.477 343.952 86.56 346.12C86.934 346.869 87.4594 347.686 87.7278 347.936C87.9962 348.186 89.6032 350.636 91.2987 353.382C92.9941 356.128 94.735 358.89 95.167 359.518C95.599 360.147 96.1054 361.169 96.2921 361.788C96.726 363.226 99.2021 365.837 102.61 368.449C105.163 370.407 105.387 370.487 107.485 370.209C109.583 369.93 109.708 369.975 110.184 371.181C111.062 373.403 111.347 373.803 112.164 373.964C113.016 374.132 116.254 372.876 117.387 371.939C117.761 371.63 120.005 370.973 122.373 370.479C135.32 367.781 145.331 363.336 155.999 355.549C158.162 353.971 160.186 352.735 160.495 352.804C160.806 352.872 161.284 352.52 161.559 352.021C162.519 350.277 164.674 347.015 165.914 345.431L167.164 343.833L165.16 342.027C159.202 336.655 150.48 327.699 150.48 326.953C150.48 326.723 149.951 326.04 149.304 325.435C148.657 324.83 147.817 323.722 147.439 322.973C147.06 322.224 146.282 321.101 145.71 320.477C144.348 318.992 142.221 315.529 140.412 311.853C139.613 310.23 138.492 308.211 137.921 307.366C137.349 306.52 136.656 304.989 136.38 303.964C136.104 302.939 135.415 301.268 134.848 300.251C134.281 299.234 133.493 296.977 133.098 295.236C132.702 293.494 131.962 291.127 131.454 289.976C130.496 287.81 129.204 279.429 128.239 269.138C127.826 264.721 127.826 262.351 128.243 258.768C128.539 256.212 128.687 254.027 128.572 253.912C128.456 253.796 126.759 254.035 124.801 254.442C120.934 255.247 115.948 255.065 112.025 253.976C105.623 252.199 99.9809 249.391 98.6132 247.301C97.3521 245.374 95.4798 237.385 95.4385 233.758C95.4045 230.735 95.5496 230.098 96.6498 228.429C98.0851 226.254 100.53 224.978 102.102 225.586C105.735 226.992 107.203 232.85 104.973 237.048L103.893 239.081L104.86 239.712C110.411 243.331 114.756 243.999 122.71 242.455C129.953 241.049 131.27 239.861 132.829 233.321C133.287 231.405 134.181 228.857 134.817 227.659C135.453 226.462 135.973 225.283 135.973 225.039C135.973 224.218 138.36 219.263 138.755 219.263C138.97 219.263 139.147 219.039 139.147 218.764C139.147 217.991 140.542 215.169 142.07 212.853C142.83 211.7 143.811 210.168 144.247 209.449C148.953 201.706 160.181 189.398 167.668 183.775C168.768 182.949 170.808 181.413 172.201 180.363C173.594 179.313 175.588 178.037 176.632 177.528C177.677 177.018 178.661 176.392 178.819 176.136C178.977 175.88 180.366 175.04 181.906 174.268C183.446 173.497 185.013 172.6 185.387 172.275C185.761 171.95 187.457 171.129 189.157 170.45C190.857 169.771 192.081 169.073 191.877 168.898C191.673 168.723 190.487 168.223 189.24 167.788C187.993 167.353 186.565 166.818 186.067 166.598C185.568 166.378 181.504 164.848 177.035 163.198C170.337 160.724 168.029 160.087 163.889 159.57C152.659 158.167 141.667 154.991 133.027 150.653C129.136 148.699 124.188 145.536 122.417 143.872C121.818 143.308 120.306 142.323 119.057 141.682C116.091 140.159 115.688 139.474 116.639 137.565C117.631 135.575 117.611 135.419 115.984 132.411C113.775 128.328 113.74 128.347 123.467 128.566C128.764 128.685 132.027 128.942 132.422 129.271C133.094 129.828 148.537 133.027 150.56 133.027C151.259 133.027 152.052 133.404 152.401 133.902C152.828 134.513 154.169 135.004 156.847 135.53C164.101 136.954 180.594 141.499 185.613 143.458C186.112 143.652 187.438 144.162 188.56 144.59C189.682 145.018 191.416 145.73 192.413 146.172C195.238 147.423 197.147 147.719 198.324 147.088C199.097 146.674 199.726 146.654 200.753 147.013C201.708 147.347 202.23 147.351 202.431 147.026C202.953 146.18 205.963 140.316 214.161 124.177C218.598 115.44 223.401 106.045 224.833 103.299C226.266 100.553 229.629 94.0169 232.308 88.7747C234.986 83.5325 239.541 74.6479 242.429 69.0313C245.317 63.4146 248.284 57.551 249.023 56.0015C249.762 54.452 250.587 53.1076 250.857 53.0137C251.126 52.9202 253.578 53.3168 256.306 53.896ZM191.053 176.877C187.313 178.706 183.855 180.464 183.368 180.784C182.88 181.103 180.738 182.486 178.608 183.857C176.477 185.228 174.325 186.689 173.827 187.104C173.328 187.518 171.379 189.088 169.495 190.591C157.675 200.023 145.685 216.927 140.506 231.463C139.509 234.262 138.693 236.619 138.693 236.701C138.693 236.784 139.968 236.578 141.527 236.243C143.085 235.908 145.807 235.627 147.576 235.618C150.256 235.605 150.936 235.444 151.655 234.649C152.415 233.808 152.831 233.731 155.177 233.996C161.572 234.721 170.152 239.102 175.711 244.483C178.932 247.6 179.493 248.364 179.493 249.624C179.493 250.779 179.913 251.497 181.4 252.885C183.29 254.65 184.027 255.037 184.027 254.264C184.027 253.487 189.065 251.488 192.305 250.98C196.869 250.265 208.035 250.724 211 251.749C213.599 252.646 215.753 254.027 215.776 254.809C215.785 255.104 217.131 256.163 218.768 257.161C221.529 258.845 227.093 264.227 227.093 265.214C227.093 265.451 227.923 266.59 228.938 267.743C234.297 273.839 240.693 286.396 240.693 290.821C240.693 291.328 241.122 292.13 241.646 292.606C242.171 293.08 242.913 294.082 243.296 294.832C244.129 296.459 244.663 296.859 246.02 296.868C246.927 296.874 247.04 296.65 247.04 294.85C247.04 292.764 248.457 288.492 249.506 287.418C250.477 286.423 257.116 288.893 259.633 291.186C262.607 293.896 262.748 294.358 261.267 296.498C259.876 298.507 256.892 300.751 254.628 301.49C253.821 301.754 252.249 302.394 251.136 302.914C248.126 304.319 242.592 304.272 239.623 302.817C236.287 301.183 231.898 297.211 228.054 292.348C222.835 285.744 222.314 285.017 216.357 275.997C214.46 273.126 211.993 269.399 210.874 267.714C209.755 266.029 208.611 264.654 208.333 264.657C208.055 264.661 206.909 264.991 205.787 265.392C198.523 267.986 194.356 268.681 186.973 268.529C179.545 268.377 178.892 268.266 172.92 266.16C170.427 265.28 167.979 264.528 167.48 264.489C165.986 264.371 165.465 263.792 164.927 261.652C164.228 258.872 161.524 254.819 158.205 251.577C155.132 248.576 153.807 248.12 146.528 247.558C143.025 247.288 142.77 247.336 139.864 248.814L136.843 250.351L137.1 252.848C140.256 283.423 141.43 295.492 141.422 297.249C141.406 300.859 149.714 316.053 155.478 322.954C159.555 327.833 165.646 334.051 169.316 337.077L171.56 338.928L173.373 337.879C174.371 337.303 175.656 336.827 176.229 336.823C179.082 336.803 182.456 340.18 182.891 343.492C183.049 344.688 183.217 345.973 183.266 346.347C183.459 347.829 195.182 353.543 204.027 356.466C211.287 358.866 217.029 359.283 242.733 359.28L264.493 359.278L269.683 357.759C275.778 355.976 281.1 353.98 282.786 352.845C284.714 351.546 285.874 350.992 287.33 350.672C288.08 350.507 289.485 349.798 290.452 349.097C291.418 348.396 292.705 347.672 293.311 347.488C295.48 346.829 302.755 341.915 307.383 337.98C312.818 333.361 313.696 332.518 313.53 332.081C313.429 331.814 313.628 328.635 313.974 325.015C315.351 310.576 316.257 276.054 315.403 270.551C315.229 269.427 315.076 267.398 315.063 266.041L315.04 263.573L310.62 267.876C303.374 274.932 297.135 279.419 289.108 283.346C286.039 284.848 282.834 285.296 275.373 285.266C269.56 285.243 267.265 285.038 263.813 284.232C259.013 283.112 253.798 280.833 250.957 278.613C248.474 276.672 248.1 276.205 246.719 273.314C245.547 270.859 245.364 269.396 245.913 266.89C246.175 265.698 246.088 265.558 245.089 265.558C243.759 265.558 243.689 265.303 242.91 257.615C241.977 248.399 243.62 237.94 247.942 225.587C250.637 217.882 255.678 207.412 257.311 206.126C258.54 205.158 260.397 204.886 260.843 205.608C260.984 205.837 260.869 207.573 260.588 209.467C260.203 212.056 260.206 213.066 260.6 213.541C260.998 214.022 260.962 214.638 260.448 216.133C260.077 217.211 259.815 218.125 259.867 218.164C259.918 218.203 262.612 218.358 265.853 218.507C277.074 219.025 287.639 222.803 299.4 230.504C305.735 234.652 313.996 242.981 317.288 248.538C318.619 250.785 320.109 252.948 320.599 253.345C321.446 254.03 321.474 254.437 321.157 261.288C320.4 277.638 320.891 323.536 321.811 322.444C322.129 322.066 324.472 316.672 327.298 309.811C328.12 307.814 329.153 305.363 329.591 304.364C330.03 303.366 331.544 299.791 332.955 296.421C334.366 293.051 335.809 289.651 336.16 288.864C337.109 286.743 337.009 281.408 335.689 263.743C335.567 262.12 335.232 256.912 334.943 252.169C334.582 246.235 334.227 243.326 333.807 242.841C333.47 242.454 332.25 240.105 331.096 237.621C329.941 235.138 328.332 232.289 327.52 231.291C324.962 228.145 319.912 223.349 316.853 221.161C315.233 220.002 313.839 218.896 313.756 218.704C313.672 218.512 313.441 218.355 313.241 218.355C313.04 218.355 311.68 217.567 310.218 216.604C305.233 213.319 296.736 208.942 288.973 205.66C286.48 204.606 284.076 203.553 283.63 203.319C282.754 202.861 276.701 200.617 269.485 198.076C266.995 197.199 264.139 196.011 263.139 195.437C262.138 194.862 255.608 192.311 248.627 189.767C241.645 187.224 235.525 184.958 235.027 184.732C234.127 184.324 212.212 176.205 208.733 174.99C207.736 174.641 205.696 173.87 204.2 173.276C200.938 171.98 201.222 171.903 191.053 176.877ZM233.537 194.21C234.357 194.91 236.098 196.255 237.407 197.199C238.715 198.143 239.787 199.169 239.787 199.478C239.787 200.142 234.844 205.647 234.247 205.647C233.262 205.647 227.093 208.996 227.093 209.532C227.093 209.857 226.473 210.566 225.715 211.106C222.537 213.372 218.933 220.093 218.933 223.755C218.933 224.494 218.627 225.405 218.253 225.779C217.879 226.154 217.572 227.139 217.571 227.968C217.569 228.797 217.251 230.082 216.865 230.824C216.218 232.067 216.226 232.22 216.96 232.757C217.398 233.078 218.43 233.585 219.252 233.882C222.26 234.971 220.583 235.937 217.025 235.165L214.627 234.644L212.813 236.645C208.71 241.173 201.582 245.466 197.508 245.863C196.202 245.99 194.271 246.312 193.216 246.578C190.863 247.172 188.388 246.622 184.092 244.553C181.817 243.457 179.968 241.99 176.534 238.558C169.439 231.465 169.799 232.676 169.667 215.461C169.574 203.399 169.443 200.868 168.88 200.245C168.51 199.835 168.349 199.279 168.523 199.011C169.088 198.141 173.901 197.87 176.682 198.551C185.393 200.683 206.35 201.716 215.987 200.487C220.969 199.851 223.03 198.999 227.153 195.872C229.618 194.002 231.306 192.938 231.808 192.938C231.94 192.938 232.719 193.511 233.537 194.21ZM184.998 209.89L183.997 210.956L186.679 212.161C188.154 212.824 190.436 213.57 191.75 213.82C197.499 214.911 202.976 217.075 207.874 220.19L209.281 221.084L210.974 218.532L212.666 215.979L210.994 214.264C207.655 210.841 205.956 210.275 196.9 209.572C185.539 208.691 186.138 208.675 184.998 209.89ZM176.428 217.544C176.155 217.873 175.834 220.182 175.715 222.674C175.596 225.167 175.355 227.976 175.179 228.916C174.875 230.542 174.979 230.746 177.289 233.053C178.626 234.387 180.944 236.293 182.44 237.287C187.443 240.612 191.024 241.42 192.908 239.649C193.854 238.759 193.981 238.746 195.033 239.436C195.961 240.045 196.518 240.089 198.289 239.691C201.574 238.954 205.691 236.643 209.115 233.615L210.402 232.476L209.465 231.469C208.392 230.316 207.482 227.866 207.687 226.683C207.876 225.597 205.21 225.105 200.985 225.449L197.77 225.71L196.793 223.629C196.256 222.485 194.865 220.623 193.702 219.491C191.853 217.692 191.484 217.506 190.76 218.008C182.939 223.431 180.779 224.778 180.237 224.57C179.804 224.404 179.491 223.23 179.283 220.998C178.859 216.427 178.707 215.989 177.726 216.515C177.286 216.751 176.702 217.214 176.428 217.544ZM268.347 222.857C264.1 225.025 264.042 225.077 264.175 226.584C264.249 227.432 267.156 233.782 270.693 240.822C274.204 247.812 279.182 257.717 281.754 262.835C284.327 267.952 287.038 272.837 287.78 273.689L289.128 275.239L293.584 273.008L298.04 270.778L297.894 268.975C297.808 267.902 296.637 264.965 294.999 261.713C293.486 258.71 288.59 248.981 284.119 240.092C276.88 225.702 273.946 220.587 272.96 220.641C272.792 220.651 270.715 221.648 268.347 222.857ZM286.48 226.014C286.48 226.179 286.99 227.066 287.613 227.984C288.237 228.902 288.747 229.781 288.747 229.935C288.747 230.09 289.206 230.867 289.768 231.661C290.329 232.456 291.031 233.515 291.327 234.014C292.491 235.979 296.774 242.883 299.709 247.529C301.409 250.219 302.8 252.594 302.8 252.807C302.8 253.018 303.093 253.436 303.452 253.734C303.983 254.176 304.238 254.014 304.835 252.859C306.729 249.193 303.912 240.72 298.37 233.409C295.581 229.731 291.578 226.21 289.722 225.802C289.061 225.657 288.316 225.484 288.067 225.418C287.472 225.26 286.48 225.633 286.48 226.014ZM258.626 234.808C258.798 235.37 260.592 238.893 262.612 242.637C264.631 246.382 266.765 250.365 267.353 251.488C268.787 254.226 269.339 255.105 273.533 261.341C277.279 266.91 285.557 278.266 285.87 278.266C285.969 278.266 285.774 277.705 285.436 277.018C276.912 259.676 271.174 250.27 260.517 236.17C258.536 233.548 258.155 233.274 258.626 234.808ZM252.045 241.73C250.671 243.734 248.853 248.282 248.853 249.717C248.853 250.532 250.426 254.169 251.581 256.027C251.814 256.401 252.48 257.729 253.063 258.977C253.644 260.225 254.746 262.37 255.51 263.743C256.275 265.116 257.45 267.26 258.123 268.508C258.795 269.756 259.95 271.799 260.687 273.047C261.425 274.295 262.164 275.623 262.329 275.997C262.494 276.372 262.896 276.948 263.221 277.278C263.547 277.607 263.813 278.16 263.813 278.505C263.813 279.32 266.498 279.82 268.687 279.413C271.062 278.97 274.478 277.441 275.42 276.399C276.386 275.33 276.678 275.971 269.038 262.381C267.704 260.009 265.933 256.833 265.1 255.322C264.268 253.811 261.765 249.266 259.537 245.222L255.488 237.869L254.389 238.892C253.785 239.454 252.73 240.731 252.045 241.73ZM248.51 258.183C249.011 266.612 253.369 274.313 259.394 277.411L261.094 278.286L256.17 268.631C250.183 256.895 248.752 254.211 248.482 254.211C248.368 254.211 248.381 255.999 248.51 258.183ZM163.849 265.098C164.001 265.344 163.83 266.824 163.468 268.388C163.106 269.952 162.569 272.457 162.274 273.955C161.146 279.692 160.82 280.807 159.858 282.228C159.313 283.035 158.357 283.894 157.733 284.137C156.01 284.811 152.432 285.213 152.155 284.764C152.02 284.545 152.286 282.738 152.746 280.749C153.207 278.759 153.714 276.213 153.872 275.089C154.696 269.272 155.953 266.735 158.731 265.288C160.136 264.556 163.439 264.433 163.849 265.098ZM204.565 274.416C209.135 275.185 209.223 275.226 210.155 276.995C210.781 278.183 210.943 279.624 210.934 283.94C210.922 289.786 210.143 293.05 207.764 297.208C206.318 299.733 205.429 300.179 202.976 299.606C201.903 299.356 199.903 299.039 198.529 298.902C197.156 298.765 195.728 298.453 195.356 298.209C194.768 297.823 194.783 297.687 195.473 297.157C195.909 296.822 196.267 296.38 196.267 296.174C196.267 295.968 196.647 295.378 197.11 294.862C198.705 293.091 200.306 287.145 200.33 282.904C200.34 281.185 199.975 278.95 199.412 277.275C198.12 273.435 198.263 273.356 204.565 274.416ZM185.503 277.592C193.609 280.658 194.337 281.13 192.856 282.36C192.266 282.851 192.255 283.072 192.784 283.89C193.513 285.021 194.124 287.798 193.643 287.798C193.34 287.798 192.81 287.177 191.032 284.741C190.522 284.044 189.399 283.909 182.363 283.705C175.888 283.517 173.993 283.315 172.835 282.687C172.041 282.256 171.253 281.68 171.084 281.406C170.895 281.1 170.165 281.023 169.189 281.206L167.602 281.504L168.583 280.124C169.386 278.995 169.471 278.57 169.052 277.786C168.346 276.464 168.765 276.232 170.181 277.161C171.19 277.823 171.643 277.863 173.106 277.425C174.059 277.139 175.886 276.905 177.166 276.905C178.933 276.905 179.493 276.741 179.493 276.224C179.493 275.309 179.43 275.295 185.503 277.592ZM180.627 286.056C186.292 286.791 189.9 289.4 190.686 293.333L190.969 294.752L187.384 294.452C183.337 294.113 183.166 294.083 180.522 293.254C178.054 292.48 174.997 289.285 174.645 287.112C174.392 285.557 174.416 285.529 175.921 285.587C176.764 285.618 178.881 285.83 180.627 286.056ZM180.285 355.311C179.657 356.248 177.539 358.884 175.578 361.17C170.667 366.896 169.588 368.272 166.735 372.445C163.54 377.119 156.827 388.313 156.827 388.968C156.827 389.688 158.421 390.98 162.146 393.279L165.394 395.284L167.57 392.393C171.88 386.667 172.636 385.545 175.008 381.359C176.332 379.022 177.663 377.015 177.966 376.898C178.816 376.572 180.4 377.605 180.4 378.486C180.4 379.553 177.154 385.123 173.489 390.345L170.482 394.629L171.871 396.212C172.635 397.083 173.566 398.525 173.939 399.417C174.789 401.447 174.847 405.724 174.068 408.943C173.535 411.146 173.558 411.557 174.288 412.914C174.736 413.747 175.329 414.428 175.606 414.428C175.882 414.428 176.802 413.254 177.65 411.818C178.497 410.383 180.622 407.381 182.37 405.147C186.759 399.54 187.729 397.352 190.327 387.196C191.573 382.328 192.931 377.528 193.344 376.53C194.966 372.62 196.773 369.356 198.721 366.822C200.426 364.604 200.702 363.974 200.423 362.93C200.092 361.693 199.165 361.175 195.032 359.918C194.228 359.674 192.422 358.869 191.019 358.13C189.616 357.391 188.227 356.786 187.932 356.786C187.637 356.786 186.288 356.072 184.933 355.198C183.579 354.324 182.236 353.609 181.949 353.609C181.662 353.609 180.913 354.375 180.285 355.311ZM264.267 366.304C261.399 366.521 257.065 366.948 254.633 367.253L250.213 367.807V370.287C250.213 374.005 249.078 377.771 246.217 383.545C243.252 389.528 239.842 393.55 237.733 393.55C236.627 393.55 236.536 393.672 236.802 394.798C237.598 398.177 237.534 402.053 236.617 406.032C236.099 408.278 235.56 410.66 235.419 411.325C235.277 411.989 234.316 414.224 233.281 416.291C231.551 419.747 231.199 420.155 228.907 421.362C224.033 423.927 222.754 424.675 220.067 426.533C216.18 429.219 209.72 435.315 206.619 439.221C205.158 441.062 203.874 442.568 203.765 442.568C203.364 442.568 204.519 439.88 205.142 439.362C205.497 439.067 205.787 438.633 205.787 438.398C205.787 436.704 217.986 422.737 222.403 419.375L223.832 418.286L223.332 408.866C222.845 399.685 222.809 399.454 221.903 399.736C220.588 400.146 214.61 404.187 211.835 406.543C209.355 408.647 208.96 408.847 208.96 407.996C208.96 407.309 216.123 400.491 219.482 397.981L222.07 396.046L222.089 393.449C222.103 391.276 220.882 383.324 218.862 372.445C218.63 371.197 218.342 369.484 218.222 368.638C218.101 367.792 217.907 366.945 217.79 366.755C217.673 366.566 216.097 366.273 214.288 366.104C212.48 365.937 210.694 365.714 210.319 365.61C208.606 365.134 204.535 373.59 202.986 380.842C202.178 384.62 202.096 386.192 202.321 393.55C202.462 398.168 202.817 403.376 203.11 405.124C203.402 406.871 203.665 411.773 203.694 416.017C203.752 424.451 203.324 426.811 200.72 432.413C196.181 442.179 187.135 444.122 180.325 436.795C177.429 433.68 176.121 430.939 174.639 424.88C174.337 423.647 173.961 423.234 172.907 422.979C170.437 422.381 165.923 421.57 165.566 421.661C164.917 421.825 165.475 423.252 167.506 426.622C169.519 429.964 169.87 431.114 169.123 431.925C168.904 432.162 168.243 433.786 167.654 435.533C166.737 438.255 166.582 439.6 166.578 444.912C166.576 448.323 166.744 451.284 166.952 451.493C167.421 451.964 220.747 452.097 220.747 451.628C220.747 451.175 219.549 450.738 218.307 450.738C217.754 450.738 217.089 450.526 216.83 450.266C216.571 450.006 215.674 449.426 214.837 448.977C211.82 447.357 212.523 447.056 219.002 447.193C226.773 447.358 232.407 446.78 233.479 445.707C235.073 444.11 238.62 442.783 242.507 442.328C245 442.037 249.255 440.894 249.847 440.357C250.02 440.2 250.589 434.353 251.111 427.364C252.044 414.897 252.438 412.554 254.317 408.301C254.758 407.302 255.935 404.628 256.933 402.358C259.744 395.96 262.67 390.308 266.387 384.097C268.26 380.966 271.123 375.634 272.749 372.248C274.374 368.862 275.811 365.911 275.942 365.691C276.077 365.465 274.731 365.425 272.83 365.6C270.987 365.77 267.134 366.086 264.267 366.304ZM223.693 367.679C223.847 367.929 224.381 368.133 224.88 368.133C225.379 368.133 225.661 367.929 225.507 367.679C225.353 367.43 224.818 367.226 224.32 367.226C223.821 367.226 223.539 367.43 223.693 367.679ZM231.417 369.012C230.775 371.114 228.432 383.788 228.181 386.515C228.02 388.263 227.718 390.145 227.509 390.698C227.298 391.254 227.304 391.812 227.523 391.947C228.191 392.36 229.426 391.654 229.176 391.002C228.871 390.206 230.5 389.334 231.623 389.691C232.108 389.845 233.052 389.62 233.759 389.182C235.543 388.078 239.333 384.385 239.333 383.751C239.333 383.46 239.61 382.992 239.949 382.711C240.659 382.121 244.003 375.453 244.733 373.172C245.005 372.323 245.227 370.893 245.227 369.995V368.36L238.43 368.331C232.644 368.307 231.602 368.407 231.417 369.012ZM152.439 397.295C147.838 406.504 141.426 421.608 137.36 432.81C136.092 436.305 134.874 439.573 134.654 440.072C134.434 440.571 133.692 442.614 133.004 444.611C132.318 446.608 131.386 448.985 130.934 449.894L130.112 451.546L131.207 451.756C132.945 452.088 162.423 452.192 163.705 451.87L164.861 451.579L163.592 448.458C160.889 441.808 159.099 432.637 158.842 424.116C158.688 418.991 158.596 418.512 157.553 417.385C156.935 416.718 156.294 415.555 156.129 414.8C155.784 413.226 156.643 409.699 157.558 408.939C158.227 408.383 158.312 408.516 158.851 410.964C159.248 412.769 159.712 412.088 159.825 409.533C159.876 408.356 160.063 406.124 160.239 404.573C160.655 400.919 160.345 399.83 158.339 397.88C156.75 396.334 156.729 396.273 157.784 396.273C158.387 396.273 159.664 396.694 160.622 397.208C161.58 397.722 162.469 398.038 162.597 397.909C162.725 397.781 161.729 397.153 160.383 396.515C159.036 395.877 157.328 394.767 156.587 394.048C155.846 393.329 155.133 392.718 155.002 392.691C154.87 392.665 153.717 394.736 152.439 397.295ZM229.185 396.251C227.781 396.854 227.05 397.47 226.897 398.18C226.515 399.953 225.604 415.812 225.869 416.077C226.711 416.92 229.996 409.52 231.399 403.621C232.32 399.747 232.3 395.366 231.362 395.366C231.3 395.366 230.32 395.764 229.185 396.251ZM168.087 400.426C168.196 402.529 168.061 403.506 167.609 403.882C167.094 404.31 166.876 404.023 166.421 402.321C166.115 401.174 165.744 400.357 165.596 400.504C165.449 400.651 165.285 403.589 165.232 407.033L165.135 413.294L166.93 415.031C169.204 417.23 168.632 417.887 165.686 416.461C164.45 415.862 163.328 415.483 163.193 415.619C162.84 415.972 164.564 417.145 165.893 417.455C166.517 417.6 168.659 418.186 170.653 418.756C172.648 419.327 174.406 419.659 174.561 419.494C174.716 419.329 174.977 418.626 175.14 417.932C175.399 416.834 175.244 416.568 173.952 415.889C171.573 414.64 168.769 411.546 168.444 409.811C168.269 408.877 168.44 407.295 168.873 405.834C169.59 403.417 169.83 398.505 169.275 397.606C169.115 397.346 168.747 397.214 168.458 397.313C168.111 397.433 167.985 398.486 168.087 400.426ZM268.437 408.265C267.764 408.619 266.311 409.837 265.207 410.972C262.834 413.414 262.651 414.222 262.01 425.059C261.432 434.844 260.714 442.314 260.23 443.59C259.876 444.52 260.051 444.772 261.708 445.716C262.741 446.305 264.307 447.351 265.188 448.042C267.711 450.018 271.293 450.727 278.169 450.611C281.453 450.557 284.27 450.38 284.43 450.219C285.059 449.588 279.725 432.789 275.372 421.69C273.56 417.072 271.742 412.272 271.331 411.024C270.219 407.644 270.209 407.62 269.925 407.62C269.78 407.62 269.111 407.91 268.437 408.265Z" fill="#1A7674"/>
<path d="M222 23C222 10.2974 211.703 0 199 0H23C10.2975 0 0 10.2975 0 23V59C0 71.7026 10.2975 82 23 82H99.9456C106.933 82 113.541 85.1761 117.906 90.632L134.272 111.091C136.688 114.11 141.287 114.09 143.676 111.049L159.593 90.7901C163.954 85.2404 170.621 82 177.679 82H199C211.703 82 222 71.7025 222 59V23Z" fill="#1A7674"/>
<path d="M45.06 36.38H40.866L38.778 47H36.456L38.544 36.38H34.422L34.818 34.4H45.474L45.06 36.38ZM51.1143 47.18C49.8663 47.18 48.7863 46.958 47.8743 46.514C46.9743 46.058 46.2843 45.428 45.8043 44.624C45.3243 43.808 45.0843 42.866 45.0843 41.798C45.0843 40.382 45.4023 39.098 46.0383 37.946C46.6863 36.794 47.5983 35.888 48.7743 35.228C49.9503 34.556 51.2943 34.22 52.8063 34.22C54.0543 34.22 55.1283 34.448 56.0283 34.904C56.9403 35.348 57.6363 35.978 58.1163 36.794C58.5963 37.598 58.8363 38.534 58.8363 39.602C58.8363 41.018 58.5123 42.302 57.8643 43.454C57.2283 44.606 56.3223 45.518 55.1463 46.19C53.9703 46.85 52.6263 47.18 51.1143 47.18ZM51.3123 45.128C52.3323 45.128 53.2323 44.888 54.0123 44.408C54.8043 43.916 55.4103 43.262 55.8303 42.446C56.2623 41.618 56.4783 40.718 56.4783 39.746C56.4783 38.69 56.1363 37.85 55.4523 37.226C54.7803 36.59 53.8263 36.272 52.5903 36.272C51.5703 36.272 50.6643 36.518 49.8723 37.01C49.0923 37.49 48.4923 38.144 48.0723 38.972C47.6523 39.788 47.4423 40.682 47.4423 41.654C47.4423 42.71 47.7783 43.556 48.4503 44.192C49.1223 44.816 50.0763 45.128 51.3123 45.128ZM60.5473 44.138C60.9433 44.138 61.2733 44.27 61.5373 44.534C61.8013 44.798 61.9333 45.134 61.9333 45.542C61.9333 45.758 61.8913 45.962 61.8073 46.154C61.7353 46.334 61.6033 46.592 61.4113 46.928L59.7553 49.718H58.3153L59.6113 46.91C59.4193 46.778 59.2633 46.61 59.1433 46.406C59.0353 46.202 58.9813 45.974 58.9813 45.722C58.9813 45.266 59.1313 44.888 59.4313 44.588C59.7313 44.288 60.1033 44.138 60.5473 44.138ZM81.4545 34.4L78.9345 47H76.6305L77.5665 42.302C76.3785 42.71 75.2625 42.914 74.2185 42.914C72.8025 42.914 71.7165 42.614 70.9605 42.014C70.2045 41.414 69.8265 40.562 69.8265 39.458C69.8265 39.17 69.8685 38.798 69.9525 38.342L70.7445 34.4H73.0485L72.2745 38.234C72.2145 38.534 72.1845 38.786 72.1845 38.99C72.1845 40.262 72.9825 40.898 74.5785 40.898C75.7185 40.898 76.8585 40.646 77.9985 40.142L79.1505 34.4H81.4545ZM93.7338 36.38H89.5398L87.4518 47H85.1298L87.2178 36.38H83.0958L83.4918 34.4H94.1478L93.7338 36.38ZM99.7882 47.18C98.5402 47.18 97.4602 46.958 96.5482 46.514C95.6482 46.058 94.9582 45.428 94.4782 44.624C93.9982 43.808 93.7582 42.866 93.7582 41.798C93.7582 40.382 94.0762 39.098 94.7122 37.946C95.3602 36.794 96.2722 35.888 97.4482 35.228C98.6242 34.556 99.9682 34.22 101.48 34.22C102.728 34.22 103.802 34.448 104.702 34.904C105.614 35.348 106.31 35.978 106.79 36.794C107.27 37.598 107.51 38.534 107.51 39.602C107.51 41.018 107.186 42.302 106.538 43.454C105.902 44.606 104.996 45.518 103.82 46.19C102.644 46.85 101.3 47.18 99.7882 47.18ZM99.9862 45.128C101.006 45.128 101.906 44.888 102.686 44.408C103.478 43.916 104.084 43.262 104.504 42.446C104.936 41.618 105.152 40.718 105.152 39.746C105.152 38.69 104.81 37.85 104.126 37.226C103.454 36.59 102.5 36.272 101.264 36.272C100.244 36.272 99.3382 36.518 98.5462 37.01C97.7662 37.49 97.1662 38.144 96.7462 38.972C96.3262 39.788 96.1162 40.682 96.1162 41.654C96.1162 42.71 96.4522 43.556 97.1242 44.192C97.7962 44.816 98.7502 45.128 99.9862 45.128ZM127.453 34.4L124.933 47H122.611L123.673 41.654H117.157L116.095 47H113.755L116.275 34.4H118.615L117.589 39.566H124.105L125.131 34.4H127.453ZM137.54 44.084H131.204L129.386 47H126.884L135.074 34.4H137.396L140.528 47H138.206L137.54 44.084ZM137.108 42.248L135.83 36.704L132.356 42.248H137.108ZM153.636 45.02H155.454L154.518 49.682H152.358L152.898 47H143.232L142.692 49.682H140.514L141.468 45.02H141.9C142.704 44.984 143.394 44.378 143.97 43.202C144.558 42.014 145.098 40.382 145.59 38.306L146.508 34.4H155.76L153.636 45.02ZM147.57 38.702C147.186 40.334 146.796 41.678 146.4 42.734C146.016 43.79 145.566 44.552 145.05 45.02H151.332L153.06 36.38H148.11L147.57 38.702ZM163.579 47.18C162.331 47.18 161.251 46.958 160.339 46.514C159.439 46.058 158.749 45.428 158.269 44.624C157.789 43.808 157.549 42.866 157.549 41.798C157.549 40.382 157.867 39.098 158.503 37.946C159.151 36.794 160.063 35.888 161.239 35.228C162.415 34.556 163.759 34.22 165.271 34.22C166.519 34.22 167.593 34.448 168.493 34.904C169.405 35.348 170.101 35.978 170.581 36.794C171.061 37.598 171.301 38.534 171.301 39.602C171.301 41.018 170.977 42.302 170.329 43.454C169.693 44.606 168.787 45.518 167.611 46.19C166.435 46.85 165.091 47.18 163.579 47.18ZM163.777 45.128C164.797 45.128 165.697 44.888 166.477 44.408C167.269 43.916 167.875 43.262 168.295 42.446C168.727 41.618 168.943 40.718 168.943 39.746C168.943 38.69 168.601 37.85 167.917 37.226C167.245 36.59 166.291 36.272 165.055 36.272C164.035 36.272 163.129 36.518 162.337 37.01C161.557 37.49 160.957 38.144 160.537 38.972C160.117 39.788 159.907 40.682 159.907 41.654C159.907 42.71 160.243 43.556 160.915 44.192C161.587 44.816 162.541 45.128 163.777 45.128ZM174.48 34.4H177.162L175.038 42.824H173.256L174.48 34.4ZM173.49 47.126C173.094 47.126 172.764 47 172.5 46.748C172.248 46.496 172.122 46.19 172.122 45.83C172.122 45.398 172.266 45.044 172.554 44.768C172.842 44.48 173.196 44.336 173.616 44.336C174.012 44.336 174.336 44.462 174.588 44.714C174.852 44.954 174.984 45.26 174.984 45.632C174.984 46.052 174.84 46.406 174.552 46.694C174.264 46.982 173.91 47.126 173.49 47.126Z" fill="white"/>
</svg>
