<svg width="432" height="458" viewBox="0 0 432 458" fill="none" xmlns="http://www.w3.org/2000/svg">
<path fill-rule="evenodd" clip-rule="evenodd" d="M263.197 104.038C260.305 105.821 260.367 122.186 263.295 129.869C266.521 138.329 275.574 134.643 273.715 125.625C273.316 123.691 272.474 118.112 271.844 113.229C270.68 104.213 267.829 101.182 263.197 104.038ZM288.921 120.258C283.506 132.471 283.034 137.954 287.265 139.573C291.434 141.169 294.616 137.222 299.042 124.966C303.274 113.244 302.884 109.726 297.357 109.726C294.626 109.726 292.307 112.621 288.921 120.258ZM224.503 119.733C220.737 122.558 209.678 146.164 204.79 161.814C201.482 172.402 200.772 173.215 190.192 178.541C183.383 181.97 177.642 186.489 175.381 190.196C173.348 193.528 169.041 207.354 165.808 220.921C162.574 234.489 158.367 247.808 156.459 250.523C154.549 253.236 148.941 262.141 143.994 270.312L135 285.165L136.343 302.697C137.855 322.457 139.402 326.214 160.242 360.728C167.393 372.573 175.117 387.165 177.403 393.155C182.533 406.592 184.258 426.665 181.29 438.421C178.868 448.016 179.911 454.527 183.872 454.527C189.717 454.527 191.61 448.226 192.301 426.463L192.994 404.691L197.599 405.844C200.842 406.655 202.558 406.08 203.396 403.904C204.225 401.748 201.337 397.835 193.873 390.998C185.876 383.673 178.813 373.771 166.008 351.933C156.575 335.843 148.307 320.182 147.634 317.131C146.021 309.794 151.498 300.612 174.831 271.537C186.458 257.046 194.385 248.789 196.663 248.789C198.633 248.789 209.311 250.927 220.395 253.538C237.598 257.592 241.297 259.156 245.687 264.231C251.999 271.531 261.295 286.99 261.316 290.223C261.358 296.709 243.45 288.434 234.804 277.97L228.915 270.845L220.265 273.152C215.509 274.421 209.092 275.459 206.003 275.459C201.219 275.459 199.849 276.678 196.723 283.731C194.704 288.28 190.406 293.882 187.169 296.182C179.852 301.378 180.992 305.939 189.612 305.939C194.751 305.939 196.404 307.088 199.435 312.768L203.077 319.598L195.645 325.852C188.151 332.159 187.669 336.418 194.448 336.418C196.407 336.418 200.564 334.275 203.684 331.656C206.805 329.037 211 326.894 213.005 326.894C224.494 326.894 254.633 350.531 265.833 368.327C271.452 377.256 273.622 378.183 276.47 372.878C278.425 369.232 277.57 367.597 262.368 345.941C257.689 339.276 256.541 335.399 255.683 323.364C254.839 311.545 254.024 308.716 251.31 308.2C247.341 307.446 244.141 314.534 244.141 324.086V330.555L230.348 323.962C222.761 320.335 215.671 317.336 214.59 317.298C213.511 317.258 210.008 312.713 206.809 307.198C201.087 297.34 201.047 297.081 204.328 291.667C206.704 287.752 210.153 285.533 216.283 283.982C224.772 281.831 224.992 281.896 231.178 288.386C242.468 300.231 258.573 305.036 269.836 299.917C275.652 297.275 275.738 296.02 270.839 285.253C268.761 280.684 267.055 273.398 267.05 269.06C267.034 256.994 263.625 247.323 256.669 239.605C251.201 233.54 250.614 231.955 252.314 227.835C253.393 225.215 254.36 215.852 254.461 207.027C254.644 191.105 254.688 190.969 260.023 189.537C267.582 187.506 278.273 178.943 282.799 171.291C284.908 167.725 287.009 165.18 287.465 165.637C287.924 166.092 286.831 171.487 285.041 177.625C279.239 197.509 284.644 274.177 293.562 298.509C298.331 311.517 302.258 341.871 300.669 353.434C298.927 366.11 285.735 391.787 276.853 399.79C267.676 408.061 257.097 410.177 241.299 406.909C229.196 404.402 224.32 406.207 228.768 411.553C234.817 418.822 259.308 420.461 272.522 414.481C277.102 412.408 281.183 410.713 281.594 410.713C282.005 410.713 282.341 419.245 282.341 429.673C282.341 449.319 284.807 458.888 289.625 457.935C291.881 457.49 292.471 452.497 292.729 431.668C293.037 406.899 293.338 405.106 300.921 383.091C313.204 347.422 313.597 321.581 302.279 293.903C293.829 273.238 289.255 206.96 294.565 182.115C298.759 162.49 298.631 161.694 289.979 153.317C281.141 144.762 278.928 144.511 258.466 149.73C250.251 151.826 243.454 153.54 243.358 153.538C243.265 153.538 243.127 149.382 243.053 144.301C242.835 129.197 231.643 114.372 224.503 119.733ZM220.553 148.138C216.714 157.741 213.954 165.976 214.418 166.441C214.884 166.906 218.97 165.252 223.497 162.768C231.276 158.499 231.759 157.737 232.322 148.879C232.978 138.594 231.583 130.681 229.116 130.681C228.245 130.681 224.392 138.537 220.553 148.138ZM313.271 138.699C302.97 141.954 301.311 143.097 301.811 146.595C302.31 150.083 303.545 150.633 310.23 150.35C321.377 149.877 332 145.073 332 140.506C332 137.641 327.498 133.527 325.636 134.692C325.46 134.803 319.895 136.605 313.271 138.699ZM254.49 160.939C243.633 164.039 222.242 173.457 195.523 186.898C184.249 192.572 184.073 192.787 179.938 205.948C177.638 213.271 176.11 219.628 176.544 220.076C176.977 220.523 179.082 219.018 181.217 216.73C188.783 208.632 194.075 206.327 202.153 207.617C208.223 208.585 209.762 208.244 209.762 205.933C209.762 204.192 216.044 200.001 225.519 195.419C234.185 191.229 243.425 186.544 246.051 185.011C248.678 183.475 254.885 180.542 259.847 178.488C268.436 174.933 276.586 165.812 276.603 159.732C276.613 156.489 268.522 156.931 254.49 160.939ZM229.817 204.365C220.166 209.345 216.968 212.259 218.483 214.704C219.31 216.037 239.571 227.835 241.036 227.835C241.46 227.835 242.356 224.916 243.026 221.35C244.308 214.532 242.587 199.197 240.554 199.349C239.901 199.397 235.069 201.654 229.817 204.365ZM188.114 224.501C178.205 236.613 152.614 273.476 148.341 281.793C146.282 285.801 144.878 290.516 145.222 292.271C145.619 294.301 150.328 288.943 158.162 277.543C164.935 267.689 174.676 255.045 179.806 249.445C190.804 237.443 192.534 237.182 220.777 243.273C240.866 247.604 244.722 249.096 251.304 255.074C255.529 258.912 256.711 257.703 254.459 251.847C252.171 245.898 205.214 216.405 198.033 216.405C196.22 216.405 191.757 220.047 188.114 224.501Z" fill="#1A7674"/>
<path fill-rule="evenodd" clip-rule="evenodd" d="M82.622 43.518C82.4228 43.7015 82.1404 44.0857 81.994 44.3716C81.3911 45.5515 81.2706 45.1252 85.7037 57.485L89.8261 68.9787L90.4223 69.419C92.3233 70.823 94.7066 69.9682 95.2818 67.6761L95.4623 66.9571L91.3677 55.541C86.8175 42.8545 87.0627 43.3865 85.5392 42.8984C84.7029 42.6305 83.2502 42.939 82.622 43.518ZM108.481 34.4824C107.329 35.7506 107.493 37.8836 108.833 39.0481C109.241 39.4026 109.844 39.6668 110.536 39.7943C111.488 39.9691 111.633 40.0562 111.821 40.5647C112.306 41.8774 111.694 43.4274 110.258 44.5222C109.371 45.1989 109.206 45.6191 109.504 46.4491C110.146 48.2392 113.604 46.2847 114.821 43.4437C115.7 41.3919 115.683 39.4888 114.763 36.9289C114.078 35.0239 113.607 34.3328 112.615 33.7795C111.204 32.9923 109.585 33.2675 108.481 34.4824ZM94.6033 40.6049C93.7563 41.6201 93.7015 42.6994 94.3988 44.6433L94.9745 46.2484L94.505 46.4176C93.8645 46.6483 93.1993 47.5217 93.1026 48.2589C92.9744 49.2358 93.4603 50.3385 94.2129 50.7794C94.9281 51.1982 95.8279 51.3715 96.3377 51.1887C96.667 51.0706 96.733 51.2218 98.8454 56.9303C100.929 62.56 101.045 62.8265 101.756 63.6341C102.799 64.8175 104.324 65.4239 105.938 65.2969C107.448 65.1781 110.108 64.1238 111.053 63.27C111.945 62.4636 112.338 61.3377 112.029 60.4748C111.489 58.9702 110.211 58.4304 108.575 59.016C108.039 59.2079 107.39 59.3467 107.133 59.3247C106.132 59.239 106.03 59.0553 104.11 53.8787L102.317 49.0442L103.909 48.4732C105.872 47.7692 106.412 47.259 106.586 45.9475C106.771 44.5417 106.003 43.464 104.608 43.1726C104.068 43.06 103.626 43.1469 102.276 43.6303L100.611 44.2269L99.9729 42.4484C99.277 40.5083 98.8654 40.025 97.5727 39.631C96.6664 39.3546 95.2623 39.8152 94.6033 40.6049ZM123.173 36.0458C121.257 37.3819 120.147 39.1414 119.964 41.1349C119.873 42.1233 119.938 42.4862 120.476 43.9854C121.044 45.5692 121.157 45.7612 121.93 46.443C123.457 47.7905 124.997 48.1054 129.376 47.9653C133.037 47.8482 133.886 48.1778 133.765 49.6699C133.742 49.9535 133.481 50.3848 133.157 50.6727C131.949 51.7475 129.873 52.1048 126.85 51.7583C124.802 51.5238 123.915 51.701 123.347 52.4578C122.526 53.5521 122.811 55.1608 123.958 55.9088C124.831 56.4776 127.881 56.8163 130.005 56.58C132.216 56.3339 135.276 55.1503 136.54 54.0522C138.972 51.9385 139.604 49.6608 138.577 46.7031C137.959 44.9206 137.257 44.1097 135.722 43.4066C134.465 42.8303 132.913 42.637 129.647 42.6496C128.277 42.6548 126.793 42.5691 126.35 42.4591C125.644 42.2842 125.513 42.1756 125.302 41.587C124.671 39.8288 127.032 38.7336 130.946 38.9689C131.711 39.0149 132.602 38.9576 132.925 38.8415C134.348 38.3313 134.8 36.9874 134.092 35.3759C133.236 33.4281 126.318 33.8524 123.173 36.0458ZM91.4085 82.7961C88.2698 85.0829 86.572 88.5402 86.5986 92.5909L86.6086 94.1366L94.5882 116.384L102.568 138.632L103.542 139.832C105.75 142.549 108.506 144.024 111.889 144.299C113.3 144.414 114.732 144.255 115.826 143.863L116.587 143.59L119.054 150.469C121.361 156.9 121.557 157.381 122.076 157.868C123.604 159.303 125.867 159.383 127.323 158.054C127.693 157.717 129.465 154.146 132.945 146.731L138.026 135.9L202.022 112.947C248.642 96.2263 266.244 89.8542 266.853 89.4773C267.312 89.1928 268.087 88.5739 268.574 88.1021C271.011 85.739 272.201 82.8485 272.178 79.3479L272.168 77.8022L264.189 55.5544L256.209 33.3065L255.235 32.1068C253.149 29.5389 250.532 28.0527 247.426 27.6709C244.71 27.3371 251.837 24.8877 168.13 54.9255C96.4682 80.6414 92.2753 82.1645 91.4085 82.7961ZM150.343 72.7082C149.476 73.3839 148.794 74.2945 148.373 75.3372C147.907 76.4932 147.976 75.6334 145.699 108.313C145.211 115.308 145.196 116.034 145.521 116.914C146.403 119.301 148.708 120.421 151.041 119.594C152.573 119.051 153.23 118.476 153.845 117.138C154.329 116.086 154.41 115.513 154.601 111.769L154.816 107.577L163.698 104.441L172.581 101.305L175.307 104.244C178.517 107.704 179.237 108.262 180.714 108.441C182.111 108.61 183.867 108.03 184.774 107.101C186.061 105.782 186.426 103.451 185.596 101.855C185.311 101.308 160.293 74.6861 158.378 72.892C157.648 72.2084 156.259 71.5674 155.196 71.4229C154.323 71.3046 153.911 71.3684 152.445 71.8492C151.496 72.1603 150.551 72.5468 150.343 72.7082ZM187.926 59.2513C186.145 60.1811 184.918 61.1031 183.379 62.6687C182.093 63.9774 181.785 64.4267 180.971 66.1789C179.399 69.5658 179.331 72.0805 180.709 75.8978C181.96 79.3618 183.332 81.0934 185.864 82.4028C188.905 83.9756 191.375 84.1534 200.442 83.4526C203.003 83.2546 205.128 83.3431 206.338 83.6978C207.3 83.98 208.274 84.8412 208.58 85.6792C209.582 88.427 207.22 91.0088 202.673 92.136C199.701 92.8725 197.204 92.8419 193.771 92.0269C192.653 91.7614 191.33 91.5865 190.799 91.6339C186.827 91.9888 185.232 96.8006 188.197 99.484C189.182 100.376 190.862 100.905 193.945 101.295C200.065 102.069 206.409 100.794 211.313 97.8034C215.265 95.3934 217.708 91.9293 218.122 88.1491C218.398 85.6241 218.237 84.4108 217.265 81.6917C215.99 78.1269 214.537 76.418 211.645 75.0788C208.826 73.7739 205.677 73.4794 199.649 73.9571C192.434 74.5292 190.666 74.2388 189.611 72.3089C189.088 71.3515 189.065 70.2844 189.547 69.2908C190.994 66.3024 195.591 65.0337 201.8 65.9098C203.927 66.2099 204.219 66.2049 205.189 65.8529C207.728 64.9325 208.804 62.6425 207.894 60.1032C207.107 57.9095 205.848 57.1766 202.171 56.7705C199.527 56.4786 198.09 56.5048 195.565 56.891C193.405 57.2214 189.507 58.426 187.926 59.2513ZM240.425 40.6897C239.57 41.395 238.948 42.277 238.605 43.2717C238.431 43.7789 237.201 48.2284 235.873 53.1592L233.458 62.1247L225.667 56.5289C221.382 53.4513 217.545 50.7671 217.14 50.5642C215.897 49.9419 214.582 49.8851 213.167 50.3923C211.722 50.9106 211.067 51.4571 210.407 52.6956C209.751 53.9255 209.704 54.9141 210.231 56.39C210.553 57.2941 210.836 57.7714 211.367 58.3093C211.756 58.7031 216.557 62.0548 222.036 65.7574L231.999 72.4896L234.212 78.6612C236.643 85.438 236.812 85.7741 238.23 86.6236C240.616 88.0535 244.29 86.7356 245.223 84.1152C245.778 82.5574 245.697 82.1994 243.231 75.3008L240.984 69.0154L244.423 57.6023C246.315 51.325 247.912 45.6915 247.972 45.0832C248.192 42.8751 246.898 40.6121 245.025 39.9295C243.586 39.4048 241.582 39.7359 240.425 40.6897ZM100.518 91.6839C100.119 92.1018 99.6657 92.8236 99.5105 93.2878C98.9257 95.0369 98.6614 94.15 105.213 112.415C109.211 123.563 111.331 129.285 111.625 129.724C112.302 130.735 113.615 131.535 114.843 131.683L115.908 131.812L128.469 127.302C142.637 122.216 141.84 122.588 142.538 120.737C143.138 119.145 142.788 117.383 141.633 116.186C140.792 115.315 140.157 115.007 138.967 114.889L137.967 114.79L128.36 118.234L118.752 121.679L117.242 117.469L115.732 113.26L123.8 110.358C130.092 108.095 131.99 107.355 132.426 106.996C134.225 105.514 134.505 102.97 133.09 100.962C132.576 100.232 131.219 99.4796 130.116 99.3135C129.303 99.1908 129.136 99.2419 121.028 102.094L112.769 104.999L111.324 100.969L109.879 96.9396L119.229 93.5846C125.295 91.4086 128.786 90.0835 129.167 89.8135C129.917 89.2815 130.678 87.8594 130.761 86.8322C130.841 85.8399 130.295 84.2365 129.626 83.5003C128.973 82.7813 127.812 82.2072 126.827 82.1161C126.073 82.0462 125.345 82.2875 113.636 86.483L101.243 90.9238L100.518 91.6839ZM156.032 83.6895C156.015 83.9582 155.84 87.3333 155.643 91.1898L155.285 98.2016L160.69 96.3141C163.663 95.2762 166.113 94.3905 166.133 94.3461C166.154 94.3018 163.897 91.776 161.117 88.7331C156.592 83.7797 156.06 83.2519 156.032 83.6895Z" fill="#1A7674"/>
</svg>
