<svg width="432" height="458" viewBox="0 0 432 458" fill="none" xmlns="http://www.w3.org/2000/svg">
<path d="M277 23C277 10.2974 266.703 0 254 0H78C65.2975 0 55 10.2975 55 23V59C55 71.7026 65.2975 82 78 82H154.946C161.933 82 168.541 85.1761 172.906 90.632L189.272 111.091C191.688 114.11 196.287 114.09 198.676 111.049L214.593 90.7901C218.954 85.2404 225.621 82 232.679 82H254C266.703 82 277 71.7025 277 59V23Z" fill="#1A7674"/>
<path d="M137.902 47L140.422 34.4H145.282C146.806 34.4 147.982 34.736 148.81 35.408C149.65 36.08 150.07 37.01 150.07 38.198C150.07 39.266 149.824 40.19 149.332 40.97C148.852 41.738 148.162 42.332 147.262 42.752C146.362 43.16 145.294 43.364 144.058 43.364H139.954L141.196 42.248L140.242 47H137.902ZM141.142 42.518L140.314 41.384H144.148C145.276 41.384 146.152 41.132 146.776 40.628C147.4 40.124 147.712 39.386 147.712 38.414C147.712 37.73 147.478 37.22 147.01 36.884C146.554 36.548 145.894 36.38 145.03 36.38H141.376L142.6 35.21L141.142 42.518ZM150.859 47L153.379 34.4H155.701L153.883 43.346L162.433 34.4H164.647L162.127 47H159.805L161.641 38.072L153.073 47H150.859ZM165.303 47.18C165.087 47.18 164.883 47.162 164.691 47.126C164.487 47.102 164.265 47.06 164.025 47L164.583 44.966C164.727 45.014 164.889 45.038 165.069 45.038C165.561 45.038 165.987 44.864 166.347 44.516C166.707 44.168 167.043 43.598 167.355 42.806C167.667 42.014 167.985 40.952 168.309 39.62L169.551 34.4H178.821L176.301 47H173.997L176.229 35.804L176.661 36.38H170.667L171.279 35.786L170.379 39.656C170.043 41.06 169.707 42.242 169.371 43.202C169.047 44.162 168.687 44.936 168.291 45.524C167.907 46.1 167.469 46.52 166.977 46.784C166.497 47.048 165.939 47.18 165.303 47.18ZM179.845 47L182.365 34.4H184.687L182.869 43.346L191.419 34.4H193.633L191.113 47H188.791L190.627 38.072L182.059 47H179.845Z" fill="white"/>
<path fill-rule="evenodd" clip-rule="evenodd" d="M173.199 117.811C156.441 120.086 142.955 124.514 130.425 131.855C125.386 134.808 125.574 134.633 114.956 146.206C105.833 156.15 94.1235 169.963 93.0224 172.08C89.4676 178.916 86.7844 191.045 84.9669 208.493C83.6691 220.953 83.6796 251.536 84.9874 267.154C87.3491 295.36 91.5143 316.1 96.5063 324.512C98.6887 328.189 107.207 338.925 113.426 345.835C122.502 355.921 131.569 363.841 141.528 370.384C146.233 373.474 156.064 378.642 160.708 380.466C161.934 380.947 162.929 381.636 162.92 381.997C162.911 382.357 161.318 383.74 159.38 385.069C140.822 397.798 128.262 417.413 123.698 440.793C122.348 447.71 121.295 456.709 121.75 457.441C121.941 457.749 122.991 458 124.083 458H126.068L126.166 455.028C126.474 445.661 129.64 432.108 133.695 422.803C139.361 409.802 150.181 396.55 161.463 388.794L165.361 386.115L168.391 389.484C171.974 393.468 175.967 395.937 178.837 395.944C182.009 395.952 181.186 394.408 177.167 392.811C173.623 391.403 170.559 388.641 169.975 386.329C169.535 384.582 170.033 383.374 171.037 383.757C171.476 383.924 174.847 384.584 178.529 385.222L185.223 386.382L185.068 390.253C184.716 399.104 177.55 448.021 175.542 455.292C175.015 457.201 175.528 457.698 177.707 457.389C178.704 457.249 178.984 456.799 179.277 454.871C179.473 453.581 180.244 449.123 180.99 444.964C186.915 411.939 191.75 367.938 193.12 334.581L193.467 326.138L187.981 319.459C177.779 307.038 174.997 303.527 174.997 303.068C174.997 302.142 177.71 302.722 186.519 305.533C188.674 306.221 191.192 306.784 192.113 306.784C194.185 306.784 194.481 306.328 199.896 294.84C204.373 285.339 205.439 283.65 207.486 282.806C210.451 281.585 213.809 284.382 214.187 288.386C214.653 293.321 209.848 308.967 204.592 319.632L201.216 326.485V391.46V456.436H196.409C193.766 456.436 191.708 456.54 191.836 456.668C191.964 456.796 194.96 456.94 198.493 456.988L204.916 457.077L204.894 423.062L204.872 389.046L208.943 389.392C211.182 389.581 214.014 389.87 215.236 390.033L217.457 390.33L217.117 421.708C216.93 438.966 216.938 453.723 217.134 454.5C217.423 455.643 217.792 455.914 219.055 455.914H220.618L220.715 424.758C220.768 407.623 220.845 393.133 220.887 392.56C220.929 391.986 221.131 386.237 221.337 379.785C222.339 348.352 224.544 323.472 227.744 307.485C229.788 297.268 232.58 289.314 234.721 287.605C239.111 284.102 242.135 284.549 243.996 288.978C245.705 293.045 244.357 298.907 240.731 303.167C237.838 306.568 237.805 306.634 238.429 307.793C238.934 308.732 239.504 308.869 242.904 308.869C246.271 308.869 246.876 309.012 247.364 309.918C248.447 311.931 245.641 316.454 238.656 323.958L235.562 327.281L235.618 348.709C235.673 370.377 236.521 384.892 238.695 401.424C239.109 404.579 239.82 409.976 240.274 413.417C241.249 420.811 243.37 434.235 244.435 439.75C244.85 441.901 245.718 446.476 246.364 449.918C247.009 453.359 247.577 456.234 247.626 456.307C247.675 456.38 248.422 456.089 249.286 455.661L250.857 454.882L249.167 445.882C248.237 440.932 246.968 433.831 246.346 430.103C245.724 426.375 244.999 422.034 244.734 420.457C244.217 417.372 241.881 399.304 241.322 394.066C240.999 391.037 241.043 390.862 242.205 390.553C242.878 390.374 244.696 390.224 246.244 390.221C249.742 390.212 263.011 388.313 266.369 387.341C268.422 386.746 268.86 386.741 268.86 387.31C268.86 388.474 261.914 394.586 259.416 395.621C255.316 397.318 254.702 397.674 254.702 398.349C254.702 400.27 259.904 399.255 263.534 396.625C264.589 395.86 266.796 393.949 268.439 392.377C270.887 390.034 271.564 389.632 272.188 390.147C272.607 390.492 274.482 393.288 276.354 396.361C286.558 413.1 291.45 429.019 292.285 448.204L292.62 455.902L271.957 456.045L251.294 456.188L273.727 456.312C293.924 456.423 296.193 456.352 296.484 455.597C297.025 454.196 295.7 437.224 294.614 431.638C291.615 416.22 285.631 402.015 276.762 389.259C273.884 385.121 273.825 384.999 274.675 384.999C276.009 384.999 285.255 380.144 290.097 376.901C304.841 367.027 318.068 354.167 325.748 342.241C330.281 335.2 330.619 334.629 332.715 330.461C337.124 321.695 341.218 309.518 343.304 298.962C343.899 295.951 344.843 291.727 345.402 289.576C348.03 279.467 348.726 265.763 347.208 254.036C344.382 232.211 335.715 211.493 318.882 186.332C308.408 170.674 303.437 165.359 292.157 157.759C282.391 151.179 276.399 146.18 264.403 134.607C259.212 129.6 253.902 124.891 252.605 124.144C247.305 121.094 239.501 119.048 228.378 117.792C218.941 116.726 181.09 116.739 173.199 117.811ZM184.698 120.927C183.833 121.042 180.293 121.395 176.833 121.711C164.106 122.874 151.602 126.157 140.927 131.14C133.714 134.508 128.535 137.758 125.952 140.538C119.101 147.912 114.17 153.523 114.17 153.943C114.17 154.208 115.055 154.335 116.136 154.224C117.218 154.114 122.114 153.763 127.017 153.445C136.355 152.839 152.64 150.914 159.153 149.646C163.403 148.819 165.854 147.427 170.278 143.326C171.864 141.855 173.947 140.019 174.907 139.246C178.599 136.267 180.835 138.344 178.066 142.181C177.481 142.992 177.095 143.748 177.209 143.861C177.561 144.211 182.427 140.708 186.271 137.336C190.246 133.85 191.897 132.947 193.42 133.428C194.983 133.921 194.638 134.943 191.432 139.319L190.539 140.538L192.6 139.664C197.647 137.524 197.904 137.482 199.369 138.547C200.313 139.234 200.308 139.314 199.199 141.098C195.765 146.624 180.194 152.944 164.279 155.274C158.42 156.131 157.511 156.391 158.798 156.84C163.631 158.528 166.269 159.668 169.418 161.429C183.352 169.22 193.626 183.62 198.976 202.856C200.236 207.386 200.401 208.896 200.414 216.054C200.43 224.76 200.131 226.114 196.69 232.881C194.843 236.512 188.21 243.003 183.649 245.64C180.194 247.639 179.874 247.986 178.189 251.554C176.329 255.493 175.406 260.376 176.521 260.376C177.836 260.376 182.418 257.654 186.086 254.695C190.459 251.167 193.2 248.11 197.305 242.185C199.741 238.669 200.974 237.433 202.046 237.433C202.166 237.433 202.263 237.96 202.259 238.606C202.254 239.991 199.266 244.805 195.761 249.079C194.388 250.753 193.409 252.265 193.584 252.439C193.759 252.613 196.031 252.857 198.633 252.981L203.363 253.205L205.195 251.077C206.282 249.815 208.457 248.249 210.536 247.231C214.035 245.518 214.061 245.515 221.919 245.528C228.387 245.539 230.565 245.749 234.107 246.702C236.478 247.339 238.644 247.861 238.918 247.861C239.96 247.861 239.793 245.972 238.609 244.363C235.411 240.018 232.506 231.697 234.188 231.697C234.914 231.697 235.639 232.773 237.691 236.902C241.294 244.151 245.442 248.672 251.126 251.547C254.303 253.154 258.229 254.25 258.61 253.638C258.737 253.433 255.533 249.997 251.489 246.001C237.6 232.275 229.634 219.072 226.34 204.321C225.166 199.061 225.429 188.962 226.885 183.464C228.41 177.705 230.458 172.591 232.766 168.776C234.901 165.247 239.613 160.801 242.888 159.225C244.225 158.582 245.221 157.958 245.103 157.841C244.984 157.723 241.828 157.409 238.09 157.143C224.937 156.208 218.744 152.355 213.96 142.13C211.834 137.586 211.07 132.231 212.391 131.141C214.034 129.786 215.734 131.607 219.124 138.353C220.843 141.773 223.094 144.321 224.786 144.761C225.961 145.066 225.976 145.109 223.716 141.749C221.904 139.056 220.338 134.623 220.787 133.46C221.009 132.884 221.57 132.612 222.32 132.718C223.154 132.836 224.594 134.495 227.211 138.354C233.837 148.127 237.921 150.087 253.315 150.884C262.63 151.366 272.6 152.797 277.415 154.342C278.804 154.788 280.044 155.048 280.171 154.922C280.298 154.795 278.534 153.124 276.25 151.208C273.967 149.292 267.771 143.507 262.482 138.354C251.534 127.686 249.262 126.222 240.236 124.017C231.342 121.845 222.479 121.09 203.576 120.896C194.058 120.798 185.563 120.812 184.698 120.927ZM147.577 141.929C143.617 144.836 139.998 146.508 136.067 147.245C132.127 147.985 131.474 148.245 131.474 149.074C131.474 151.069 138.347 150.308 143.871 147.702C147.635 145.925 152.449 141.827 152.449 140.397C152.449 138.839 151.291 139.203 147.577 141.929ZM239.495 140.735C239.495 143.285 266.129 150.553 267.484 148.372C268.235 147.164 266.462 146.401 258.635 144.566C256.039 143.957 251.264 142.664 248.022 141.691C241.454 139.722 239.495 139.502 239.495 140.735ZM138.815 159.017C134.64 159.533 126.584 161.471 122.836 162.862C114.922 165.798 107.965 171.629 105.035 177.784C102.748 182.585 102.186 186.529 102.028 198.846L101.885 210.057L103.486 213.446C106.719 220.29 114.85 228.57 123.752 234.084C128.884 237.263 141.386 242.995 146.807 244.656C151.424 246.07 158.785 247.336 162.412 247.339C166.772 247.343 174.317 245.802 178.018 244.15C186.328 240.443 192.704 233.909 195.512 226.222C197.198 221.607 197.209 211.305 195.535 205.104C191.863 191.501 186.728 181.896 178.71 173.631C171.997 166.712 165.413 162.751 156.549 160.298C152.575 159.198 142.966 158.504 138.815 159.017ZM177.934 159.654C177.596 160.198 180.638 163.102 184.436 165.858C187.84 168.328 193.531 174.143 195.833 177.502C199.266 182.515 200.867 186.345 203.612 196.109C204.532 199.382 205.574 200.278 206.195 198.332C207.117 195.444 203.876 185.3 199.838 178.432C194.796 169.855 179.658 156.879 177.934 159.654ZM250.529 160.609C248.004 161.144 244.026 162.937 241.734 164.573C237.191 167.818 233.642 174.004 231.072 183.155C229.471 188.861 229.415 189.386 229.661 196.448C229.894 203.157 230.084 204.3 231.836 209.516C232.892 212.66 235.186 217.939 236.933 221.247C240.157 227.35 246.03 236.107 247.235 236.608C247.598 236.759 249.105 236.654 250.584 236.375C252.062 236.097 255.693 235.868 258.651 235.868C268.209 235.868 273.649 238.326 278.366 244.775C279.818 246.759 281.178 248.383 281.389 248.383C282.092 248.383 284.379 245.567 287.395 240.989C291.991 234.013 296.619 230.654 301.632 230.654C304.014 230.654 308.481 232.079 311.619 233.84C313.116 234.68 314.708 235.227 315.157 235.056C317.67 234.097 319.102 222.102 318.191 209.629C317.45 199.48 316.967 196.605 314.949 190.341C313.512 185.881 312.743 184.484 308.948 179.457C302.081 170.357 298.542 168.301 282.232 163.93C273.07 161.475 267.784 160.662 259.946 160.502C255.476 160.411 251.238 160.459 250.529 160.609ZM107.544 163.815C104.63 164.61 104.06 165.011 101.488 168.082C97.1209 173.296 96.3941 174.508 94.7659 179.299C90.4047 192.128 88.2899 211.031 88.3198 236.911C88.3601 271.277 92.6459 305.354 98.7129 319.544C99.8943 322.307 105.355 329.847 105.809 329.343C106.007 329.124 106.448 323.9 106.789 317.734C107.131 311.568 107.63 303.238 107.9 299.223C108.17 295.208 108.396 287.816 108.402 282.797C108.421 266.924 109.396 259.833 111.907 257.337C112.324 256.923 112.583 255.878 112.494 254.973C112.342 253.425 112.1 253.268 107.169 251.511C101.727 249.572 99.4874 247.841 99.4874 245.577C99.4874 244.425 101.42 242.133 102.405 242.118C102.675 242.113 103.241 241.892 103.664 241.626C104.28 241.24 103.833 240.565 101.425 238.246C96.6432 233.641 93.8692 228.568 96.1329 228.568C96.5949 228.568 98.5681 230.186 100.518 232.163C102.467 234.14 105.02 236.388 106.19 237.158L108.318 238.559L109.409 237.474C110.242 236.646 111.163 236.39 113.31 236.39C116.08 236.39 116.118 236.369 115.852 234.987C115.681 234.096 113.534 231.572 109.976 228.077C103.656 221.869 100.479 217.363 98.9263 212.404C97.9525 209.292 97.8917 208.119 98.1843 198.064C98.5639 185.021 99.3778 180.129 101.99 175.182C103.85 171.66 107.917 167.028 111.548 164.297C113.317 162.966 113.336 162.917 112.072 162.927C111.351 162.933 109.314 163.333 107.544 163.815ZM260.995 164.084C241.478 170.103 234.243 185.331 240.864 206.45C244.287 217.365 257.263 226.855 271.174 228.618C278.962 229.604 285.135 227.74 292.981 222.03C301.14 216.094 305.03 209.703 305.03 202.236C305.03 194.383 299.405 184.462 289.049 174.049C279.174 164.12 270.67 161.1 260.995 164.084ZM260.47 167.323C250.993 170.607 244.335 177.097 242.144 185.188C240.592 190.919 242.016 203.301 244.881 208.991C246.117 211.447 250.845 216.489 254.227 218.957C262.828 225.236 275.184 227.746 282.586 224.719C286.874 222.965 294.153 217.99 296.606 215.136C300.305 210.833 301.545 207.999 301.789 203.285C302.141 196.471 300.059 191.644 292.847 182.56C287.739 176.125 281.683 170.695 276.956 168.309C273.541 166.586 272.474 166.306 268.718 166.145C265.107 165.991 263.761 166.184 260.47 167.323ZM152.187 169.071C134.712 173.803 123.581 180.705 119.516 189.329C118.206 192.109 118.103 192.825 118.112 199.107C118.119 205.13 118.276 206.312 119.516 209.71C123.195 219.788 129.249 226.116 140.69 231.845C146.891 234.951 151.453 236.114 157.431 236.112C163.645 236.109 167.865 234.892 172.918 231.645C179.276 227.558 183.189 222.259 185.434 214.694C187.213 208.698 186.843 204.149 183.808 194.675C181.35 186.999 176.062 178.308 171.465 174.387C165.054 168.918 158.958 167.237 152.187 169.071ZM152.266 172.034C141.755 174.942 134.492 178.174 128.815 182.473C122.837 186.999 120.812 191.194 120.785 199.107C120.771 203.245 121.022 205.069 122.003 207.944C123.393 212.019 126.037 216.783 128.758 220.114C132.251 224.391 143.103 230.593 150.477 232.526C164.105 236.098 177.491 228.845 182.219 215.327C184.032 210.142 183.72 203.318 181.351 196.341C177.261 184.299 171.405 176.454 163.771 172.79C159.316 170.651 157.66 170.542 152.266 172.034ZM263.801 177.544C260.08 177.971 257.091 179.344 254.17 181.969C249.265 186.375 247.667 194.37 250.678 199.443C252.651 202.769 256.766 206.465 260.356 208.138C263.026 209.383 263.957 209.533 268.86 209.513C274.766 209.489 278.129 208.5 280.834 205.99C285.494 201.668 285.171 191.789 280.132 184.481C276.356 179.006 270.977 176.721 263.801 177.544ZM259.002 182.265C258.124 183.137 258.216 185.553 259.157 186.33C259.789 186.851 260.195 186.81 261.254 186.121C262.777 185.129 262.885 184.407 261.751 182.798C260.84 181.504 259.942 181.33 259.002 182.265ZM266.904 185.002C264.341 186.136 263.096 188.578 263.094 192.48C263.09 199.98 267.882 203.866 273.268 200.728C276.436 198.882 277.25 197.588 277.25 194.401C277.25 191.33 275.279 186.875 273.369 185.631C271.511 184.421 268.811 184.158 266.904 185.002ZM140.385 188.352C136.472 189.628 133.482 192.259 131.421 196.239C130.422 198.168 130.202 199.42 130.184 203.278C130.165 207.517 130.313 208.239 131.704 210.737C135.662 217.843 144.439 221.743 151.341 219.462C159.52 216.761 164.017 205.555 160.11 197.613C157.409 192.123 151.601 188.37 145.37 188.089C143.351 187.998 141.108 188.117 140.385 188.352ZM253.935 190.482C252.737 191.799 252.356 195.59 253.252 197.282C254.981 200.548 258.897 197.699 258.897 193.175C258.897 191.82 258.614 190.43 258.268 190.086C257.305 189.128 254.973 189.342 253.935 190.482ZM139.501 191.653C136.715 192.979 137.794 195.337 141.077 195.092C143.549 194.907 144.766 193.567 143.526 192.394C142.391 191.319 140.812 191.029 139.501 191.653ZM145.112 197.9C141.752 199.622 140.389 201.892 140.389 205.764C140.389 208.684 140.514 209.001 142.424 210.901C144.113 212.58 144.819 212.925 146.565 212.925C148.303 212.925 148.943 212.615 150.239 211.147C153.159 207.841 154.77 199.888 152.896 198.025C151.44 196.576 147.81 196.518 145.112 197.9ZM132.98 198.667C131.95 199.904 132.033 205.882 133.095 206.939C134.856 208.69 136.718 206.243 136.718 202.177C136.718 200.881 136.474 199.367 136.175 198.812C135.51 197.576 133.949 197.505 132.98 198.667ZM321.639 203.881C322.324 210.482 321.932 209.345 329.164 225.7C332.596 233.462 334.127 237.487 335.806 243.168C337 247.207 337.158 248.934 337.589 262.63C337.85 270.896 338.174 277.838 338.309 278.055C338.444 278.272 338.611 281.599 338.679 285.447C338.747 289.296 338.95 293.383 339.129 294.53L339.456 296.616L339.838 295.051C340.048 294.191 340.684 291.61 341.251 289.315C345.66 271.467 344.462 251.644 337.785 231.957C334.237 221.496 325.479 203.207 321.931 198.851C321.031 197.746 321.021 197.929 321.639 203.881ZM217.855 202.289C217.391 202.75 218.401 205.111 219.896 207.059C222.71 210.728 225.862 219.215 225.862 223.125C225.862 226.924 228.047 229.695 228.774 226.817C229.243 224.959 228.132 218.09 226.706 214.031C225.334 210.127 222.684 205.689 220.362 203.409C218.868 201.942 218.41 201.737 217.855 202.289ZM205.781 209.927C205.647 210.286 205.657 212.573 205.802 215.011C206.014 218.567 205.846 220.176 204.952 223.149C203.679 227.384 203.53 229.277 204.493 228.962C205.465 228.645 207.422 225.57 208.024 223.415C208.817 220.578 208.681 213.186 207.797 211.083C207.019 209.232 206.211 208.768 205.781 209.927ZM216.03 248.229C214.981 248.43 214.85 248.766 214.85 251.244C214.85 254.987 215.187 255.683 217.003 255.683H218.52V251.772C218.52 247.695 218.556 247.746 216.03 248.229ZM221.667 251.741C221.667 255.707 221.987 256.449 223.455 255.889C224.113 255.638 224.288 254.759 224.288 251.716C224.288 247.952 224.258 247.861 222.978 247.861C221.696 247.861 221.667 247.95 221.667 251.741ZM227.26 248.731C226.755 249.232 226.829 255.05 227.343 255.366C227.582 255.513 228.29 255.499 228.917 255.336C229.902 255.08 230.057 254.673 230.057 252.337C230.057 249.718 229.431 248.383 228.204 248.383C227.877 248.383 227.452 248.539 227.26 248.731ZM241.593 249.437C241.593 250.362 237.287 254.661 235.061 255.958C229.696 259.084 220.994 259.614 211.312 257.405C206.449 256.294 203.479 255.96 197.232 255.816L189.315 255.633L186.277 259.327C184.605 261.358 182.065 264.069 180.632 265.35L178.026 267.68L178.679 271.125C179.754 276.792 179.134 282.02 176.373 290.539C175.039 294.653 173.949 298.348 173.949 298.751C173.949 299.268 174.622 299.483 176.242 299.483C177.503 299.483 181.307 300.319 184.695 301.34C188.083 302.362 191.187 303.07 191.593 302.915C191.999 302.76 193.6 299.968 195.152 296.71C201.949 282.434 202.597 281.39 205.629 279.822C207.659 278.772 211.624 279.17 213.689 280.632C215.615 281.997 217.996 286.539 217.996 288.85C217.996 294.818 211.528 314.455 206.431 323.966L204.878 326.864L205.013 355.801L205.149 384.738L211.104 385.277C216.865 385.799 217.072 385.783 217.452 384.756C217.668 384.172 217.998 378.064 218.186 371.181C218.374 364.298 218.755 356.085 219.033 352.931C219.311 349.776 219.793 343.675 220.105 339.373C222.097 311.911 226.953 290.568 232.458 285.081C238.473 279.084 246.098 281.585 247.948 290.159C248.669 293.506 247.857 298.066 245.873 301.813C245.109 303.256 244.413 304.583 244.328 304.76C244.243 304.937 245.365 305.196 246.821 305.336C250.309 305.669 251.556 306.812 251.556 309.679C251.556 313.328 248.375 318.576 242.056 325.355C240.39 327.141 239.445 328.681 239.193 330.017C238.33 334.593 239.747 384.902 240.768 385.917C241.245 386.391 247.761 386.044 253.614 385.234C256.62 384.818 259.112 384.478 259.153 384.478C259.192 384.478 259.239 383.011 259.255 381.219C259.278 378.718 259.838 376.433 261.659 371.399C264.362 363.931 265.756 361.02 269.628 354.756C279.327 339.067 281.222 333.673 281.812 320.08C282.168 311.87 280.937 301.021 279.033 295.59C277.504 291.228 274.579 286.212 271.133 282.042L268.598 278.973V270.914V262.856L264.815 261.877C259.677 260.547 252.814 256.977 246.92 252.568C244.227 250.553 241.926 248.904 241.808 248.904C241.689 248.904 241.593 249.144 241.593 249.437ZM232.977 251.332C233.178 252.435 233.399 253.405 233.469 253.488C233.538 253.572 234.348 253.011 235.266 252.242C237.108 250.701 236.941 250.236 234.35 249.693L232.612 249.329L232.977 251.332ZM208.735 251.682L206.757 253.485L208.837 254.06C212.139 254.972 212.307 254.89 212.127 252.465C212.038 251.268 211.684 250.197 211.34 250.084C210.995 249.972 209.823 250.691 208.735 251.682ZM96.0548 252.593C95.5808 253.356 97.7412 255.562 100.177 256.805C101.457 257.457 102.956 257.768 104.332 257.666C107.983 257.397 107.282 255.825 103.12 254.95C102.378 254.794 100.892 254.074 99.8188 253.349C97.7155 251.93 96.6054 251.707 96.0548 252.593ZM286.203 256.294C284.806 257.024 283.486 258.235 282.887 259.333C281.449 261.972 281.896 268.332 284.042 275.758C284.954 278.913 286.036 282.667 286.447 284.101C286.932 285.793 288.578 288.539 291.135 291.923C295.908 298.237 297.133 301.375 296.153 304.772C295.792 306.022 295.063 308.569 294.532 310.434C293.318 314.695 293.246 321.439 294.317 330.509C296.281 347.139 296.64 351.217 296.646 356.972C296.649 360.497 296.864 363.099 297.151 363.099C297.894 363.099 303.796 355.961 304.81 353.836C305.406 352.588 305.916 349.094 306.391 342.999C306.777 338.053 307.241 333.336 307.422 332.518C308.241 328.813 310.887 323.245 314.583 317.454C316.986 313.687 319.108 309.113 319.95 305.885C322.728 295.223 317.194 269.386 310.667 262.535C307.67 259.391 298.553 255.851 292.195 255.362C289.031 255.119 288.204 255.248 286.203 256.294ZM245.501 259.371C244.997 260.183 247.247 262.374 250.033 263.784C253.43 265.505 260.725 266.922 262.361 266.181C264.893 265.034 263.367 264.065 257.324 262.986C255.449 262.651 252.323 261.575 250.376 260.594C246.524 258.654 246.025 258.529 245.501 259.371ZM130.17 261.93C129.445 263.071 128.852 264.099 128.852 264.214C128.852 264.329 127.356 267.56 125.528 271.394C123.699 275.228 121.839 279.187 121.394 280.19C120.417 282.394 119.618 288.914 118.868 300.787C117.751 318.47 115.531 337.867 114.417 339.658C114.067 340.221 120.135 347.099 124.975 351.627C132.198 358.383 144.249 367.776 144.884 367.146C145.022 367.007 144.424 363.401 143.553 359.131C140.437 343.844 141.085 340.796 156.116 300.055C160.988 286.848 162.008 282.564 162.087 274.976C162.158 268.176 161.328 264.368 159.517 263.189C158.549 262.558 157.706 262.529 154.484 263.016C152.355 263.339 150.418 263.786 150.18 264.011C149.941 264.236 150.257 266.032 150.882 268.003C151.799 270.895 152.01 272.795 151.977 277.844C151.954 281.285 151.638 285.509 151.275 287.23L150.614 290.358L147.949 290.513C143.219 290.787 142.066 288.695 141.993 279.71C141.971 276.933 141.725 275.58 141.125 274.921C139.647 273.296 138.862 270.131 138.839 265.694L138.815 261.365L136.997 260.61C135.997 260.194 134.348 259.854 133.333 259.854C131.752 259.854 131.299 260.152 130.17 261.93ZM215.636 260.898C214.483 261.113 211.819 261.553 209.718 261.876C207.616 262.199 204.76 263.036 203.369 263.737C200.218 265.325 195.972 269.897 195.972 271.703C195.972 273.004 195.979 273.006 197.414 272.091C198.207 271.586 199.791 270.266 200.933 269.157C203.993 266.187 206.679 265.069 210.758 265.069C215.971 265.069 224.133 268.467 227.228 271.927C228.954 273.856 232.118 274.952 235.999 274.964C238.636 274.973 239.526 274.804 239.366 274.324C239.065 273.416 236.879 272.385 235.233 272.377C233.019 272.364 230.112 270.904 228.366 268.926C227.475 267.917 225.662 266.543 224.337 265.872L221.929 264.653L224.375 264.287C227.147 263.872 231.181 264.592 234.664 266.124C240.259 268.585 241.312 266.349 235.819 263.669C230.108 260.883 221.816 259.744 215.636 260.898ZM288.342 263.27C288.625 264.735 291.6 266.18 294.957 266.483C297.364 266.7 298.47 266.524 300.418 265.613C304.752 263.588 304.182 262.975 298.076 263.093C295.13 263.151 291.693 262.998 290.438 262.753C288.379 262.354 288.174 262.404 288.342 263.27ZM172.157 307.435C172.025 308.081 171.792 310.884 171.638 313.664C171.301 319.758 170.257 322.582 165.342 330.693C160.042 339.443 158.026 344 157.783 347.786C157.582 350.932 157.697 351.475 160.588 361.013C162.035 365.788 163.034 372.109 162.695 374.352L162.356 376.601L168.126 378.418C174.65 380.472 185.234 382.351 185.947 381.581C186.607 380.869 189.204 346.526 189.752 331.27L189.894 327.339L181.326 316.8C176.615 311.004 172.678 306.262 172.578 306.262C172.478 306.262 172.288 306.79 172.157 307.435ZM206.329 456.781C206.689 456.926 207.279 456.926 207.64 456.781C208 456.636 207.705 456.518 206.984 456.518C206.263 456.518 205.968 456.636 206.329 456.781ZM209.737 456.809C210.53 456.928 211.828 456.928 212.621 456.809C213.414 456.69 212.765 456.592 211.179 456.592C209.593 456.592 208.944 456.69 209.737 456.809ZM216.849 456.792C217.227 456.943 217.68 456.924 217.854 456.751C218.028 456.578 217.719 456.454 217.166 456.477C216.555 456.502 216.431 456.625 216.849 456.792ZM127.181 457.835C127.559 457.985 128.012 457.967 128.186 457.794C128.36 457.62 128.051 457.497 127.498 457.52C126.887 457.545 126.763 457.668 127.181 457.835ZM130.819 457.86C132.045 457.97 134.05 457.97 135.276 457.86C136.502 457.751 135.499 457.661 133.047 457.661C130.596 457.661 129.593 457.751 130.819 457.86Z" fill="#1A7674"/>
</svg>
